<?xml version="1.0" encoding="UTF-8" standalone="no"?><!DOCTYPE svg PUBLIC "-//W3C//DTD SVG 1.1//EN" "http://www.w3.org/Graphics/SVG/1.1/DTD/svg11.dtd"><svg width="100%" height="100%" viewBox="0 0 2134 2138" version="1.1" xmlns="http://www.w3.org/2000/svg" xmlns:xlink="http://www.w3.org/1999/xlink" xml:space="preserve" xmlns:serif="http://www.serif.com/" style="fill-rule:evenodd;clip-rule:evenodd;stroke-linejoin:round;stroke-miterlimit:2;"><rect id="bunsh" x="0" y="0.479" width="2133.33" height="2133.33" style="fill:none;"/><path id="Shadow" d="M1883.66,689.129c-4.205,-4.467 -8.672,-8.934 -13.14,-13.139c-4.467,-4.204 -8.672,-8.934 -13.139,-13.139c-4.467,-4.205 -8.672,-8.935 -13.139,-13.139c-4.468,-4.205 -8.672,-8.935 -13.139,-13.139c-4.468,-4.205 -8.672,-8.935 -13.14,-13.14c-4.467,-4.204 -8.672,-8.934 -13.139,-13.139c-4.467,-4.205 -8.672,-8.935 -13.139,-13.139c130.297,128.053 205.019,302.435 207.863,485.1c-0,435.435 -442.004,789.669 -985.443,789.669c-304.305,-0 -576.55,-111.158 -757.609,-285.385l91.975,91.975c180.796,181.584 459.085,298.524 770.748,298.524c543.439,-0 985.443,-354.234 985.443,-788.355c-0,-185.526 -79.887,-361.329 -221.002,-499.554Z" style="fill-rule:nonzero;"/><g id="Body"><path id="Background" d="M1933.86,1082.26c0,399.696 -411.783,723.71 -919.746,723.71c-507.963,-0 -919.747,-324.014 -919.747,-723.71c0,-247.806 157.671,-466.705 399.958,-596.521c242.288,-129.816 393.126,-262.785 519.789,-262.785c126.662,0 234.929,108.53 519.788,262.785c242.288,129.816 399.958,348.715 399.958,596.521Z" style="fill:#fbf0df;fill-rule:nonzero;"/><path id="Bottom_Shadow" d="M1933.86,1082.26c-0.127,-51.345 -7.199,-102.439 -21.022,-151.889c-71.741,875.073 -1139.17,917.119 -1558.84,655.385c188.615,146.193 421.506,223.885 660.116,220.214c507.174,-0 919.746,-324.539 919.746,-723.71Z" style="fill:#f6dece;fill-rule:nonzero;"/><path id="Light_Shine" d="M660.139,437.644c117.464,-70.426 273.559,-202.607 427.025,-202.869c-23.609,-7.632 -48.244,-11.619 -73.054,-11.826c-63.594,0 -131.393,32.848 -216.798,82.252c-29.694,17.344 -60.44,36.527 -93.026,56.499c-61.228,37.841 -131.392,80.675 -210.227,123.508c-250.171,135.335 -399.696,358.439 -399.696,597.047l0,31.272c159.248,-562.622 448.574,-605.456 565.776,-675.883Z" style="fill:#fffefc;fill-rule:nonzero;"/><path id="Top" d="M938.428,289.434c0.743,125.491 -53.329,245.256 -147.948,327.692c-7.358,6.57 -1.577,19.184 7.883,15.505c88.559,-34.425 208.126,-137.437 157.671,-345.299c-2.102,-11.826 -17.606,-8.672 -17.606,2.102Zm59.652,-0c65.032,106.108 80.5,235.525 42.308,353.971c-3.153,9.197 8.147,17.081 14.453,9.46c57.55,-73.58 107.742,-219.688 -42.571,-377.359c-7.621,-6.832 -19.446,3.679 -14.19,12.877l-0,1.051Zm72.528,-4.468c101.823,72.087 167.536,184.903 180.008,309.035c-0.041,0.344 -0.062,0.69 -0.062,1.036c-0,4.757 3.915,8.672 8.672,8.672c4.06,-0 7.603,-2.851 8.471,-6.817c24.176,-91.712 10.511,-248.069 -188.417,-329.269c-10.511,-4.205 -17.343,9.986 -8.672,16.292l0,1.051Zm-485.1,273.297c121.074,-36.171 221.196,-122.236 275.135,-236.507c4.731,-9.46 19.709,-5.781 17.344,4.73c-45.462,210.228 -197.614,254.113 -292.216,248.332c-9.986,0.263 -9.724,-13.665 -0.263,-16.555Z" style="fill:#ccbea7;"/><path id="Outline" d="M1014.11,1871.92c-543.439,-0 -985.443,-354.234 -985.443,-789.669c-0,-262.784 162.401,-507.962 434.383,-654.859c78.835,-42.046 146.371,-84.354 206.549,-121.407c33.111,-20.497 64.382,-39.68 94.602,-57.55c92.238,-54.659 171.073,-91.186 249.909,-91.186c78.835,0 147.685,31.534 233.878,82.515c26.279,14.978 52.557,31.271 80.675,49.14c65.433,40.469 139.276,86.194 236.506,138.488c271.983,146.897 434.384,391.812 434.384,654.859c-0,435.435 -442.004,789.669 -985.443,789.669Zm-0,-1648.98c-63.594,0 -131.393,32.848 -216.798,82.252c-29.694,17.344 -60.44,36.527 -93.026,56.499c-61.228,37.841 -131.392,80.675 -210.227,123.508c-250.171,135.335 -399.696,358.439 -399.696,597.047c0,399.171 412.572,723.973 919.747,723.973c507.174,-0 919.746,-324.802 919.746,-723.973c0,-238.608 -149.524,-461.712 -399.958,-596.521c-99.333,-52.557 -176.854,-101.96 -239.66,-140.853c-28.643,-17.606 -54.922,-33.899 -78.835,-48.352c-79.624,-47.301 -137.699,-73.58 -201.293,-73.58Z" style="fill-rule:nonzero;"/></g><g id="Mouth"><g id="Background-2"><path d="M1199.37,1274.09c-11.803,48.343 -38.683,91.701 -76.733,123.772c-28.566,27.691 -65.566,45.081 -105.114,49.404c-40.736,-3.638 -79.035,-21.072 -108.53,-49.404c-37.662,-32.223 -64.163,-75.564 -75.682,-123.772c-0.111,-0.829 -0.166,-1.665 -0.166,-2.501c-0,-10.38 8.541,-18.921 18.92,-18.921c0.758,0 1.516,0.046 2.269,0.137l324.276,-0c0.665,-0.071 1.333,-0.106 2.002,-0.106c10.379,-0 18.92,8.541 18.92,18.92c0,0.827 -0.054,1.652 -0.162,2.471Z" style="fill:#b71422;fill-rule:nonzero;"/></g><g id="Tongue"><path id="Background-3" d="M908.996,1399.96c29.435,28.349 67.595,45.947 108.267,49.929c40.579,-4.039 78.638,-21.633 108.005,-49.929c9.395,-8.757 18.176,-18.152 26.278,-28.118c-32.704,-37.102 -79.332,-59.084 -128.764,-60.703c-53.1,1.258 -102.303,28.614 -131.393,73.054c6.044,5.519 11.3,10.774 17.607,15.767Z" style="fill:#ff6164;fill-rule:nonzero;"/><path id="Outline-2" d="M913.2,1379.2c26.378,-34.096 67.001,-54.261 110.107,-54.659c39.342,1.16 76.858,17.011 105.114,44.411c6.044,-6.57 11.825,-13.402 17.344,-20.235c-33.421,-31.828 -77.626,-49.942 -123.772,-50.717c-49.918,0.43 -97.107,23.204 -128.501,62.017c6.213,6.751 12.792,13.155 19.708,19.183Z" style="fill-rule:nonzero;"/></g><path id="Outline-3" d="M1016.48,1463.03c-43.781,-3.836 -85.005,-22.364 -116.939,-52.557c-40.672,-34.4 -69.312,-80.906 -81.727,-132.707c-1.802,-9.335 0.712,-19.002 6.833,-26.278c7.293,-8.807 18.266,-13.759 29.695,-13.402l324.276,-0c11.406,-0.24 22.329,4.69 29.695,13.402c6.063,7.302 8.482,16.982 6.569,26.278c-12.414,51.801 -41.055,98.307 -81.726,132.707c-31.866,30.139 -72.988,48.663 -116.676,52.557Zm-162.138,-194.461c-4.205,-0 -5.256,1.839 -5.519,2.365c11.106,44.92 36.241,85.155 71.74,114.837c25.958,25.573 59.724,41.762 95.917,45.987c36.099,-4.177 69.828,-20.163 95.916,-45.462c35.388,-29.732 60.425,-69.957 71.478,-114.836c-1.167,-1.711 -3.202,-2.627 -5.256,-2.366l-324.276,-0.525Z" style="fill-rule:nonzero;"/></g><g id="Face"><ellipse id="Right_Blush" cx="1414.07" cy="1199.98" rx="153.729" ry="90.398" style="fill:#febbd0;"/><ellipse id="Left_Bluch" cx="618.619" cy="1199.98" rx="153.729" ry="90.398" style="fill:#febbd0;"/><path id="Eyes" d="M690.884,1163.72c0.088,-0 0.176,0 0.263,0c79.432,0 144.795,-65.363 144.795,-144.794c-0,-79.432 -65.363,-144.795 -144.795,-144.795c-79.432,0 -144.794,65.363 -144.794,144.794c-0,79.333 65.199,144.651 144.531,144.795Zm650.918,-0c0.351,0.002 0.701,0.004 1.051,0.004c79.432,-0 144.795,-65.363 144.795,-144.795c-0,-79.432 -65.363,-144.794 -144.795,-144.794c-79.43,-0 -144.792,65.36 -144.794,144.79c-0.145,79.09 64.654,144.364 143.743,144.795Z"/><path id="Iris" d="M646.211,1028.12c0.088,0 0.175,0 0.263,0c29.841,0 54.396,-24.555 54.396,-54.396c0,-29.841 -24.555,-54.396 -54.396,-54.396c-29.841,-0 -54.396,24.555 -54.397,54.395c0,29.742 24.392,54.253 54.134,54.397Zm650.392,-0c0,-0 0.701,0 0.789,0c29.841,0 54.396,-24.555 54.396,-54.396c0,-29.841 -24.555,-54.396 -54.396,-54.396c-29.841,-0 -54.396,24.555 -54.397,54.395c-0.003,29.546 24.066,53.969 53.608,54.397Z" style="fill:#fff;"/></g></svg>