<?xml version="1.0" encoding="UTF-8" standalone="no"?><!DOCTYPE svg PUBLIC "-//W3C//DTD SVG 1.1//EN" "http://www.w3.org/Graphics/SVG/1.1/DTD/svg11.dtd"><svg width="100%" height="100%" viewBox="0 0 2134 2134" version="1.1" xmlns="http://www.w3.org/2000/svg" xmlns:xlink="http://www.w3.org/1999/xlink" xml:space="preserve" xmlns:serif="http://www.serif.com/" style="fill-rule:evenodd;clip-rule:evenodd;stroke-linejoin:round;stroke-miterlimit:2;"><rect id="css3" x="0" y="0" width="2133.33" height="2133.33" style="fill:none;"/><path id="polygon2989" d="M1987.18,22.7l-167.722,1878.92l-753.921,209.011l-751.845,-208.717l-167.545,-1879.22l1841.03,0Z" style="fill:#264de4;fill-rule:nonzero;"/><path id="polygon2991" d="M1675.87,1781.98l143.331,-1605.62l-752.535,-0l-0,1774.52l609.204,-168.896Z" style="fill:#2965f1;fill-rule:nonzero;"/><path id="polygon2993" d="M530.244,873.328l20.657,230.476l515.766,-0l-0,-230.476l-536.423,0Z" style="fill:#ebebeb;fill-rule:nonzero;"/><path id="polygon2995" d="M1066.67,406.834l-577.93,0l20.951,230.481l556.979,0l-0,-230.481Z" style="fill:#ebebeb;fill-rule:nonzero;"/><path id="polygon2997" d="M1066.67,1711.7l-0,-239.794l-1.01,0.269l-256.686,-69.31l-16.408,-183.817l-231.364,-0l32.29,361.883l472.117,131.063l1.061,-0.294Z" style="fill:#ebebeb;fill-rule:nonzero;"/><path id="polygon3005" d="M1349.68,1103.8l-26.753,298.912l-257.055,69.382l-0,239.784l472.493,-130.952l3.466,-38.938l54.16,-606.774l5.624,-61.89l41.608,-466.494l-577.351,0l-0,230.481l324.767,0l-20.972,236.013l-303.795,0l-0,230.476l283.808,-0Z" style="fill:#fff;fill-rule:nonzero;"/></svg>