<?xml version="1.0" encoding="UTF-8" standalone="no"?><!DOCTYPE svg PUBLIC "-//W3C//DTD SVG 1.1//EN" "http://www.w3.org/Graphics/SVG/1.1/DTD/svg11.dtd"><svg width="100%" height="100%" viewBox="0 0 2134 2138" version="1.1" xmlns="http://www.w3.org/2000/svg" xmlns:xlink="http://www.w3.org/1999/xlink" xml:space="preserve" xmlns:serif="http://www.serif.com/" style="fill-rule:evenodd;clip-rule:evenodd;stroke-linejoin:round;stroke-miterlimit:2;"><rect id="docker" x="0" y="0.479" width="2133.33" height="2133.33" style="fill:none;"/><path d="M2044,931.656c-49.538,-33.344 -179.683,-47.562 -274.299,-22.09c-5.089,-94.256 -53.699,-173.697 -142.628,-242.96l-32.896,-22.09l-21.94,33.135c-43.102,65.432 -61.271,152.655 -54.866,231.945c5.089,48.85 22.06,103.746 54.866,143.586c-123.171,71.448 -236.675,55.225 -739.418,55.225l-776.175,-0c-2.275,113.533 15.984,331.889 154.84,509.657c15.325,19.636 32.147,38.643 50.406,56.932c112.905,113.054 283.489,195.967 538.572,196.176c389.12,0.359 722.536,-210.005 925.358,-718.585c66.749,1.107 242.901,11.943 329.106,-154.63c2.095,-2.814 21.94,-44.181 21.94,-44.181l-32.866,-22.09l0,-0.03Zm-1480.81,-117.155l-218.267,0l0,218.267l218.267,-0l-0,-218.267Zm281.992,0l-218.266,0l-0,218.267l218.266,-0l0,-218.267Zm281.992,0l-218.266,0l-0,218.267l218.266,-0l0,-218.267Zm281.993,0l-218.267,0l0,218.267l218.267,-0l-0,-218.267Zm-1127.91,0l-218.326,0l-0,218.267l218.266,-0l0,-218.267l0.06,0Zm281.993,-275.706l-218.267,-0l0,218.266l218.267,0l-0,-218.266Zm281.992,-0l-218.267,-0l0,218.266l218.267,0l-0,-218.266Zm281.992,-0l-218.266,-0l-0,218.266l218.266,0l0,-218.266Zm-0.09,-275.677l-218.266,0l0,218.267l218.266,-0l0,-218.267Z" style="fill:#1d63ed;fill-rule:nonzero;"/></svg>