<?xml version="1.0" encoding="UTF-8" standalone="no"?><!DOCTYPE svg PUBLIC "-//W3C//DTD SVG 1.1//EN" "http://www.w3.org/Graphics/SVG/1.1/DTD/svg11.dtd"><svg width="100%" height="100%" viewBox="0 0 2134 2138" version="1.1" xmlns="http://www.w3.org/2000/svg" xmlns:xlink="http://www.w3.org/1999/xlink" xml:space="preserve" xmlns:serif="http://www.serif.com/" style="fill-rule:evenodd;clip-rule:evenodd;stroke-linejoin:round;stroke-miterlimit:2;"><rect id="github" x="0" y="1.436" width="2133.33" height="2133.33" style="fill:none;"/><g><path d="M872.458,109.5c-265.628,59.222 -483.355,206.406 -633.152,429.359c-262.144,392.781 -209.889,919.682 124.54,1255.85c100.155,101.026 252.564,198.568 367.525,236.017c42.674,13.935 47.9,13.935 67.06,0.871c20.902,-13.935 21.772,-17.418 21.772,-117.573l0,-102.767l-76.64,4.354c-89.703,4.355 -159.376,-11.322 -201.18,-47.029c-14.805,-12.193 -43.546,-53.996 -63.576,-92.317c-33.095,-64.447 -57.481,-94.058 -125.412,-154.151c-22.643,-20.031 -23.514,-20.902 -7.838,-32.223c37.449,-27.87 113.219,-0.871 161.119,56.609c83.607,101.896 115.831,128.895 163.731,139.345c42.674,8.71 81.865,5.226 141.087,-12.192c7.839,-2.613 18.29,-20.902 23.515,-41.804c5.225,-20.031 19.16,-50.513 30.482,-67.06l20.902,-30.482l-70.544,-13.935c-148.055,-30.481 -239.5,-83.607 -299.593,-174.182c-55.739,-83.607 -74.028,-155.893 -74.899,-290.884c0,-127.153 13.935,-179.407 68.802,-250.822c24.386,-31.353 26.999,-40.933 20.031,-59.222c-13.063,-31.353 -9.58,-163.731 4.355,-203.793c11.322,-29.611 17.418,-34.837 40.933,-37.449c39.191,-4.355 112.347,20.902 186.374,62.705l63.577,36.579l55.738,-13.064c79.253,-18.289 317.012,-17.418 388.426,-0l53.997,13.934l50.513,-30.481c67.06,-40.062 152.409,-71.415 195.084,-71.415c33.965,-0 33.965,0.871 47.9,45.287c14.805,51.384 17.418,144.571 4.354,188.988c-6.967,26.127 -5.225,33.965 13.935,59.222c94.929,125.411 105.38,333.559 25.256,504.257c-53.996,112.348 -168.086,190.729 -321.366,219.47l-73.156,13.934l26.998,47.9l27.869,48.771l2.613,194.213l3.483,194.213l21.773,13.935c20.031,13.064 24.386,13.064 66.189,-1.742c69.673,-23.515 188.988,-87.962 254.306,-137.604c388.426,-290.884 513.838,-812.559 298.723,-1246.27c-126.282,-255.177 -364.912,-451.132 -638.378,-524.288c-119.315,-31.353 -344.009,-38.32 -457.228,-13.064Z" style="fill:#fff;fill-rule:nonzero;"/></g></svg>