<?xml version="1.0" encoding="UTF-8" standalone="no"?><!DOCTYPE svg PUBLIC "-//W3C//DTD SVG 1.1//EN" "http://www.w3.org/Graphics/SVG/1.1/DTD/svg11.dtd"><svg width="100%" height="100%" viewBox="0 0 2134 2134" version="1.1" xmlns="http://www.w3.org/2000/svg" xmlns:xlink="http://www.w3.org/1999/xlink" xml:space="preserve" xmlns:serif="http://www.serif.com/" style="fill-rule:evenodd;clip-rule:evenodd;stroke-linejoin:round;stroke-miterlimit:2;"><rect id="html5" x="0" y="0" width="2133.33" height="2133.33" style="fill:none;"/><g id="html51" serif:id="html5"><path d="M319.076,1896.37l-166.244,-1865.95l1827.67,-0l-166.243,1864.95l-749.103,207.553" style="fill:#e44d26;fill-rule:nonzero;"/><path d="M1066.67,1944.23l-0,-1760.67l747.087,0l-142.566,1591.91" style="fill:#f16529;fill-rule:nonzero;"/><path d="M492.372,411.769l574.295,-0l-0,228.71l-323.419,0l21.158,234.252l302.261,0l-0,228.207l-511.828,-0m10.075,114.859l229.718,-0l16.121,182.868l255.914,68.512l-0,238.786l-469.512,-130.98" style="fill:#ebebeb;fill-rule:nonzero;"/><path d="M1638.95,411.769l-573.288,-0l0,228.71l552.129,0m-20.654,234.252l-531.475,0l0,228.711l282.11,-0l-26.7,297.223l-255.41,68.512l0,237.778l468.504,-129.972" style="fill:#fff;fill-rule:nonzero;"/></g></svg>