<?xml version="1.0" encoding="UTF-8" standalone="no"?><!DOCTYPE svg PUBLIC "-//W3C//DTD SVG 1.1//EN" "http://www.w3.org/Graphics/SVG/1.1/DTD/svg11.dtd"><svg width="100%" height="100%" viewBox="0 0 2134 2138" version="1.1" xmlns="http://www.w3.org/2000/svg" xmlns:xlink="http://www.w3.org/1999/xlink" xml:space="preserve" xmlns:serif="http://www.serif.com/" style="fill-rule:evenodd;clip-rule:evenodd;stroke-linejoin:round;stroke-miterlimit:2;"><rect id="instagram" x="0" y="1.436" width="2133.33" height="2133.33" style="fill:none;"/><g id="Layer-1" serif:id="Layer 1"><path d="M1066.99,83.598c-411.021,0 -531.23,0.424 -554.596,2.363c-84.349,7.013 -136.835,20.298 -194.017,48.774c-44.067,21.889 -78.821,47.261 -113.121,82.827c-62.466,64.862 -100.325,144.659 -114.03,239.513c-6.663,46.048 -8.601,55.439 -8.995,290.65c-0.151,78.404 -0,181.588 -0,319.991c-0,410.8 0.454,530.921 2.423,554.248c6.815,82.099 19.686,133.752 46.944,190.253c52.094,108.153 151.585,189.343 268.795,219.639c40.585,10.451 85.409,16.208 142.954,18.933c24.381,1.061 272.883,1.819 521.538,1.819c248.654,-0 497.309,-0.303 521.083,-1.515c66.632,-3.136 105.323,-8.331 148.103,-19.389c117.967,-30.446 215.642,-110.426 268.795,-220.094c26.728,-55.137 40.281,-108.759 46.415,-186.572c1.332,-16.964 1.893,-287.454 1.893,-557.579c-0,-270.171 -0.606,-540.161 -1.939,-557.126c-6.209,-79.07 -19.762,-132.237 -47.353,-188.435c-22.639,-46.003 -47.777,-80.358 -84.272,-115.484c-65.132,-62.226 -144.787,-100.095 -239.706,-113.788c-45.991,-6.65 -55.152,-8.619 -290.48,-9.028l-320.434,0Z" style="fill:url(#_Radial1);fill-rule:nonzero;"/><path d="M1066.99,83.598c-411.021,0 -531.23,0.424 -554.596,2.363c-84.349,7.013 -136.835,20.298 -194.017,48.774c-44.067,21.889 -78.821,47.261 -113.121,82.827c-62.466,64.862 -100.325,144.659 -114.03,239.513c-6.663,46.048 -8.601,55.439 -8.995,290.65c-0.151,78.404 -0,181.588 -0,319.991c-0,410.8 0.454,530.921 2.423,554.248c6.815,82.099 19.686,133.752 46.944,190.253c52.094,108.153 151.585,189.343 268.795,219.639c40.585,10.451 85.409,16.208 142.954,18.933c24.381,1.061 272.883,1.819 521.538,1.819c248.654,-0 497.309,-0.303 521.083,-1.515c66.632,-3.136 105.323,-8.331 148.103,-19.389c117.967,-30.446 215.642,-110.426 268.795,-220.094c26.728,-55.137 40.281,-108.759 46.415,-186.572c1.332,-16.964 1.893,-287.454 1.893,-557.579c-0,-270.171 -0.606,-540.161 -1.939,-557.126c-6.209,-79.07 -19.762,-132.237 -47.353,-188.435c-22.639,-46.003 -47.777,-80.358 -84.272,-115.484c-65.132,-62.226 -144.787,-100.095 -239.706,-113.788c-45.991,-6.65 -55.152,-8.619 -290.48,-9.028l-320.434,0Z" style="fill:url(#_Radial2);fill-rule:nonzero;"/><path d="M1066.99,83.598c-411.021,0 -531.23,0.424 -554.596,2.363c-84.349,7.013 -136.835,20.298 -194.017,48.774c-44.067,21.889 -78.821,47.261 -113.121,82.827c-62.466,64.862 -100.325,144.659 -114.03,239.513c-6.663,46.048 -8.601,55.439 -8.995,290.65c-0.151,78.404 -0,181.588 -0,319.991c-0,410.8 0.454,530.921 2.423,554.248c6.815,82.099 19.686,133.752 46.944,190.253c52.094,108.153 151.585,189.343 268.795,219.639c40.585,10.451 85.409,16.208 142.954,18.933c24.381,1.061 272.883,1.819 521.538,1.819c248.654,-0 497.309,-0.303 521.083,-1.515c66.632,-3.136 105.323,-8.331 148.103,-19.389c117.967,-30.446 215.642,-110.426 268.795,-220.094c26.728,-55.137 40.281,-108.759 46.415,-186.572c1.332,-16.964 1.893,-287.454 1.893,-557.579c-0,-270.171 -0.606,-540.161 -1.939,-557.126c-6.209,-79.07 -19.762,-132.237 -47.353,-188.435c-22.639,-46.003 -47.777,-80.358 -84.272,-115.484c-65.132,-62.226 -144.787,-100.095 -239.706,-113.788c-45.991,-6.65 -55.152,-8.619 -290.48,-9.028l-320.434,0Z" style="fill:url(#_Radial3);fill-rule:nonzero;"/><path d="M1066.99,83.598c-411.021,0 -531.23,0.424 -554.596,2.363c-84.349,7.013 -136.835,20.298 -194.017,48.774c-44.067,21.889 -78.821,47.261 -113.121,82.827c-62.466,64.862 -100.325,144.659 -114.03,239.513c-6.663,46.048 -8.601,55.439 -8.995,290.65c-0.151,78.404 -0,181.588 -0,319.991c-0,410.8 0.454,530.921 2.423,554.248c6.815,82.099 19.686,133.752 46.944,190.253c52.094,108.153 151.585,189.343 268.795,219.639c40.585,10.451 85.409,16.208 142.954,18.933c24.381,1.061 272.883,1.819 521.538,1.819c248.654,-0 497.309,-0.303 521.083,-1.515c66.632,-3.136 105.323,-8.331 148.103,-19.389c117.967,-30.446 215.642,-110.426 268.795,-220.094c26.728,-55.137 40.281,-108.759 46.415,-186.572c1.332,-16.964 1.893,-287.454 1.893,-557.579c-0,-270.171 -0.606,-540.161 -1.939,-557.126c-6.209,-79.07 -19.762,-132.237 -47.353,-188.435c-22.639,-46.003 -47.777,-80.358 -84.272,-115.484c-65.132,-62.226 -144.787,-100.095 -239.706,-113.788c-45.991,-6.65 -55.152,-8.619 -290.48,-9.028l-320.434,0Z" style="fill:url(#_Radial4);fill-rule:nonzero;"/><path d="M1067.07,336.423c-198.823,-0 -223.775,0.868 -301.866,4.419c-77.937,3.567 -131.136,15.896 -177.685,33.988c-48.15,18.684 -88.995,43.679 -129.687,84.355c-40.722,40.663 -65.736,81.477 -84.495,129.576c-18.15,46.53 -30.505,99.704 -34.012,177.553c-3.493,78.032 -4.408,102.981 -4.408,301.657c0,198.678 0.885,223.534 4.423,301.566c3.585,77.88 15.923,131.039 34.012,177.553c18.714,48.115 43.727,88.929 84.434,129.591c40.678,40.692 81.522,65.749 129.642,84.433c46.579,18.091 99.794,30.42 177.715,33.987c78.09,3.55 103.027,4.419 301.836,4.419c198.839,0 223.715,-0.868 301.805,-4.419c77.938,-3.567 131.197,-15.896 177.776,-33.988c48.135,-18.683 88.919,-43.74 129.596,-84.432c40.722,-40.662 65.736,-81.476 84.496,-129.575c17.997,-46.53 30.351,-99.704 34.012,-177.553c3.507,-78.032 4.422,-102.905 4.422,-301.582c0,-198.677 -0.915,-223.609 -4.422,-301.642c-3.661,-77.879 -16.015,-131.038 -34.012,-177.552c-18.76,-48.115 -43.774,-88.93 -84.496,-129.592c-40.723,-40.692 -81.446,-65.687 -129.641,-84.356c-46.671,-18.091 -99.901,-30.42 -177.838,-33.987c-78.09,-3.551 -102.95,-4.419 -301.835,-4.419l0.228,-0Zm-65.675,131.831c19.493,-0.03 41.242,0 65.675,0c195.469,0 218.637,0.701 295.827,4.206c71.379,3.262 110.118,15.18 135.925,25.193c34.164,13.259 58.522,29.11 84.129,54.713c25.624,25.605 41.485,49.99 54.786,84.128c10.02,25.757 21.962,64.468 25.211,135.795c3.508,77.117 4.27,100.283 4.27,295.515c0,195.231 -0.762,218.398 -4.27,295.515c-3.264,71.326 -15.191,110.037 -25.211,135.794c-13.269,34.139 -29.162,58.448 -54.786,84.036c-25.622,25.605 -49.95,41.455 -84.129,54.714c-25.776,10.059 -64.546,21.946 -135.925,25.208c-77.175,3.505 -100.358,4.267 -295.827,4.267c-195.484,0 -218.651,-0.762 -295.826,-4.267c-71.378,-3.292 -110.118,-15.21 -135.94,-25.223c-34.165,-13.259 -58.568,-29.11 -84.191,-54.714c-25.623,-25.604 -41.485,-49.928 -54.785,-84.082c-10.02,-25.757 -21.963,-64.468 -25.211,-135.794c-3.508,-77.118 -4.21,-100.283 -4.21,-295.637c0,-195.354 0.702,-218.398 4.21,-295.515c3.264,-71.327 15.191,-110.037 25.211,-135.824c13.269,-34.139 29.162,-58.524 54.785,-84.128c25.623,-25.605 50.026,-41.455 84.191,-54.745c25.806,-10.059 64.562,-21.946 135.94,-25.223c67.535,-3.049 93.708,-3.962 230.152,-4.116l-0.001,0.184Zm456.461,121.467c-48.502,0 -87.852,39.276 -87.852,87.755c-0,48.466 39.35,87.787 87.852,87.787c48.5,-0 87.851,-39.321 87.851,-87.787c-0,-48.464 -39.351,-87.785 -87.852,-87.785l0.001,0.03Zm-390.786,102.569c-207.624,0 -375.959,168.211 -375.959,375.681c-0,207.471 168.335,375.605 375.959,375.605c207.625,-0 375.899,-168.134 375.899,-375.605c0,-207.47 -168.289,-375.681 -375.914,-375.681l0.015,0Zm0,131.832c134.766,-0 244.031,109.168 244.031,243.849c0,134.667 -109.265,243.85 -244.031,243.85c-134.78,0 -244.03,-109.183 -244.03,-243.85c-0,-134.681 109.25,-243.849 244.03,-243.849Z" style="fill:#fff;fill-rule:nonzero;"/></g><defs><radialGradient id="_Radial1" cx="0" cy="0" r="1" gradientUnits="userSpaceOnUse" gradientTransform="matrix(-1210.85,341.489,-246.03,-872.36,1987.59,1006.5)"><stop offset="0" style="stop-color:#ff005f;stop-opacity:1"/><stop offset="1" style="stop-color:#fc01d8;stop-opacity:1"/></radialGradient><radialGradient id="_Radial2" cx="0" cy="0" r="1" gradientUnits="userSpaceOnUse" gradientTransform="matrix(0,-1571.7,1667.54,0,605.165,2204.26)"><stop offset="0" style="stop-color:#fc0;stop-opacity:1"/><stop offset="0.12" style="stop-color:#fc0;stop-opacity:1"/><stop offset="0.57" style="stop-color:#fe4a05;stop-opacity:1"/><stop offset="0.69" style="stop-color:#ff0f3f;stop-opacity:1"/><stop offset="1" style="stop-color:#fe0657;stop-opacity:0"/></radialGradient><radialGradient id="_Radial3" cx="0" cy="0" r="1" gradientUnits="userSpaceOnUse" gradientTransform="matrix(326.229,-562.103,731.794,424.716,1116.42,2024.84)"><stop offset="0" style="stop-color:#fc0;stop-opacity:1"/><stop offset="1" style="stop-color:#fc0;stop-opacity:0"/></radialGradient><radialGradient id="_Radial4" cx="0" cy="0" r="1" gradientUnits="userSpaceOnUse" gradientTransform="matrix(-1197.56,337.213,-114.859,-408.016,349.314,163.776)"><stop offset="0" style="stop-color:#780cff;stop-opacity:1"/><stop offset="1" style="stop-color:#820bff;stop-opacity:0"/></radialGradient></defs></svg>