<?xml version="1.0" encoding="UTF-8" standalone="no"?><!DOCTYPE svg PUBLIC "-//W3C//DTD SVG 1.1//EN" "http://www.w3.org/Graphics/SVG/1.1/DTD/svg11.dtd"><svg width="100%" height="100%" viewBox="0 0 2134 2138" version="1.1" xmlns="http://www.w3.org/2000/svg" xmlns:xlink="http://www.w3.org/1999/xlink" xml:space="preserve" xmlns:serif="http://www.serif.com/" style="fill-rule:evenodd;clip-rule:evenodd;stroke-linejoin:round;stroke-miterlimit:2;"><rect id="linkedin" x="0" y="1.915" width="2133.33" height="2133.33" style="fill:none;"/><g id="Layer-1" serif:id="Layer 1"><g id="g1905"><path id="path1901" d="M1801.08,198.624l-1465.77,0c-70.111,0 -129.656,56.092 -129.656,125.191l0,1489.45c0,69.182 39.069,125.274 109.18,125.274l1465.77,-0c70.193,-0 145.054,-56.092 145.054,-125.274l-0,-1489.45c-0,-69.099 -54.385,-125.191 -124.577,-125.191" style="fill:#fff;"/><path id="path1903" d="M1942.97,42.655l-1748.57,0c-83.637,0 -154.67,66.148 -154.67,147.636l-0,1756.48c-0,81.585 46.606,147.733 130.243,147.733l1748.57,-0c83.735,-0 173.04,-66.148 173.04,-147.733l-0,-1756.48c-0,-81.488 -64.878,-147.636 -148.613,-147.636Zm-1121.58,781.658l276.218,0l0,140.796l3.029,0c42.112,-75.918 166.494,-153.009 320.285,-153.009c295.174,-0 377.541,156.722 377.541,447.011l-0,542.275l-293.122,0l-0,-488.829c-0,-129.951 -51.883,-243.976 -173.235,-243.976c-147.343,0 -217.594,99.76 -217.594,263.517l-0,469.288l-293.122,0l-0,-977.073Zm-488.536,977.073l293.121,0l0,-977.073l-293.121,0l-0,977.073Zm329.762,-1319.05c-0,0.028 -0,0.055 -0,0.083c-0,100.475 -82.678,183.152 -183.153,183.152c-100.469,0 -183.144,-82.669 -183.152,-183.138c-0,-0.004 -0,-0.009 -0,-0.014c-0,-100.474 82.678,-183.152 183.152,-183.152c100.443,-0 183.107,82.626 183.153,183.069Z" style="fill:#0a66c2;"/></g></g></svg>