<svg style="fill: #eaeaea;" id="logo" xmlns="http://www.w3.org/2000/svg" viewBox="0 0 3025.89 1050.28" role="img" aria-label="D0Z">
<title>D0Z - motion / graphic / dev</title>
<path class="_logo_part_1sij4_1" d="m336.04,150.25l-144,144v576h432l144-144V150.25h-432Zm94.51,236.28h129.25l-178.74,223.42v-173.94l49.49-49.49Zm148.46,197.95l-49.49,49.49h-129.25l178.74-223.42v173.94Z"></path>
<path d="m881.57,726.27V151.83h462.74c30.84,0,57.17,10.91,78.98,32.71,21.8,21.82,32.71,47.87,32.71,78.19v352.64c0,30.32-10.91,56.38-32.71,78.19s-48.14,32.71-78.98,32.71h-462.74Zm133.24-106.11h307.16c14.36,0,22.6-.92,24.73-2.79,2.12-1.86,3.19-10.23,3.19-25.13v-306.37c0-14.88-1.07-23.26-3.19-25.13-2.13-1.86-10.37-2.79-24.73-2.79h-307.16c-14.9,0-23.27.93-25.13,2.79s-2.79,10.25-2.79,25.13v306.37c0,14.9.92,23.27,2.79,25.13,1.86,1.87,10.23,2.79,25.13,2.79Z" class="_logo_part_1sij4_1"></path><path d="m1682.58,726.27c-30.32,0-56.25-11.69-77.79-35.1-21.54-23.4-32.31-49.99-32.31-79.78v-347.05c0-30.84,10.77-57.31,32.31-79.38,21.54-22.07,47.47-33.11,77.79-33.11h348.65c30.32,0,56.25,11.04,77.79,33.11,21.54,22.08,32.31,48.54,32.31,79.38v347.05c0,29.79-10.77,56.38-32.31,79.78-21.54,23.41-47.47,35.1-77.79,35.1h-348.65Zm-5.58-207.43l311.95-260.09h-284.03c-14.9,0-23.27.93-25.13,2.79s-2.79,10.25-2.79,25.13v232.17Zm47.87,97.33h284.03c14.88,0,23.26-.92,25.13-2.79s2.79-10.23,2.79-25.13v-232.17l-311.95,260.09Z" class="_logo_part_1sij4_1"></path><path d="m2259.41,726.27v-114.89l420.45-353.44h-420.45v-106.11h574.43v114.89l-420.45,353.44h420.45v106.11h-574.43Z" class="_logo_part_1sij4_1"></path><path d="m888.26,871.5v-71.94h89.18c4.71,0,8.74,1.67,12.09,5.02,3.35,3.35,5.02,7.38,5.02,12.09v54.82h-16.12v-51.35c0-2.31-.17-3.62-.5-3.91-.33-.29-1.61-.43-3.84-.43h-20.09c-2.32,0-3.62.15-3.91.43-.29.29-.43,1.59-.43,3.91v51.35h-16.37v-51.35c0-2.31-.15-3.62-.43-3.91-.29-.29-1.59-.43-3.91-.43h-20.09c-2.32,0-3.62.15-3.91.43s-.43,1.59-.43,3.91v51.35h-16.25Z" class="_logo_part_1sij4_1"></path><path d="m1026.31,871.5c-4.71,0-8.74-1.67-12.09-5.02s-5.02-7.38-5.02-12.09v-37.71c0-4.71,1.67-8.74,5.02-12.09s7.38-5.02,12.09-5.02h38.82c4.71,0,8.74,1.67,12.09,5.02,3.35,3.35,5.02,7.38,5.02,12.09v37.71c0,4.71-1.67,8.74-5.02,12.09-3.35,3.35-7.38,5.02-12.09,5.02h-38.82Zm3.47-16.25h31.88c2.31,0,3.62-.14,3.91-.43.29-.29.43-1.59.43-3.91v-30.76c0-2.31-.14-3.62-.43-3.91-.29-.29-1.59-.43-3.91-.43h-31.88c-2.32,0-3.62.15-3.91.43s-.43,1.59-.43,3.91v30.76c0,2.32.14,3.62.43,3.91.29.29,1.59.43,3.91.43Z" class="_logo_part_1sij4_1"></path><path d="m1110.03,871.5c-4.71,0-8.74-1.67-12.09-5.02s-5.02-7.38-5.02-12.09v-76.9h16.25v22.08h28.03v16.25h-28.03v35.1c0,2.32.14,3.62.43,3.91.29.29,1.59.43,3.91.43h23.69v16.25h-27.16Z" class="_logo_part_1sij4_1"></path><path d="m1147.36,792.37v-16.37h16.25v16.37h-16.25Zm0,79.13v-71.94h16.25v71.94h-16.25Z" class="_logo_part_1sij4_1"></path><path d="m1191.88,871.5c-4.71,0-8.74-1.67-12.09-5.02s-5.02-7.38-5.02-12.09v-37.71c0-4.71,1.67-8.74,5.02-12.09s7.38-5.02,12.09-5.02h38.82c4.71,0,8.74,1.67,12.09,5.02,3.35,3.35,5.02,7.38,5.02,12.09v37.71c0,4.71-1.67,8.74-5.02,12.09-3.35,3.35-7.38,5.02-12.09,5.02h-38.82Zm3.47-16.25h31.88c2.31,0,3.62-.14,3.91-.43.29-.29.43-1.59.43-3.91v-30.76c0-2.31-.14-3.62-.43-3.91-.29-.29-1.59-.43-3.91-.43h-31.88c-2.32,0-3.62.15-3.91.43s-.43,1.59-.43,3.91v30.76c0,2.32.14,3.62.43,3.91.29.29,1.59.43,3.91.43Z" class="_logo_part_1sij4_1"></path><path d="m1257.87,871.5v-71.94h55.94c4.71,0,8.74,1.67,12.09,5.02,3.35,3.35,5.02,7.38,5.02,12.09v54.82h-16.25v-51.35c0-2.31-.15-3.62-.43-3.91-.29-.29-1.59-.43-3.91-.43h-31.88c-2.32,0-3.62.15-3.91.43s-.43,1.59-.43,3.91v51.35h-16.25Z" class="_logo_part_1sij4_1"></path><path d="m1376.19,871.5v-17.36l58.67-71.69,4.96-.25v17.12l-58.67,71.81-4.96.37Z" class="_logo_part_1sij4_1"></path><path d="m1495.14,899.91v-16.37h40.56c2.23,0,3.49-.15,3.78-.43.29-.29.43-1.59.43-3.91v-7.69h-39.69c-4.71,0-8.74-1.67-12.09-5.02s-5.02-7.38-5.02-12.09v-37.71c0-4.71,1.67-8.74,5.02-12.09s7.38-5.02,12.09-5.02h38.95c4.71,0,8.72,1.67,12.03,5.02,3.31,3.35,4.96,7.38,4.96,12.09v66.11c0,4.71-1.65,8.74-4.96,12.09-3.31,3.35-7.32,5.02-12.03,5.02h-44.03Zm8.56-44.65h32c2.23,0,3.49-.14,3.78-.43.29-.29.43-1.59.43-3.91v-30.76c0-2.31-.14-3.62-.43-3.91-.29-.29-1.55-.43-3.78-.43h-32c-2.32,0-3.62.15-3.91.43s-.43,1.59-.43,3.91v30.76c0,2.32.14,3.62.43,3.91.29.29,1.59.43,3.91.43Z" class="_logo_part_1sij4_1"></path><path d="m1566.45,871.5v-54.82c0-4.71,1.67-8.74,5.02-12.09s7.38-5.02,12.09-5.02h39.94v16.25h-36.47c-2.32,0-3.62.15-3.91.43s-.43,1.59-.43,3.91v51.35h-16.25Z" class="_logo_part_1sij4_1"></path><path d="m1650.05,871.5c-4.71,0-8.74-1.67-12.09-5.02s-5.02-7.38-5.02-12.09v-27.04h56.81v-7.19c0-2.31-.14-3.62-.43-3.91-.29-.29-1.59-.43-3.91-.43h-52.46v-16.25h55.94c4.71,0,8.74,1.67,12.09,5.02,3.35,3.35,5.02,7.38,5.02,12.09v54.82h-55.94Zm3.47-16.25h36.22v-13.27h-40.56v8.93c0,2.32.14,3.62.43,3.91.29.29,1.59.43,3.91.43Z" class="_logo_part_1sij4_1"></path><path d="m1719.26,900.03v-100.46h55.94c4.71,0,8.74,1.67,12.09,5.02,3.35,3.35,5.02,7.38,5.02,12.09v37.71c0,4.71-1.67,8.74-5.02,12.09-3.35,3.35-7.38,5.02-12.09,5.02h-39.69v28.53h-16.25Zm20.59-44.78h31.88c2.31,0,3.62-.14,3.91-.43.29-.29.43-1.59.43-3.91v-30.76c0-2.31-.15-3.62-.43-3.91-.29-.29-1.59-.43-3.91-.43h-31.88c-2.32,0-3.62.15-3.91.43s-.43,1.59-.43,3.91v30.76c0,2.32.14,3.62.43,3.91.29.29,1.59.43,3.91.43Z" class="_logo_part_1sij4_1"></path><path d="m1801.61,871.5v-95.5h16.25v23.57h39.69c4.63,0,8.64,1.67,12.03,5.02,3.39,3.35,5.08,7.38,5.08,12.09v54.82h-16.25v-51.35c0-2.31-.15-3.62-.43-3.91-.29-.29-1.59-.43-3.91-.43h-31.88c-2.32,0-3.62.15-3.91.43s-.43,1.59-.43,3.91v51.35h-16.25Z" class="_logo_part_1sij4_1"></path><path d="m1884.46,792.37v-16.37h16.25v16.37h-16.25Zm0,79.13v-71.94h16.25v71.94h-16.25Z" class="_logo_part_1sij4_1"></path><path d="m1929.23,871.5c-4.71,0-8.74-1.67-12.09-5.02s-5.02-7.38-5.02-12.09v-37.71c0-4.71,1.67-8.74,5.02-12.09s7.38-5.02,12.09-5.02h55.81v16.25h-52.34c-2.32,0-3.62.15-3.91.43s-.43,1.59-.43,3.91v30.76c0,2.32.14,3.62.43,3.91.29.29,1.59.43,3.91.43h52.46v16.25h-55.94Z" class="_logo_part_1sij4_1"></path><path d="m2030.69,871.5v-17.36l58.67-71.69,4.96-.25v17.12l-58.67,71.81-4.96.37Z" class="_logo_part_1sij4_1"></path><path d="m2152.49,871.5c-4.71,0-8.74-1.67-12.09-5.02s-5.02-7.38-5.02-12.09v-37.71c0-4.71,1.67-8.74,5.02-12.09s7.38-5.02,12.09-5.02h39.81v-23.57h16.25v95.5h-56.06Zm3.6-16.25h31.88c2.31,0,3.62-.14,3.91-.43.29-.29.43-1.59.43-3.91v-30.76c0-2.31-.15-3.62-.43-3.91-.29-.29-1.59-.43-3.91-.43h-31.88c-2.32,0-3.62.15-3.91.43s-.43,1.59-.43,3.91v30.76c0,2.32.14,3.62.43,3.91.29.29,1.59.43,3.91.43Z" class="_logo_part_1sij4_1"></path><path d="m2235.96,871.5c-4.71,0-8.74-1.67-12.09-5.02s-5.02-7.38-5.02-12.09v-37.71c0-4.71,1.67-8.74,5.02-12.09s7.38-5.02,12.09-5.02h38.82c4.71,0,8.74,1.67,12.09,5.02,3.35,3.35,5.02,7.38,5.02,12.09v27.04h-56.81v7.19c0,2.32.14,3.62.43,3.91.29.29,1.59.43,3.91.43h52.46v16.25h-55.94Zm-.87-42.42h40.56v-8.93c0-2.31-.14-3.62-.43-3.91-.29-.29-1.59-.43-3.91-.43h-31.88c-2.32,0-3.62.15-3.91.43s-.43,1.59-.43,3.91v8.93Z" class="_logo_part_1sij4_1"></path><path d="m2334.81,871.5l-39.57-71.94h18.73l28.4,52.22,28.28-52.22h18.73l-39.69,71.94h-14.88Z" class="_logo_part_1sij4_1"></path>
</svg>