<?xml version="1.0" encoding="UTF-8" standalone="no"?><!DOCTYPE svg PUBLIC "-//W3C//DTD SVG 1.1//EN" "http://www.w3.org/Graphics/SVG/1.1/DTD/svg11.dtd"><svg width="100%" height="100%" viewBox="0 0 2134 2138" version="1.1" xmlns="http://www.w3.org/2000/svg" xmlns:xlink="http://www.w3.org/1999/xlink" xml:space="preserve" xmlns:serif="http://www.serif.com/" style="fill-rule:evenodd;clip-rule:evenodd;stroke-linejoin:round;stroke-miterlimit:2;"><rect id="nestjs" x="0" y="0.479" width="2133.33" height="2133.33" style="fill:none;"/><path d="M1247.25,46.312c-14.814,0 -28.571,3.175 -41.27,7.408c26.985,17.989 41.799,41.799 49.207,68.783c0.531,3.704 1.588,6.35 2.117,10.053c0.531,3.175 1.058,6.349 1.058,9.524c2.117,46.561 -12.17,52.381 -22.223,79.895c-15.344,35.45 -11.111,73.546 7.408,104.234c1.587,3.704 3.703,7.936 6.349,11.64c-20.106,-133.864 91.535,-153.97 112.17,-195.769c1.588,-36.508 -28.571,-60.847 -52.381,-77.778c-22.751,-13.757 -43.387,-17.99 -62.435,-17.99Zm168.256,30.159c-2.117,12.169 -0.53,8.995 -1.057,15.344c-0.53,4.233 -0.53,9.524 -1.058,13.757c-1.057,4.233 -2.117,8.465 -3.704,12.698c-1.057,4.233 -2.645,8.466 -4.232,12.699c-2.118,4.233 -3.704,7.936 -5.821,12.169c-1.587,2.118 -2.645,4.233 -4.232,6.35c-1.058,1.587 -2.118,3.174 -3.175,4.762c-2.645,3.703 -5.291,7.407 -7.936,10.582c-3.175,3.174 -5.821,6.878 -9.525,9.524l0,0.529c-3.174,2.646 -6.349,5.821 -10.052,8.466c-11.112,8.466 -23.81,14.815 -35.451,22.752c-3.703,2.645 -7.407,4.762 -10.582,7.936c-3.703,2.646 -6.878,5.291 -10.053,8.466c-3.703,3.174 -6.349,6.349 -9.524,10.053c-2.645,3.175 -5.82,6.878 -7.936,10.582c-2.646,3.704 -5.291,7.407 -7.408,11.111c-2.117,4.233 -3.703,7.937 -5.82,12.17c-1.587,4.232 -3.175,7.936 -4.233,12.169c-1.587,4.762 -2.645,8.995 -3.703,13.228c-0.53,2.117 -0.53,4.762 -1.058,6.878c-0.53,2.117 -0.53,4.233 -1.057,6.349c-0,4.233 -0.53,8.995 -0.53,13.228c0,3.175 0,6.349 0.53,9.524c-0,4.233 0.53,8.465 1.587,13.227c0.53,4.233 1.587,8.466 2.646,12.699c1.587,4.233 2.645,8.466 4.233,12.698c1.057,2.646 2.645,5.292 3.703,7.408l-121.694,-47.09c-20.635,-5.821 -40.741,-11.111 -61.376,-15.874c-11.111,-2.645 -22.222,-5.291 -33.334,-7.936c-31.746,-6.349 -64.021,-11.111 -96.297,-14.286c-1.057,0 -1.587,-0.53 -2.645,-0.53c-31.747,-3.174 -62.964,-4.762 -94.71,-4.762c-23.281,0 -46.562,1.058 -69.313,2.646c-32.276,2.117 -64.551,6.349 -96.826,11.64c-7.937,1.058 -15.874,2.646 -23.81,4.233c-16.403,3.175 -32.276,6.878 -47.62,10.582c-7.936,2.118 -15.873,4.233 -23.81,6.349c-7.936,3.175 -15.343,6.879 -22.751,10.053c-5.82,2.646 -11.64,5.291 -17.46,7.937c-1.058,0.53 -2.118,0.53 -2.646,1.058c-5.291,2.645 -10.053,4.761 -14.815,7.407c-1.587,0.53 -2.646,1.057 -3.704,1.587c-5.82,2.646 -11.64,5.82 -16.402,8.466c-3.704,1.587 -7.407,3.704 -10.582,5.291c-1.587,1.057 -3.704,2.117 -4.762,2.646c-4.762,2.645 -9.524,5.29 -13.757,7.936c-4.762,2.646 -8.995,5.291 -12.698,7.936c-3.704,2.646 -7.408,4.763 -10.582,7.408c-0.531,0.53 -1.058,0.53 -1.588,1.057c-3.174,2.118 -6.878,4.762 -10.053,7.408c0,0 -0.53,0.53 -1.057,1.057c-2.646,2.118 -5.291,4.233 -7.937,6.349c-1.057,0.53 -2.117,1.588 -3.174,2.118c-2.646,2.117 -5.291,4.762 -7.937,6.878c-0.53,1.058 -1.587,1.588 -2.117,2.118c-3.175,3.174 -6.349,5.82 -9.524,8.994c-0.53,0 -0.53,0.53 -1.057,1.058c-3.175,2.645 -6.35,5.82 -9.524,8.995c-0.53,0.529 -0.53,1.057 -1.058,1.057c-2.645,2.645 -5.291,5.291 -7.936,8.465c-1.058,1.058 -2.646,2.118 -3.704,3.175c-2.645,3.175 -5.82,6.349 -8.995,9.524c-0.53,1.057 -1.587,1.587 -2.117,2.646c-4.233,4.233 -7.937,8.465 -12.169,12.698c-0.53,0.53 -1.058,1.057 -1.588,1.587c-8.466,8.995 -17.46,17.99 -26.984,25.927c-9.524,8.465 -19.577,16.402 -29.63,23.28c-10.582,7.408 -20.635,13.757 -31.746,20.106c-10.583,5.82 -21.694,11.111 -33.334,15.873c-11.111,4.762 -22.752,8.995 -34.392,12.699c-22.222,4.762 -44.974,13.757 -64.551,15.344c-4.233,-0 -8.995,1.057 -13.227,1.587c-4.762,1.058 -8.995,2.117 -13.228,3.175c-4.233,1.587 -8.466,3.175 -12.699,4.762c-4.232,1.587 -8.465,3.704 -12.698,5.82c-3.704,2.645 -7.937,4.762 -11.64,7.407c-3.704,2.646 -7.408,5.82 -10.583,8.995c-3.703,2.646 -7.407,6.35 -10.582,9.524c-3.174,3.704 -6.349,6.879 -8.994,10.582c-2.646,4.233 -5.821,7.937 -7.937,12.17c-2.646,3.704 -5.291,7.936 -7.407,12.169c-2.118,4.762 -4.233,8.995 -5.821,13.757c-1.587,4.233 -3.174,8.995 -4.762,13.757c-1.057,4.232 -2.117,8.465 -2.645,12.698c-0,0.53 -0.53,1.057 -0.53,1.587c-1.057,4.762 -1.057,11.112 -1.587,14.287c-0.53,3.703 -1.058,6.878 -1.058,10.582c0,2.117 0,4.761 0.53,6.878c0.53,3.704 1.058,6.878 2.117,10.053c1.058,3.174 2.118,6.349 3.704,9.524l0,0.53c1.587,3.174 3.704,6.349 5.82,9.524c2.117,3.174 4.233,6.349 6.879,9.524c2.645,2.645 5.82,5.82 8.994,8.465c3.175,3.175 6.35,5.82 10.053,8.466c12.699,11.111 15.874,14.815 32.276,23.28c2.645,1.588 5.291,2.646 8.466,4.233c0.53,0 1.057,0.53 1.587,0.53c0,1.057 0,1.588 0.53,2.646c0.53,4.233 1.587,8.465 2.646,12.698c1.057,4.762 2.645,8.995 4.233,12.699c1.587,3.175 2.645,6.349 4.232,9.524c0.53,1.057 1.058,2.117 1.588,2.645c2.117,4.233 4.232,7.937 6.349,11.641c2.645,3.703 5.291,7.407 7.936,11.111c2.646,3.174 5.821,6.878 8.995,10.053c3.175,3.175 6.349,5.82 10.053,8.995c0,-0 0.53,0.53 1.058,0.53c3.174,2.646 6.349,5.291 9.524,7.407c3.703,2.646 7.407,4.762 11.64,6.879c3.704,2.117 7.937,4.233 12.169,5.82c3.175,1.587 6.879,2.646 10.582,3.704c0.53,0.53 1.058,0.53 2.118,1.057c2.117,0.531 4.761,1.058 6.878,1.588c-1.587,28.571 -2.117,55.556 2.117,65.08c4.762,10.582 28.043,-21.694 51.323,-58.731c-3.174,36.508 -5.291,79.366 0,92.064c5.821,13.228 37.567,-28.042 65.08,-73.545c375.136,-86.773 717.467,172.488 753.446,538.629c-6.878,-57.144 -77.249,-88.89 -109.524,-80.953c-15.874,39.153 -42.858,89.418 -86.244,120.636c3.703,-34.921 2.117,-70.9 -5.291,-105.821c-11.641,48.677 -34.392,94.181 -65.61,133.334c-50.265,3.704 -100.53,-20.635 -126.985,-57.143c-2.117,-1.588 -2.646,-4.762 -4.233,-6.879c-1.587,-3.704 -3.175,-7.407 -4.233,-11.111c-1.587,-3.703 -2.645,-7.407 -3.174,-11.111c-0.53,-3.704 -0.53,-7.408 -0.53,-11.64l-0,-7.937c0.53,-3.704 1.587,-7.407 2.645,-11.111c1.057,-3.704 2.117,-7.408 3.704,-11.111c2.117,-3.704 3.703,-7.408 6.349,-11.111c8.995,-25.398 8.995,-46.033 -7.407,-58.202c-3.175,-2.117 -6.35,-3.704 -10.053,-5.291c-2.118,-0.53 -4.762,-1.588 -6.879,-2.117c-1.587,-0.53 -2.645,-1.058 -4.232,-1.588c-3.704,-1.057 -7.408,-2.117 -11.112,-2.645c-3.704,-1.058 -7.407,-1.588 -11.111,-1.588c-3.704,-0.53 -7.937,-1.057 -11.64,-1.057c-2.646,-0 -5.291,0.53 -7.937,0.53c-4.233,-0 -7.937,0.53 -11.64,1.587c-3.704,0.531 -7.408,1.057 -11.111,2.117c-3.704,1.058 -7.408,2.117 -11.112,3.704c-3.703,1.587 -6.878,3.175 -10.582,4.762c-3.174,1.588 -6.349,3.704 -10.053,5.291c-123.281,80.424 -49.736,268.785 34.392,323.283c-31.746,5.82 -64.022,12.699 -73.016,19.577c-0.53,0.53 -1.058,1.058 -1.058,1.058c22.752,13.756 46.561,25.397 71.429,35.45c33.863,11.111 69.842,21.164 85.715,25.397l0,0.53c43.916,8.994 88.361,12.169 133.335,9.524c234.394,-16.403 426.459,-194.711 461.38,-429.634c1.058,4.762 2.117,8.995 3.175,13.757c1.587,9.523 3.703,19.577 4.762,29.629l-0,0.531c1.057,4.762 1.587,9.524 2.117,13.757l-0,2.117c0.53,4.762 1.057,9.524 1.057,13.757c0.53,5.82 1.058,11.64 1.058,17.46l-0,8.466c-0,2.646 0.529,5.82 0.529,8.466c0,3.174 -0.529,6.349 -0.529,9.524l-0,7.407c-0,3.704 -0.531,6.878 -0.531,10.582c0,2.117 0,4.233 -0.53,6.879c0,3.703 -0.529,7.407 -0.529,11.64c-0.531,1.587 -0.531,3.174 -0.531,4.762c-0.53,4.233 -1.057,7.936 -1.587,12.169c-0,1.588 -0,3.175 -0.53,4.762c-0.531,5.291 -1.587,10.053 -2.117,15.344l-0,1.061c-1.058,4.761 -2.118,10.052 -3.175,14.814l-0,1.588c-1.057,4.762 -2.117,9.524 -3.175,14.285c0,0.531 -0.529,1.588 -0.529,2.118c-1.058,4.762 -2.118,9.524 -3.704,14.286l0,1.587c-1.587,5.291 -3.175,10.053 -4.233,14.815c-0.53,0.53 -0.53,1.057 -0.53,1.057c-1.587,5.291 -3.174,10.582 -4.761,15.873c-2.118,5.292 -3.704,10.053 -5.821,15.345c-2.117,5.291 -3.704,10.582 -5.82,15.344c-2.117,5.291 -4.233,10.053 -6.349,15.344l-0.531,-0c-2.117,4.761 -4.233,10.053 -6.878,14.815c-0.53,1.587 -1.058,2.645 -1.588,3.703c-0.529,0.531 -0.529,1.058 -1.057,1.588c-34.392,69.312 -85.186,130.159 -148.679,177.779c-4.232,2.646 -8.465,5.82 -12.698,8.995c-1.057,1.057 -2.646,1.587 -3.704,2.645c-3.704,2.646 -7.407,5.291 -11.64,7.937l1.587,3.175l0.53,-0c7.407,-1.058 14.815,-2.118 22.222,-3.175l0.53,-0c13.757,-2.117 27.514,-4.762 41.271,-7.408c3.703,-0.53 7.936,-1.587 11.64,-2.645c2.645,-0.531 4.762,-1.058 7.407,-1.588c3.704,-0.53 7.408,-1.587 11.112,-2.117c3.174,-1.057 6.349,-1.587 9.523,-2.645c52.911,-12.699 104.234,-30.16 153.441,-50.794c-84.128,114.815 -196.827,207.409 -328.574,268.256c60.847,-4.233 121.694,-14.286 180.424,-31.217c213.23,-62.964 392.597,-206.351 500.005,-399.475c-21.693,122.224 -70.371,238.627 -142.329,340.215c51.323,-33.863 98.413,-73.017 141.271,-117.462c118.519,-123.81 196.298,-280.954 222.753,-449.739c17.99,83.599 23.281,169.843 15.344,255.029c382.014,-532.809 31.746,-1085.19 -114.816,-1230.7c-0.53,-1.058 -1.057,-1.588 -1.057,-2.646c-0.531,0.53 -0.531,0.53 -0.531,1.058c0,-0.53 0,-0.53 -0.529,-1.058c-0,6.35 -0.53,12.699 -1.058,19.048c-1.587,12.169 -3.174,23.81 -5.291,35.45c-2.645,11.64 -5.82,23.28 -8.995,34.921c-3.703,11.111 -7.936,22.751 -12.698,33.863c-4.762,10.582 -10.053,21.693 -15.873,32.275c-5.821,10.053 -12.17,20.635 -19.048,30.159c-6.878,10.053 -14.286,19.577 -21.694,28.572c-7.936,9.524 -16.402,17.99 -24.867,26.455c-5.291,4.762 -10.053,8.995 -15.345,13.228c-4.232,3.703 -7.936,6.878 -12.169,10.582c-9.524,7.407 -19.048,14.286 -29.63,20.635c-10.053,6.349 -20.635,12.698 -31.217,17.99c-11.111,5.291 -22.222,10.053 -33.334,14.815c-11.111,4.232 -22.751,7.936 -34.392,11.111c-11.64,3.174 -23.809,5.82 -35.45,7.936c-12.169,2.117 -24.338,3.175 -35.979,4.233c-8.465,0.53 -16.931,1.058 -25.397,1.058c-12.169,-0 -24.338,-1.058 -35.979,-2.118c-12.169,-1.057 -24.339,-2.645 -35.979,-5.291c-12.169,-2.117 -23.81,-5.291 -35.45,-8.995l-0.53,0c11.64,-1.057 23.281,-2.117 34.921,-4.232c12.169,-2.118 23.81,-4.762 35.45,-7.937c11.64,-3.175 23.281,-6.879 34.392,-11.111c11.64,-4.233 22.752,-9.524 33.334,-14.815c11.111,-5.292 21.164,-11.111 31.746,-17.461c10.053,-6.878 20.106,-13.756 29.63,-21.164c9.524,-7.407 18.518,-15.344 26.984,-23.81c8.995,-7.936 16.932,-16.931 24.868,-25.926c7.937,-9.524 15.344,-19.048 22.223,-28.572c1.057,-1.587 2.117,-3.703 3.174,-5.291c5.291,-8.465 10.582,-16.931 15.344,-25.397c5.82,-10.582 11.112,-21.164 15.873,-32.275c4.762,-11.111 8.995,-22.223 12.699,-33.863c3.704,-11.111 6.349,-22.751 8.995,-34.391c2.117,-12.17 4.232,-23.81 5.291,-35.451c1.057,-12.169 2.117,-24.339 2.117,-35.979c-0,-8.466 -0.531,-16.931 -1.057,-25.397c-1.058,-12.169 -2.646,-23.81 -4.233,-35.45c-2.117,-12.169 -4.762,-23.81 -7.937,-35.45c-3.703,-11.111 -7.407,-22.752 -11.64,-33.863c-4.233,-11.111 -9.524,-22.222 -14.815,-32.804c-5.82,-10.582 -11.64,-21.164 -17.99,-31.217c-6.878,-10.053 -13.756,-19.577 -21.164,-29.101c-7.936,-8.995 -15.873,-17.99 -24.339,-26.985c-4.233,-4.232 -8.995,-8.994 -13.757,-13.227c-23.809,-18.519 -48.677,-35.979 -73.545,-51.853c-3.704,-2.117 -6.878,-3.703 -10.582,-5.291c-17.461,-11.111 -33.863,-16.931 -50.265,-22.222l-0.001,-0.003Z" style="fill:#e0234e;"/></svg>