<?xml version="1.0" encoding="UTF-8" standalone="no"?><!DOCTYPE svg PUBLIC "-//W3C//DTD SVG 1.1//EN" "http://www.w3.org/Graphics/SVG/1.1/DTD/svg11.dtd"><svg width="100%" height="100%" viewBox="0 0 2134 2138" version="1.1" xmlns="http://www.w3.org/2000/svg" xmlns:xlink="http://www.w3.org/1999/xlink" xml:space="preserve" xmlns:serif="http://www.serif.com/" style="fill-rule:evenodd;clip-rule:evenodd;stroke-linejoin:round;stroke-miterlimit:2;"><rect id="nodejs" x="0" y="0.479" width="2133.33" height="2133.33" style="fill:none;"/><g><path d="M1040.52,48.046c29.634,21.835 48.09,54.588 56.148,90.2c4.419,29.114 -2.34,56.148 -18.716,80.583c-9.618,12.737 -19.236,23.135 -33.273,31.193c2.08,0.78 3.899,1.82 5.979,2.86c28.334,13.257 40.811,28.074 53.548,56.667c2.34,7.279 2.34,13.518 2.08,21.316c5.459,2.079 10.658,4.159 15.856,6.499c49.13,19.755 49.13,19.755 64.726,38.211c1.3,1.56 2.86,3.12 4.16,4.419c20.795,24.435 27.814,55.628 25.474,86.822c-4.939,51.989 -25.474,103.977 -55.368,146.608c2.599,-0.52 5.199,-1.04 8.058,-1.3c65.766,-10.917 143.489,-9.098 199.897,31.194c4.679,4.159 4.679,4.159 6.499,10.917c0.78,2.08 1.56,4.16 2.339,6.239c5.719,2.6 5.719,2.6 12.738,4.159c3.119,1.82 5.978,3.379 8.838,5.199c7.018,4.159 12.737,5.979 21.055,7.019c26.775,4.159 50.429,20.795 69.925,38.731c1.56,1.3 2.86,2.6 4.419,3.899c42.631,38.992 63.167,105.798 67.846,161.946c0.26,22.355 0.26,22.355 -5.459,29.633c-4.159,5.979 -3.899,10.398 -3.639,17.936l-0,7.019c0.52,7.278 0.52,7.278 2.859,14.557c11.178,41.071 -19.236,102.158 -38.732,137.25c-18.456,31.714 -44.19,51.989 -73.564,72.785c-7.798,5.978 -13.777,12.737 -19.756,20.275c-12.737,14.557 -25.474,19.496 -44.19,21.316c1.04,8.578 2.08,17.156 3.119,25.734c0.26,2.34 0.52,4.939 0.78,7.279c0.26,2.339 0.52,4.679 0.78,7.018c0.26,2.08 0.52,4.419 0.78,6.499c1.04,7.278 1.819,14.297 2.859,21.315c2.08,-0.26 4.159,-0.26 6.239,-0.52c21.315,-1.559 42.371,-2.079 63.426,-2.339l4.939,-0c56.928,-0 113.596,5.979 169.744,15.337c2.339,0.259 4.419,0.779 6.758,1.039c104.758,17.936 256.565,54.329 323.891,146.089c9.618,14.817 11.697,28.074 7.798,45.49c-14.817,48.87 -51.989,91.241 -85.782,127.893c-1.819,2.079 -3.899,4.159 -5.718,6.238c-92.8,103.198 -221.993,183.261 -349.105,236.03c-1.56,0.779 -3.12,1.299 -4.679,2.079c-113.856,47.31 -230.311,92.54 -354.044,104.498c-2.86,0.26 -2.86,0.26 -5.719,0.52c-10.398,1.039 -20.536,1.299 -30.933,1.039c-23.135,-1.299 -23.135,-1.299 -43.411,7.799c-5.199,5.719 -9.358,11.957 -13.517,18.456c-3.639,5.459 -7.799,10.138 -12.218,15.077c-1.559,1.819 -3.119,3.379 -4.679,5.198c-6.758,7.019 -13.777,13.518 -21.575,19.496c-2.859,2.34 -2.859,2.34 -5.979,4.939c-82.662,67.066 -207.695,91.241 -311.673,80.323c-20.275,-2.34 -40.291,-5.719 -60.307,-9.878c-3.119,-0.52 -3.119,-0.52 -6.238,-1.3c-22.616,-4.939 -44.971,-11.437 -62.127,-27.294c-2.08,-4.419 -2.08,-4.419 -2.859,-11.697c4.159,-10.658 10.137,-12.478 20.275,-17.157c5.979,-2.339 11.958,-4.679 17.936,-7.018c67.326,-25.995 125.033,-66.026 175.203,-117.495c-2.08,-0.78 -4.159,-1.56 -6.239,-2.339c-2.859,-1.04 -5.719,-2.08 -8.318,-3.38c-2.08,-0.779 -2.08,-0.779 -4.159,-1.559c-8.059,-3.12 -15.597,-6.759 -23.395,-10.918c-14.037,-7.018 -28.074,-7.538 -43.671,-8.838c-14.557,-1.3 -24.175,-4.159 -35.612,-13.257c-1.04,-0.78 -2.34,-1.82 -3.38,-2.6c-36.392,-28.334 -54.588,-76.683 -62.386,-120.614c-0.78,-7.018 -1.56,-14.037 -2.08,-21.315c-4.159,0.52 -8.318,0.78 -12.737,1.3c-3.899,0.259 -7.798,0.779 -11.697,1.039c-11.958,1.04 -23.915,2.34 -35.613,3.64c-77.983,8.578 -77.983,8.578 -106.837,3.379c-5.979,-1.3 -5.979,-1.3 -12.477,3.119c-1.82,1.56 -3.639,3.119 -5.459,4.679l0,4.159c32.493,11.958 67.326,15.337 101.638,16.117c11.438,0.26 21.835,1.04 30.154,9.358c-0.52,9.878 -4.939,14.557 -11.438,21.575c-1.559,1.82 -3.379,3.639 -5.199,5.459c-3.639,3.899 -7.278,7.538 -11.177,11.178c18.976,-4.679 36.912,-11.438 55.108,-18.976c2.079,-0.78 4.159,-1.56 6.239,-2.6c2.859,-1.04 2.859,-1.04 5.718,-2.339c5.719,-1.82 9.878,-2.34 15.857,-1.56c4.159,4.159 4.159,4.159 4.159,9.618c-3.119,10.398 -8.578,17.936 -14.817,26.514c-1.04,1.3 -2.079,2.86 -3.119,4.419c-29.114,36.393 -82.402,54.849 -127.113,60.827c-48.09,4.419 -105.537,6.759 -146.088,-24.694c-5.719,-5.719 -5.719,-5.719 -8.579,-10.658c0.52,-4.419 0.52,-4.419 2.08,-8.578c17.936,-7.799 38.212,-10.918 57.448,-14.817c-1.56,-0 -3.38,-0.26 -4.939,-0.26c-73.565,-3.899 -152.068,-15.337 -216.014,-55.108c0.78,-5.459 1.56,-8.058 5.719,-11.698c26.254,-16.116 53.808,-29.893 81.362,-43.67c-7.018,-1.3 -14.037,-2.86 -21.315,-4.159c-0.78,-2.08 -1.3,-4.16 -2.08,-6.499c7.799,-8.578 15.597,-14.037 25.995,-19.236c1.559,-0.78 2.859,-1.56 4.419,-2.339c36.652,-17.157 76.423,-21.056 116.195,-25.475c-16.377,-6.499 -32.753,-12.477 -49.649,-17.416c-5.459,-1.82 -5.459,-1.82 -9.618,-3.899c-0.52,-7.279 -0.78,-11.438 3.119,-17.677c24.955,-24.174 55.888,-40.551 90.201,-46.27c1.299,-0.26 2.859,-0.52 4.419,-0.779c55.628,-7.539 112.295,5.458 157.526,37.951c9.098,7.279 15.856,15.857 20.795,26.515l0,6.498l-6.238,0c-7.799,0.26 -15.597,0.26 -23.135,0.52c-3.38,0 -6.759,0.26 -9.878,0.26c-19.756,0.52 -38.732,1.56 -58.228,5.459c5.199,9.098 10.138,15.337 19.236,21.315c14.557,-1.039 28.854,-5.198 43.151,-8.318c48.869,-11.177 48.869,-11.177 63.166,-10.658l0,-3.639c1.82,-28.074 13.257,-64.466 34.313,-83.962c8.318,-6.758 17.156,-9.878 27.294,-13.517c13.517,-5.459 21.056,-9.618 27.554,-23.135c1.04,-2.339 2.08,-4.679 2.86,-7.018c5.978,-11.698 16.116,-18.456 26.774,-25.995c-43.931,-47.31 -142.97,-56.928 -203.796,-60.567c-1.56,0 -2.86,-0.26 -4.42,-0.26c-7.278,-0.52 -14.816,-0.78 -22.095,-1.039c-25.734,-1.3 -25.734,-1.3 -37.432,-8.059c-3.119,-5.978 -2.859,-10.398 -2.079,-16.896c32.493,-51.209 112.296,-74.864 167.664,-87.861c37.432,-8.318 76.423,-15.337 114.895,-16.377c2.859,0 5.459,-0.26 8.578,-0.26c45.75,-1.039 90.201,6.239 131.792,25.735c-0.52,-1.56 -0.78,-3.12 -1.3,-4.679c-14.557,-52.249 -3.899,-95.92 21.316,-142.71c3.379,-5.718 3.379,-5.718 7.278,-9.098c3.119,-2.859 3.119,-2.859 2.34,-7.798c-2.34,-7.538 -5.199,-15.077 -8.059,-22.615c-1.04,-2.859 -2.079,-5.719 -3.379,-8.578c-0.52,-1.3 -1.04,-2.86 -1.56,-4.419c-2.599,-7.019 -5.459,-14.297 -8.058,-21.316c-1.82,1.04 -3.639,2.08 -5.459,3.12c-32.493,18.716 -67.325,28.853 -104.237,35.352c-12.998,2.34 -24.175,6.239 -35.873,12.217c-8.838,3.64 -17.156,4.419 -26.514,2.34c-6.759,-4.159 -6.759,-4.159 -10.658,-10.658c-0.26,-6.238 0.78,-10.917 2.08,-16.896c-1.3,-0 -2.6,0.26 -3.899,0.26c-2.6,-0 -2.6,-0 -5.199,0.26c-1.82,-0 -3.379,0.26 -5.199,0.26c-4.679,-0.52 -4.679,-0.52 -8.578,-3.64c-2.6,-3.379 -2.6,-3.379 -3.38,-7.798c-0.519,-1.3 -0.779,-2.599 -1.299,-4.159c-5.199,-2.339 -5.199,-2.339 -10.658,-4.159c-5.719,-11.698 -2.339,-26.254 1.3,-38.212c23.395,-63.426 84.222,-109.436 139.85,-143.489c40.031,-23.655 40.031,-23.655 66.545,-59.267c0.52,-1.56 1.04,-3.38 1.82,-4.939c1.82,-8.318 -0.78,-12.738 -4.419,-20.276c-4.679,-12.997 -1.82,-22.875 3.379,-35.612l-4.159,-0c-52.249,1.04 -98.779,-5.979 -146.868,-27.814c-0,2.079 0.26,4.419 0.26,6.498c1.039,28.594 -4.679,49.91 -24.435,71.745c-33.013,31.713 -84.222,40.031 -128.413,41.071c-42.11,-1.04 -85.781,-14.557 -117.494,-43.151c-8.319,-9.878 -11.178,-18.976 -10.658,-31.973c4.419,-13.517 13.777,-20.275 25.994,-27.034c30.674,-11.697 62.387,1.56 91.761,11.178c27.554,9.098 52.768,10.917 80.063,-1.3c6.498,-4.159 12.217,-8.838 16.896,-14.817l-0,-6.499c-1.56,-0.259 -3.119,-0.519 -4.419,-0.779c-31.193,-6.759 -60.827,-21.836 -79.543,-48.61c-3.639,-4.419 -5.719,-4.939 -11.438,-6.239c-21.835,-6.498 -41.591,-24.434 -52.508,-44.19c-2.6,-4.939 -4.939,-9.618 -7.539,-14.557c-3.379,-5.719 -6.498,-10.138 -11.177,-15.077c-27.294,-29.113 -41.072,-72.524 -50.17,-110.736c-0.519,-1.82 -0.779,-3.379 -1.299,-5.199c-20.276,-85.781 -2.86,-168.444 41.851,-243.308c4.419,-6.758 9.358,-12.997 14.557,-19.235c1.819,-2.08 3.639,-4.419 5.458,-6.499c66.026,-80.063 155.707,-138.81 260.205,-154.927c3.639,0 7.278,-0.26 10.917,0c6.499,-0.52 9.358,-1.04 14.037,-5.719c2.34,-3.379 4.939,-6.758 7.279,-10.137c32.233,-44.971 104.497,-68.366 155.966,-81.103c29.374,-2.339 56.148,4.159 80.063,20.536Zm473.878,1026.26l2.08,4.159l-2.08,-4.159Zm-12.737,21.316l2.079,4.159l-2.079,-4.159Zm-342.607,184.82c-13.777,2.339 -27.034,2.599 -41.071,2.599l-6.758,0c-12.997,0 -25.475,-0.779 -38.472,-2.599c-0.78,14.557 -0.52,25.215 6.499,38.212c20.275,-3.899 40.551,-8.578 60.827,-12.997c3.639,-0.78 7.278,-1.56 10.657,-2.34c8.838,-2.08 17.417,-3.899 26.255,-5.719c-1.04,-9.358 -1.04,-9.358 -2.08,-19.236c-5.719,0 -10.658,1.04 -15.857,2.08Zm-551.861,529.246l2.08,4.159l-2.08,-4.159Zm-4.419,6.239l2.079,4.159l-2.079,-4.159Z" style="fill:#050605;fill-rule:nonzero;"/><path d="M1442.92,1273.68l30.933,0c6.498,0.52 6.498,0.52 10.658,4.679c-1.3,1.56 -2.6,3.12 -3.9,4.679c-24.954,30.674 -41.331,64.207 -53.548,101.639c-0.52,1.559 -1.04,3.119 -1.56,4.679c-30.153,93.839 -17.676,201.196 26.515,288.538c13.777,26.254 30.673,48.869 51.469,69.925c1.299,1.299 2.599,2.859 3.899,4.159c18.976,20.535 43.93,33.273 68.885,44.97c5.459,2.599 11.177,5.459 16.636,8.318l0,4.159c-1.559,0.52 -3.119,1.3 -4.679,1.82c-11.437,4.679 -23.135,9.618 -34.312,15.077c-12.218,5.718 -24.695,10.917 -37.432,15.596c-7.279,2.86 -14.297,6.239 -21.316,9.358c-16.896,7.799 -34.052,14.557 -51.469,21.056c-1.819,0.52 -3.379,1.3 -5.199,1.819c-78.243,29.374 -158.046,56.148 -241.228,66.806c-2.859,0.26 -2.859,0.26 -5.719,0.78c-27.814,3.379 -55.368,4.159 -83.442,3.639c-0.779,-1.3 -1.299,-2.859 -2.079,-4.159c2.859,-5.199 2.859,-5.199 7.018,-11.437c1.3,-2.08 2.6,-4.16 4.159,-6.239c1.82,-2.86 1.82,-2.86 3.64,-5.459c5.199,-7.798 5.199,-14.297 4.159,-23.395c-1.3,-5.199 -1.3,-5.199 -4.159,-8.578c-5.979,-2.08 -9.878,-2.34 -16.117,-2.34l-18.456,0c-12.217,0 -24.175,0.52 -36.132,1.3c-43.411,3.119 -86.042,0.26 -128.932,-7.798c-29.374,-5.459 -57.448,-9.878 -83.443,7.538c-6.758,4.939 -12.217,9.618 -17.676,15.857c-5.199,4.419 -5.199,4.419 -12.997,3.899c-9.358,-1.56 -17.416,-4.419 -25.994,-8.058c-1.56,-0.78 -2.86,-1.3 -4.419,-2.08c-13.518,-6.239 -23.655,-14.817 -34.053,-25.734c-1.56,-1.56 -2.859,-2.86 -4.419,-4.419c-33.533,-34.833 -57.448,-97.999 -57.188,-146.349c33.533,-4.419 67.326,-7.538 101.118,-9.618c2.08,0 3.9,-0.26 5.979,-0.52c20.536,-1.3 40.811,-2.599 61.347,-3.639c94.62,-2.08 94.62,-2.08 177.802,-41.331c3.639,-5.979 3.639,-5.979 4.159,-12.737c-5.979,-10.138 -13.257,-13.258 -24.175,-16.377c-1.3,-0.52 -2.859,-0.78 -4.159,-1.3c-14.037,-4.419 -27.294,-5.978 -42.111,-5.978l-5.199,-0c-91.5,-0.78 -182.481,7.798 -272.941,19.755c-9.358,-18.976 4.679,-55.368 10.657,-74.344c2.6,-7.798 5.459,-15.596 8.579,-23.135c0.779,-1.819 1.299,-3.379 2.079,-5.199c6.759,-16.376 15.597,-26.254 29.894,-36.912c9.618,-7.278 18.976,-14.556 27.814,-22.355c36.132,-31.193 75.903,-55.888 117.754,-79.023c2.86,-1.559 2.86,-1.559 5.719,-3.119c33.533,-18.196 33.533,-18.196 43.931,-15.597c2.339,1.56 2.339,1.56 4.679,3.379c1.559,1.04 3.119,2.08 4.679,3.12c1.04,0.78 2.339,1.819 3.379,2.599l0,4.159c3.119,1.04 3.119,1.04 6.499,2.08l-4.159,-0c-1.04,2.079 -1.04,2.079 -2.08,4.159c-2.08,0.52 -4.159,1.04 -6.499,1.56c-17.156,4.679 -29.893,18.456 -39.511,33.013c-4.939,10.137 -6.239,20.275 -7.279,31.453c3.64,1.559 7.019,2.859 10.658,4.159c2.08,0.78 3.899,1.56 5.979,2.339c54.848,15.337 139.07,-12.477 187.42,-38.731c13.517,-8.318 23.395,-14.557 29.633,-29.374c3.12,-16.376 -4.159,-28.854 -12.737,-42.371c-5.199,-7.278 -10.658,-14.297 -16.117,-21.315c-4.938,-6.239 -9.098,-12.478 -13.517,-19.236c5.459,-5.459 9.618,-5.979 16.897,-7.798c2.599,-0.52 5.199,-1.3 7.798,-1.82c4.159,-1.04 4.159,-1.04 8.318,-2.08c2.6,-0.779 5.199,-1.299 8.059,-2.079c43.93,-10.918 43.93,-10.918 59.007,-7.539c0.52,1.3 0.78,2.6 1.3,4.16c7.278,20.015 17.676,33.272 36.912,42.63l-0,6.499c2.079,0.78 4.159,1.3 6.498,2.08c-1.559,1.299 -1.559,1.299 -3.119,2.339c-15.857,12.997 -29.634,28.594 -35.093,48.61c-1.559,17.156 3.9,29.373 14.037,42.63c12.478,14.817 25.475,23.395 44.711,25.215c8.318,0.26 16.376,-0.78 24.435,-2.339c1.819,-0.26 3.379,-0.52 5.199,-0.78c35.352,-6.239 66.025,-17.936 87.341,-48.09c8.838,-12.997 17.156,-26.254 25.474,-39.771c2.34,-3.9 4.679,-7.539 7.279,-11.438c9.098,-14.817 10.917,-27.034 8.318,-44.19c-2.34,-9.878 -5.199,-19.496 -8.318,-29.114c-3.12,-9.878 -5.459,-17.936 -4.419,-28.334c17.676,-2.08 34.572,-2.6 51.989,-2.6Z" style="fill:#e9e8e9;fill-rule:nonzero;"/><path d="M1527.4,1274.98c4.159,0.26 4.159,0.26 8.059,0.78c8.578,0.78 17.156,1.82 25.734,2.599c2.6,0.26 5.459,0.52 8.318,1.04c96.18,11.178 193.659,32.493 280.74,75.644c1.82,1.04 3.639,1.82 5.719,2.859c38.991,19.236 92.8,46.79 109.176,90.721c4.419,21.835 -7.018,42.631 -16.896,61.607c-1.3,2.339 -2.34,4.939 -3.639,7.538c-0.78,1.82 -1.82,3.379 -2.6,5.199l-4.159,-0l0,6.498l-4.159,0l0,6.499l-4.159,0c-0.78,2.859 -1.3,5.719 -2.08,8.578l-4.159,0c-0.779,2.86 -1.299,5.719 -2.079,8.578l-4.159,0c-0.78,2.86 -1.3,5.719 -2.08,8.579l-4.159,-0c-0.26,2.079 -0.26,2.079 -0.78,4.159c-0.52,1.559 -1.04,2.859 -1.559,4.419c-2.08,0.78 -4.16,1.299 -6.499,2.079c-0.26,1.3 -0.52,2.6 -1.04,3.899c-1.56,6.239 -4.679,9.098 -9.618,13.258l-4.159,-0c-0.26,1.819 -0.26,1.819 -0.26,3.379c-2.599,7.278 -7.798,11.957 -13.517,17.416c-1.82,1.82 -8.578,8.578 -10.918,10.918c-3.899,3.639 -7.538,7.538 -11.177,11.177c-2.34,2.34 -9.618,9.618 -10.658,10.658c-8.058,7.798 -8.058,7.798 -15.077,7.798c-0.52,1.3 -1.039,2.6 -1.559,3.64c-3.12,5.458 -6.239,8.578 -10.918,12.737c-1.56,1.3 -2.859,2.599 -4.419,3.899c-4.159,2.859 -4.159,2.859 -10.658,2.859c-1.299,2.86 -2.859,5.719 -4.159,8.579l-6.498,-0c-1.3,2.859 -2.86,5.718 -4.16,8.578l-6.498,-0c-0.78,2.079 -1.3,4.159 -2.08,6.498l-6.498,0c-0.78,2.08 -1.3,4.159 -2.08,6.499l-6.498,-0c-0.78,2.08 -1.3,4.159 -2.08,6.499c-6.499,4.159 -6.499,4.159 -12.737,4.159c-0.78,2.079 -1.3,4.159 -2.08,6.498c-6.498,4.159 -6.498,4.159 -12.737,4.159l-0,4.159l-6.499,0l0,4.16l-6.498,-0l-0,4.159l-6.499,-0l0,4.159l-6.499,-0l0,4.159l-6.498,-0l-0,4.159c-6.239,4.419 -9.358,6.499 -16.897,6.499l0,4.159c-3.639,2.079 -3.639,2.079 -7.278,3.899c-11.697,6.499 -23.395,13.517 -34.832,20.276c-17.677,10.397 -28.334,15.856 -49.13,11.697c-33.013,-8.578 -59.267,-31.453 -83.182,-54.848c-1.3,-1.3 -2.34,-2.34 -3.639,-3.639c-8.838,-8.839 -8.838,-8.839 -8.838,-13.518c-2.08,-0.779 -4.159,-1.299 -6.499,-2.079c-3.899,-4.939 -7.538,-9.878 -10.918,-15.077c-1.039,-1.559 -2.079,-3.119 -3.119,-4.679c-10.138,-15.337 -18.716,-31.453 -26.254,-48.349c-1.04,-2.34 -2.34,-4.939 -3.38,-7.539c-38.211,-89.421 -38.991,-192.878 -3.899,-283.079c11.178,-27.814 25.995,-54.328 45.75,-76.943c1.04,-1.04 1.82,-2.34 2.86,-3.64c11.177,-12.737 23.395,-10.397 39.251,-8.578Z" style="fill:#ce2727;fill-rule:nonzero;"/><path d="M936.546,305.13c0,1.56 -0.26,3.12 -0.26,4.679c-0.78,19.496 2.34,40.292 12.998,56.928c3.639,2.34 3.639,2.34 8.578,4.159c3.379,2.08 7.018,4.159 10.397,6.239c23.395,14.037 44.451,18.456 72.005,14.037c24.175,-6.239 43.411,-23.395 56.668,-43.931c2.079,-3.379 3.899,-6.758 5.459,-10.397c7.798,1.299 14.297,3.379 21.315,7.018c8.578,3.899 16.896,7.538 25.735,10.918c25.474,10.657 40.291,32.233 51.468,56.928c18.457,48.609 2.08,103.197 -18.456,148.688c-3.899,8.578 -8.058,16.896 -12.217,25.214l-4.159,0c-1.3,4.939 -2.859,9.878 -4.159,14.817l-4.159,0c-0.52,1.56 -1.04,2.859 -1.56,4.419c-3.379,7.798 -7.798,14.297 -12.477,21.056c-1.04,1.559 -2.08,2.859 -3.12,4.419c-16.376,23.135 -33.792,45.49 -51.209,67.845c-1.039,1.3 -2.079,2.599 -2.859,3.899c-2.599,3.12 -4.939,6.499 -7.538,9.618c-11.958,16.117 -13.517,29.114 -10.918,48.61c0.26,1.299 0.26,2.339 0.52,3.639c-1.56,1.04 -3.119,2.079 -4.939,3.379c-11.438,8.058 -20.016,14.297 -27.034,26.514c-6.499,4.16 -6.499,4.16 -10.658,6.239c-4.679,2.6 -7.798,5.459 -11.697,9.098c-12.218,10.918 -27.555,23.135 -44.191,24.955c-9.878,-2.6 -12.737,-6.499 -18.456,-14.557c-8.578,-8.578 -19.756,-11.178 -31.713,-11.438c-3.899,0 -7.539,0 -11.438,0.26l-6.238,0c-8.838,0 -17.417,0.26 -26.255,0.52c-35.352,0.78 -67.585,-1.819 -101.638,-12.477c-1.82,-0.52 -3.639,-1.04 -5.459,-1.56c-36.392,-11.437 -36.392,-11.437 -44.97,-24.175c2.079,-3.639 4.419,-7.278 6.499,-10.917c8.838,-17.416 5.718,-41.591 0.259,-59.787c-6.758,-17.417 -15.856,-33.793 -25.734,-49.65c-23.915,-37.952 -38.992,-76.683 -33.273,-122.173c2.34,-10.398 5.199,-15.597 14.557,-21.576c2.599,-1.3 5.459,-2.859 8.058,-3.899c4.159,3.899 6.759,7.018 9.618,12.217c11.438,17.417 34.313,29.374 54.329,34.053c44.19,3.639 82.922,-11.697 116.714,-39.771c21.836,-18.716 36.393,-41.072 38.992,-70.185c0.78,-30.414 -7.798,-53.549 -28.334,-76.424c-12.997,-11.437 -28.854,-17.416 -44.71,-23.395c23.395,-17.936 64.466,-45.23 95.659,-34.053Z" style="fill:#86ac63;fill-rule:nonzero;"/><path d="M1112.01,766.271c11.697,9.878 18.456,23.655 24.174,37.432c3.12,7.279 7.019,14.557 10.658,21.576c2.08,4.679 2.08,4.679 2.08,10.917c-2.08,2.08 -2.08,2.08 -4.159,4.159c-4.939,-5.718 -9.878,-11.177 -14.817,-16.896c1.04,1.3 2.079,2.6 3.379,3.899c4.679,6.499 7.538,11.698 9.358,19.496c-2.34,8.578 -6.239,15.597 -10.398,23.395c-11.177,20.536 -16.636,44.97 -17.156,68.105c1.3,0.26 2.339,0.52 3.639,1.04c6.499,1.56 12.997,3.639 19.756,5.459c-2.08,1.04 -2.08,1.04 -4.159,2.08l-0,16.896c9.098,5.199 15.077,6.499 25.474,6.499c4.159,4.159 4.159,4.159 4.159,8.578c8.059,5.459 11.698,4.939 21.316,4.159c7.018,-1.56 13.777,-3.639 20.535,-5.979c1.82,-0.78 3.9,-1.3 5.979,-2.079c30.414,-10.658 58.748,-27.295 83.962,-47.31c2.08,-1.56 4.159,-3.12 5.979,-4.939c5.199,-3.899 10.138,-8.058 15.077,-12.218c20.535,7.799 35.092,40.552 44.71,59.528c7.278,16.896 10.138,36.132 3.899,53.808c-1.3,1.82 -2.599,3.639 -3.899,5.459c-1.3,2.079 -2.859,4.159 -4.159,6.239c-13.777,15.856 -35.872,24.694 -54.588,33.532c-51.729,25.215 -96.96,59.008 -116.195,115.156c-6.499,19.755 -11.698,39.251 -12.478,60.307c0,1.559 0,3.119 -0.26,4.679c0,3.119 -0.26,6.238 -0.26,9.098c-0.26,4.159 -0.26,4.159 -1.299,11.177c-15.857,14.297 -61.087,7.279 -80.843,6.499c-59.787,-4.679 -111.516,-39.512 -150.768,-82.922c-40.291,-48.09 -47.05,-119.575 -42.111,-179.622c0.52,-4.419 1.04,-9.098 1.82,-13.517c2.08,-16.636 2.859,-33.273 3.119,-50.169c0,-3.639 0,-3.639 0.26,-7.538c0,-15.857 -2.599,-25.995 -11.177,-39.512c-4.679,-8.578 -4.679,-16.896 -2.86,-26.514c5.719,-14.297 16.117,-25.475 30.414,-31.973c10.917,-3.38 21.835,-4.419 33.273,-5.459c18.976,-1.56 33.013,-4.159 48.869,-15.597c1.56,-1.04 3.119,-2.339 4.939,-3.379c14.037,-10.398 27.034,-22.615 39.772,-34.573c18.456,-16.896 40.031,-28.594 64.986,-18.976Z" style="fill:#f9c16b;fill-rule:nonzero;"/><path d="M750.946,214.15c13.517,10.918 23.655,23.395 33.273,37.952c1.04,1.559 2.339,3.379 3.379,4.939c11.958,17.936 13.777,33.013 13.777,54.328c0,4.419 0,8.838 0.26,12.997c0.52,51.989 -29.633,95.92 -63.946,132.572c-4.419,4.679 -8.318,9.358 -12.217,14.037c-16.897,19.236 -39.252,35.872 -65.506,38.212c-14.037,0.26 -29.634,-0.78 -41.331,-9.618c-2.6,-3.38 -2.6,-3.38 -2.6,-11.958c-35.612,61.607 -56.668,158.826 -44.71,229.791c0.26,2.339 0.78,4.679 1.299,7.278c0.52,2.6 0.52,2.6 1.04,5.199c-18.716,-5.459 -36.132,-19.756 -46.79,-36.132c-35.352,-73.044 7.539,-171.563 31.973,-242.268c-1.559,-0.26 -3.379,-0.52 -4.939,-0.78c-7.798,-1.819 -10.657,-3.899 -16.376,-9.618c-14.557,-27.034 -17.416,-52.768 -8.578,-82.402c19.236,-58.228 58.227,-118.275 112.556,-149.208c1.559,-0.78 2.859,-1.82 4.419,-2.599c32.493,-17.677 74.084,-12.218 105.017,7.278Z" style="fill:#7a471d;fill-rule:nonzero;"/><path d="M1374.29,1014.78c4.679,4.679 5.459,7.019 7.019,13.257c0.78,2.86 0.78,2.86 1.299,5.459c0.78,2.859 0.78,2.859 1.3,5.719c0.52,1.819 1.04,3.639 1.3,5.719c9.358,38.471 6.758,73.824 -2.6,112.035c-7.018,30.154 -10.397,55.888 -5.198,86.562c0.26,2.079 0.779,4.419 1.039,6.498c3.64,21.056 9.358,41.332 15.597,61.867c5.979,20.276 10.138,39.252 -0.26,58.748c-0.52,1.299 -1.3,2.339 -2.079,3.639c-16.377,29.633 -35.353,59.267 -62.387,80.063c-2.08,1.819 -2.08,1.819 -4.159,3.639c-4.939,3.379 -9.098,4.679 -14.817,5.979c-2.08,0.519 -4.159,1.039 -6.239,1.559c-3.379,0.78 -3.379,0.78 -6.758,1.56c-2.34,0.52 -4.679,1.3 -7.019,1.819c-12.737,3.12 -24.434,5.719 -37.432,4.42c-4.159,-4.16 -4.159,-4.16 -4.679,-11.698c2.08,-13.257 12.478,-21.835 21.576,-30.933c1.299,-1.3 8.318,-8.319 10.657,-10.658l-4.159,-0c-3.119,3.119 -3.119,3.119 -6.238,7.018c-4.679,5.719 -9.358,9.878 -15.077,14.297c-1.56,2.86 -2.86,5.719 -4.159,8.579c-1.3,0.779 -2.86,1.299 -4.159,2.079c-1.04,4.419 -1.04,4.419 -1.3,9.618c-0.26,1.82 -0.26,3.639 -0.52,5.459c-0.26,2.079 -0.26,2.079 -0.26,4.159c-7.278,2.339 -8.318,2.08 -16.116,-1.04c-7.539,-4.679 -10.138,-9.618 -12.738,-17.936c-3.119,-14.557 0,-23.915 7.539,-36.392c3.639,-5.199 3.639,-5.199 6.498,-8.578l-6.498,-0c-0.26,1.299 -0.26,2.339 -0.52,3.639c-1.56,4.679 -1.56,4.679 -5.719,8.578c-5.459,5.979 -5.979,10.138 -7.018,17.936c-0.26,2.34 -0.52,4.679 -1.04,7.019c-0.26,1.819 -0.52,3.379 -0.52,5.199c-0.78,-1.3 -1.3,-2.86 -2.08,-4.159c-2.079,-0.78 -4.159,-1.3 -6.498,-2.08c-7.019,-10.398 -10.138,-21.056 -7.799,-33.533c3.12,-9.358 8.059,-16.376 14.297,-23.915c0.78,-1.039 1.56,-2.079 2.34,-3.379c7.538,-10.398 15.337,-20.536 28.334,-23.395c12.477,-1.04 24.694,-0.26 37.172,1.04c-4.159,-4.159 -11.438,-2.6 -16.897,-2.86c-25.994,-1.559 -41.851,-10.137 -59.527,-29.113c-21.575,-26.255 -21.575,-66.026 -18.716,-98.259c6.239,-50.429 29.894,-91.501 69.145,-123.734c23.135,-17.936 49.91,-31.453 76.164,-44.19c24.175,-10.658 38.472,-22.615 49.909,-47.31Z" style="fill:#85ad62;fill-rule:nonzero;"/><path d="M931.607,1882.99c2.08,0.259 3.899,0.779 5.979,1.039c2.599,0.52 2.599,0.52 5.459,1.04c18.196,2.859 35.872,3.379 54.328,3.119l14.557,0c13.777,0 27.294,-0.26 41.071,-0.26c8.318,0 16.897,-0.259 25.215,-0.259l30.673,-0c6.239,1.039 6.239,1.039 10.138,4.938c3.379,6.499 3.379,10.138 2.34,17.417c-2.86,5.459 -5.719,9.878 -9.098,14.817c-0.78,1.299 -1.56,2.599 -2.6,3.899c-1.56,2.599 -3.379,4.939 -4.939,7.538c-1.56,2.34 -3.379,4.939 -4.939,7.279c-1.819,3.119 -3.899,5.978 -6.238,9.098l-4.16,-0c-0.519,2.079 -0.519,2.079 -0.779,4.159c-0.52,1.559 -0.78,2.859 -1.3,4.419c-2.08,1.04 -2.08,1.04 -4.159,2.079c-1.04,1.56 -1.82,3.38 -2.86,4.939c-3.639,5.719 -6.758,8.059 -11.957,11.958c-1.04,1.559 -1.82,3.119 -2.859,4.679c-6.759,11.177 -15.337,19.236 -27.035,24.954c-1.039,1.56 -2.079,2.86 -3.379,4.419c-1.04,1.3 -2.079,2.6 -3.119,3.9l-6.499,-0c-2.079,4.159 -2.079,4.159 -4.159,8.578l-6.499,-0l0,4.159l-6.498,-0l-0,4.159l-6.499,-0l0,4.159c-5.199,1.04 -5.199,1.04 -10.657,2.08l-0,4.159c-31.974,14.816 -63.687,27.034 -97.739,36.132c-1.82,0.52 -3.64,1.04 -5.719,1.56c-75.644,20.535 -150.248,18.716 -226.932,3.899c-2.079,-0.52 -4.419,-0.78 -6.498,-1.3c-18.196,-3.639 -35.872,-8.578 -50.169,-20.796c-1.56,-1.299 -3.12,-2.599 -4.679,-3.899c-1.04,-1.039 -2.34,-2.079 -3.38,-2.859c2.08,-6.239 3.64,-8.318 9.618,-11.438c2.34,-0.779 4.679,-1.819 7.019,-2.599c2.599,-1.04 5.199,-2.08 7.798,-3.119c1.3,-0.52 2.6,-1.04 4.159,-1.56c74.084,-28.594 136.731,-73.044 192.099,-129.712c37.432,-37.432 65.766,-35.872 114.895,-26.774Z" style="fill:#a41e21;fill-rule:nonzero;"/><path d="M1034.81,51.685c25.215,20.795 45.49,51.209 52.509,83.442c2.339,27.554 -0,51.729 -12.737,76.424l-4.159,-0c-0.52,2.079 -0.52,2.079 -0.78,4.159c-0.52,1.559 -0.78,2.859 -1.3,4.419c-2.08,1.039 -2.08,1.039 -4.159,2.079c-0.78,1.3 -1.3,2.86 -2.08,4.159c-2.339,4.159 -2.339,4.159 -8.578,6.499c-0.78,1.04 -1.819,1.82 -2.599,2.859c-5.459,5.459 -11.958,8.838 -18.716,12.738c-1.56,1.039 -3.12,1.819 -4.679,2.599c-13.777,8.058 -27.814,15.597 -42.111,23.135c-3.639,1.82 -7.279,3.899 -10.918,5.719c-33.793,17.676 -72.004,27.294 -109.956,18.716c-12.738,-4.159 -24.695,-11.698 -34.313,-21.316c0,-8.578 0,-8.578 4.159,-12.737c-10.398,1.3 -18.456,5.719 -27.554,10.658c-0.78,-2.08 -1.3,-4.159 -2.079,-6.499l-4.16,0c-3.119,-4.419 -3.119,-4.419 -6.758,-10.398c-7.019,-11.177 -14.557,-21.835 -22.875,-31.973c7.278,-11.437 17.936,-17.416 29.633,-23.395l4.16,0l-0,-4.159c-2.6,0.26 -2.6,0.26 -4.939,0.52c-1.82,0 -3.64,-0.26 -5.459,-0.52c-7.279,-10.917 -7.799,-23.135 -6.499,-36.132c2.34,-9.358 5.199,-18.456 8.578,-27.554c0.52,-1.56 1.04,-3.119 1.56,-4.679c11.438,-28.074 40.811,-44.191 66.546,-56.928c1.299,-0.78 2.859,-1.559 4.419,-2.079c50.169,-25.995 113.595,-56.668 165.844,-19.756Z" style="fill:#7a471d;fill-rule:nonzero;"/><path d="M685.7,1739.5c1.3,0.78 2.34,1.56 3.639,2.34c179.362,116.195 409.412,141.669 616.068,97.999c89.421,-19.236 89.421,-19.236 174.163,-53.289c2.079,-1.04 2.079,-1.04 4.159,-2.079c6.498,-3.38 12.737,-6.499 18.976,-10.138c6.758,-3.639 12.477,-6.239 20.015,-7.538c9.098,3.379 15.857,8.838 23.395,14.816c3.12,1.82 6.239,3.38 9.358,4.939c2.08,1.04 2.08,1.04 4.159,2.08c1.3,0.78 2.86,1.3 4.16,2.079c1.299,0.78 2.859,1.3 4.159,2.08c2.859,1.3 5.458,2.599 8.318,3.899c5.459,2.6 11.177,5.459 16.636,8.318l0,4.159c-1.559,0.52 -3.119,1.3 -4.679,1.82c-11.437,4.679 -22.875,9.618 -34.312,15.077c-12.218,5.719 -24.695,10.917 -37.432,15.596c-7.279,2.86 -14.297,6.239 -21.316,9.358c-16.896,7.799 -34.052,14.557 -51.469,21.056c-1.819,0.78 -3.379,1.3 -5.199,1.82c-78.243,29.373 -158.046,56.147 -241.228,66.805c-1.819,0.26 -3.899,0.52 -5.719,0.78c-27.814,3.379 -55.368,3.899 -83.442,3.379c-0.779,-1.299 -1.299,-2.859 -2.079,-4.159c2.859,-5.199 2.859,-5.199 7.018,-11.437c1.3,-2.08 2.6,-4.159 4.159,-6.239c1.82,-2.859 1.82,-2.859 3.64,-5.719c5.199,-7.798 5.199,-14.297 4.159,-23.395c-1.3,-5.199 -1.3,-5.199 -4.159,-8.578c-5.979,-2.08 -9.878,-2.339 -16.117,-2.339l-18.456,-0c-12.217,-0 -24.175,0.519 -36.132,1.299c-43.411,3.12 -86.042,0.26 -128.932,-7.798c-29.374,-5.459 -57.448,-9.878 -83.702,7.538c-6.759,4.939 -12.218,9.618 -17.677,15.857c-5.199,4.419 -5.199,4.419 -12.997,3.899c-9.358,-1.56 -17.416,-4.419 -25.994,-8.058c-2.34,-1.04 -2.34,-1.04 -4.419,-2.08c-13.517,-6.238 -23.655,-14.817 -34.053,-25.734c-1.56,-1.56 -2.859,-2.86 -4.419,-4.419c-25.215,-26.255 -37.952,-61.347 -48.35,-95.66c-0.52,-1.559 -1.039,-3.119 -1.299,-4.419c-1.82,-7.278 -3.12,-15.077 -2.6,-23.915Z" style="fill:#b5b6b6;fill-rule:nonzero;"/><path d="M1355.06,704.925c13.517,11.697 28.594,28.333 31.974,46.27c2.339,36.132 -3.64,66.805 -23.395,97.739c-0.78,1.299 -1.56,2.339 -2.34,3.639c-38.212,59.527 -103.978,105.797 -171.823,124.773c-5.979,1.3 -11.178,1.56 -17.156,1.3c-1.56,-4.679 -1.56,-4.679 -2.08,-10.658c3.119,-4.939 3.119,-4.939 6.499,-8.578c-2.08,-1.04 -2.08,-1.04 -4.159,-2.08c-1.56,1.04 -2.86,2.08 -4.419,3.12c-8.319,4.419 -16.117,4.679 -25.475,3.379c-2.08,-2.08 -2.08,-2.08 -4.159,-4.159c0.52,-7.279 1.819,-12.218 5.719,-18.456c1.039,-1.56 1.819,-3.12 2.859,-4.939c-0.78,-2.08 -1.3,-4.159 -2.08,-6.499c-1.819,1.04 -3.899,2.08 -5.718,3.38c-7.019,3.119 -7.019,3.119 -11.698,2.599c-3.639,-1.56 -3.639,-1.56 -5.719,-3.639c-2.339,-45.231 27.295,-91.241 56.408,-123.474c22.615,-24.694 48.61,-46.53 77.464,-63.426c-9.098,-0 -13.257,2.079 -21.316,6.499c-2.079,-7.279 -2.079,-7.279 -4.159,-14.817c-3.379,3.379 -2.599,6.758 -2.859,11.177c-0.78,8.319 -2.08,14.037 -7.799,20.796c-2.859,0.78 -5.718,1.559 -8.578,2.079c-1.039,2.08 -3.119,6.239 -4.159,8.319c-1.3,0.26 -2.599,0.519 -3.899,1.039c-5.459,1.3 -7.538,3.38 -11.438,7.019c-1.299,1.3 -2.339,2.339 -3.639,3.639c-1.299,1.3 -2.599,2.6 -3.639,3.899c-1.3,1.3 -2.599,2.6 -3.899,3.639c-1.82,1.82 -5.199,5.199 -7.019,7.019c-2.859,3.379 -2.859,3.379 -3.639,7.798c-0.26,1.3 -0.78,2.6 -1.04,4.159c-6.498,3.64 -6.498,3.64 -12.737,6.499c-8.838,-6.759 -11.957,-13.257 -15.856,-23.915c-5.459,-15.337 -10.918,-29.114 -25.475,-37.692c-10.658,-2.859 -20.796,-4.159 -31.973,-4.159c-5.719,0 -5.719,0 -9.878,-2.079c-2.599,-9.618 -2.599,-9.618 0,-14.817c15.597,0.26 29.894,2.859 44.71,7.278c1.56,0.52 3.12,1.04 4.679,1.3c7.019,2.079 12.478,4.159 18.456,8.318l0,4.159c2.08,1.04 2.08,1.04 4.16,2.08l-0,8.578c1.039,-1.3 2.079,-2.6 3.119,-3.899c44.19,-51.989 141.15,-112.036 207.175,-64.206Z" style="fill:#86ad63;fill-rule:nonzero;"/><path d="M866.361,1331.39c2.34,0.78 4.679,1.82 7.279,2.599c17.936,7.799 25.734,18.976 35.352,35.613c1.3,1.559 2.34,3.119 3.639,4.679c2.86,3.639 2.86,3.639 2.86,8.058c-1.04,0.52 -2.34,1.04 -3.379,1.56c-5.199,2.599 -10.398,5.199 -15.337,7.538c-1.82,0.78 -3.639,1.82 -5.459,2.6c-1.82,0.779 -3.379,1.819 -5.199,2.599c-2.339,1.04 -2.339,1.04 -4.679,2.34c-4.419,2.079 -4.419,2.079 -8.318,6.498c-1.56,0.52 -3.119,1.3 -4.419,1.82c-40.811,16.376 -82.402,48.349 -114.376,78.243c-6.498,4.939 -6.498,4.939 -11.437,4.419c-5.719,-1.82 -9.098,-3.899 -13.777,-7.538c-59.527,-40.552 -146.869,-50.69 -217.054,-53.809c-29.633,-1.3 -29.633,-1.3 -42.37,-8.318c10.397,-27.034 37.172,-40.291 61.606,-53.029c1.3,-0.78 2.6,-1.299 3.899,-2.079c94.62,-49.39 228.751,-71.485 331.169,-33.793Z" style="fill:#a41e22;fill-rule:nonzero;"/><path d="M921.729,1178.54c5.979,5.719 11.438,11.957 16.377,18.716c30.153,37.952 71.745,63.426 117.755,77.203c5.978,1.82 5.978,1.82 8.058,3.899c0.52,4.939 1.04,9.618 1.56,14.557c3.639,28.594 15.596,47.05 34.312,68.626c12.997,15.336 20.796,28.074 19.496,48.609c-4.159,9.878 -7.278,15.337 -16.896,20.016c-6.239,2.859 -6.239,2.859 -9.618,6.498c-3.899,3.64 -6.499,4.679 -11.698,6.239c-1.559,0.52 -3.379,1.04 -5.199,1.56c-2.859,0.78 -2.859,0.78 -5.718,1.819c-4.16,1.3 -8.319,2.6 -12.218,3.9c-83.702,26.514 -83.702,26.514 -115.155,25.994l-8.578,-0c-2.34,-7.019 -2.34,-8.058 1.04,-15.337c1.559,-2.859 1.559,-2.859 3.379,-5.719l-6.499,0c-2.079,7.019 -4.159,14.037 -6.498,21.316c-6.239,-0.78 -12.738,-1.3 -19.236,-2.08c-2.08,-6.498 -2.6,-9.618 0.52,-15.856c3.899,-5.459 8.058,-10.658 12.217,-15.857c-5.459,1.56 -5.459,1.56 -10.658,4.159c-1.559,4.419 -1.559,4.419 -2.079,8.578c-1.3,0.78 -2.86,1.3 -4.159,2.08l-0,6.499l-4.159,-0c0.259,-3.12 0.519,-6.239 0.779,-9.358c0,-1.82 0.26,-3.38 0.52,-5.199c0.26,-1.56 0.52,-2.86 0.78,-4.419c2.08,-1.04 2.08,-1.04 4.159,-2.08c1.3,-2.859 2.86,-5.719 4.159,-8.578c11.178,-14.037 25.735,-22.095 42.371,-27.554c2.86,-0.26 5.719,-0.52 8.578,-0.78c1.56,-0 3.12,-0.26 4.939,-0.26c1.56,0 3.38,-0.26 4.939,-0.26c1.56,0 3.38,-0.26 5.199,-0.26c4.159,-0.26 8.318,-0.52 12.477,-0.78l0,-4.159c-1.819,0.26 -3.639,0.26 -5.718,0.52c-25.995,0 -47.57,-13.517 -65.766,-30.413c-23.655,-24.955 -31.713,-60.307 -31.453,-93.84c1.819,-34.573 13.257,-73.824 37.691,-97.999Z" style="fill:#86ad63;fill-rule:nonzero;"/><path d="M1085.23,375.315c7.539,-0.779 12.218,-0.26 19.236,2.86c10.138,8.838 15.597,19.236 17.936,32.493c1.04,25.214 -10.137,52.508 -26.514,71.484c-2.599,2.86 -5.199,5.719 -8.058,8.319c-3.12,3.379 -3.12,3.379 -2.34,7.538c0.52,1.56 1.04,3.119 1.82,4.679c1.04,3.119 1.04,3.119 2.079,5.979c1.56,4.419 3.12,8.838 4.679,13.257c1.82,6.239 2.6,10.658 1.82,16.896c-2.859,4.419 -2.859,4.419 -6.499,8.059c-1.299,1.299 -2.339,2.599 -3.639,3.899c-1.04,1.039 -1.819,1.819 -2.859,2.859c3.379,8.838 9.358,12.737 16.896,17.936c17.936,12.737 17.936,12.737 20.276,22.355c0.52,18.196 -9.358,29.634 -21.316,42.371c-31.973,30.154 -73.304,48.09 -115.675,57.448c-2.339,0.52 -2.339,0.52 -4.679,1.04c-57.447,12.477 -111.776,4.939 -161.945,-26.775c-17.156,-11.437 -42.371,-28.593 -49.649,-48.609c-0.52,-4.159 -0.52,-4.159 1.559,-10.658c6.239,-2.079 10.918,-2.599 17.417,-3.119c73.824,-6.499 149.468,-20.016 215.233,-55.108c2.34,-1.3 4.679,-2.6 7.279,-3.899c5.459,-3.12 10.138,-6.239 15.077,-10.138c2.079,-0.78 4.159,-1.3 6.498,-2.08c4.419,-3.119 8.318,-5.979 11.958,-9.878c2.859,-2.859 2.859,-2.859 7.278,-4.939c1.3,-1.299 2.859,-2.859 4.159,-4.159c4.159,-4.159 4.159,-4.159 8.578,-6.498c2.08,-2.34 4.159,-4.679 5.979,-7.019c4.159,-4.939 7.538,-8.578 12.737,-12.477c5.199,-4.159 6.239,-6.499 9.098,-12.218c2.08,-3.379 4.159,-6.758 6.239,-9.877c11.957,-19.756 20.536,-38.732 17.156,-62.387c-4.419,-10.398 -9.878,-17.416 -19.755,-23.135c-1.82,-0.78 -3.9,-1.56 -5.719,-2.34c-0.78,-1.299 -1.56,-2.859 -2.34,-4.159Z" style="fill:#060706;fill-rule:nonzero;"/><path d="M881.178,895.984c9.878,9.098 15.857,20.795 17.936,33.792c0.26,6.759 0.26,13.517 0,20.276l0,7.538c-0.26,14.817 -1.559,29.634 -3.639,44.451c-2.079,15.596 -1.82,31.193 -1.82,47.05l0,7.798c0,11.438 0.26,22.355 2.08,33.533c0.78,7.798 0.78,8.838 -3.899,15.596c-33.013,23.135 -75.644,31.714 -114.376,38.732c-12.477,2.34 -21.315,5.719 -32.233,12.477c-5.458,1.04 -5.458,1.04 -10.137,0.78l-4.679,0c-4.42,-0.78 -4.42,-0.78 -10.658,-4.939c0.52,-14.037 5.979,-21.315 14.817,-31.973c-7.539,2.86 -7.539,2.86 -14.557,6.759c-6.499,2.859 -12.218,2.339 -19.496,1.819c-1.3,-1.299 -2.859,-2.859 -4.159,-4.159c4.679,-10.138 9.618,-18.976 16.896,-27.554c-8.318,0 -10.138,2.86 -16.376,8.578c-1.82,1.56 -3.38,3.12 -5.199,4.679c-1.3,1.3 -2.6,2.34 -3.899,3.64c-2.08,-1.3 -4.159,-2.86 -6.499,-4.16c-3.639,-27.034 11.698,-51.469 27.554,-72.264c9.618,-11.698 19.756,-22.615 31.973,-31.973l0,6.498l-4.159,0c-3.119,13.777 -4.679,26.255 -4.159,40.292c8.058,3.899 14.297,5.459 23.395,4.159c6.239,-4.419 11.438,-9.098 16.377,-14.817c5.978,-5.459 12.737,-8.578 20.015,-11.957c10.918,-4.939 10.918,-4.939 18.976,-13.777c-8.318,-0 -10.658,3.379 -16.896,8.578c-6.499,3.379 -13.257,6.238 -20.016,9.098c-6.499,4.159 -7.538,7.018 -9.878,14.037c-5.978,3.639 -9.358,4.419 -16.376,3.639c-4.939,-1.56 -4.939,-1.56 -9.098,-3.639c-4.679,-14.037 1.039,-28.074 6.238,-41.071c14.037,-28.334 42.371,-44.451 67.846,-61.087c36.132,-22.615 36.132,-22.615 68.105,-50.429Z" style="fill:#85ad62;fill-rule:nonzero;"/><path d="M548.97,1609.79c6.758,5.719 12.217,12.218 17.676,19.236c-9.358,-2.079 -18.456,-4.159 -27.814,-6.239c-1.56,-0.26 -3.12,-0.779 -4.679,-1.039c-3.12,-0.78 -6.239,-1.56 -9.358,-2.34c-39.772,-9.618 -88.641,-10.917 -126.073,7.539c0.52,8.058 1.819,10.397 7.798,15.856c2.34,1.82 4.939,3.379 7.279,5.199c2.599,1.82 4.938,3.639 7.538,5.459c1.3,1.04 2.339,1.819 3.639,2.859c6.759,5.199 12.997,10.918 18.196,17.416l0,4.16c1.3,0.779 2.86,1.299 4.159,2.079c-6.498,2.34 -12.217,2.86 -18.976,3.379c-33.532,2.86 -66.025,7.539 -99.298,14.817c-5.979,1.3 -11.698,2.34 -17.676,3.12c1.299,4.159 1.299,4.159 4.159,8.578c6.238,2.599 6.238,2.599 13.517,4.159c10.397,2.599 16.896,5.719 24.954,12.737c-2.079,0.26 -4.159,0.52 -6.238,0.78c-2.08,0.52 -4.419,0.78 -6.499,1.3c-0.78,1.299 -1.3,2.859 -2.079,4.159c-3.9,1.299 -3.9,1.299 -8.839,2.599c-15.596,4.419 -38.471,11.958 -48.349,25.215c-1.56,4.419 -1.56,4.419 -2.08,8.578c48.87,29.114 115.675,36.912 171.563,36.132l19.496,0c-1.819,5.199 -1.819,5.199 -4.159,10.658c-3.379,1.56 -7.018,2.859 -10.658,4.159c-0.779,2.08 -1.299,4.159 -2.079,6.499c-3.379,1.559 -7.019,2.859 -10.658,4.159c-8.578,5.718 -8.578,5.718 -12.737,14.817c31.193,15.076 79.803,7.538 112.036,-2.6c15.337,-5.459 29.114,-12.737 43.151,-20.795c1.559,-0.78 3.119,-1.56 4.679,-2.34c5.978,-2.859 11.177,-6.758 16.636,-10.398c-2.859,8.838 -7.018,14.297 -13.777,20.796c-1.56,1.559 -3.379,3.379 -4.939,5.199c-4.679,3.899 -4.679,3.899 -10.918,3.899c-0.779,2.079 -1.299,4.159 -2.079,6.498l-6.499,0l0,4.16c-61.087,30.933 -132.571,45.49 -199.637,24.954c-14.557,-5.199 -31.973,-11.177 -40.291,-24.954c1.819,-0.52 3.899,-1.04 5.978,-1.3c17.417,-4.159 34.573,-8.838 51.989,-13.517c1.82,-0.52 3.899,-1.04 5.719,-1.56c9.358,-2.599 17.676,-5.459 25.735,-10.918c-2.34,-2.859 -2.34,-2.859 -8.059,-2.339c-2.599,-0 -5.459,-0 -8.058,0.26l-14.037,-0c-74.084,0.78 -151.547,-10.658 -216.274,-49.13c21.576,-25.474 59.528,-36.132 89.161,-48.869c-1.819,-4.159 -1.819,-4.159 -4.159,-8.578c-4.419,-1.82 -4.419,-1.82 -9.618,-2.34c-5.199,-0.78 -5.199,-0.78 -9.358,-1.819c-0.78,-1.3 -1.299,-2.86 -2.079,-4.159c41.331,-22.876 84.222,-33.273 131.272,-35.353c6.238,-0.26 11.437,-0.78 17.416,-2.859c-0.78,-3.379 -1.3,-7.019 -2.08,-10.658c-10.138,-3.379 -20.015,-6.758 -30.153,-9.618c-2.86,-0.78 -2.86,-0.78 -5.719,-1.56c-3.899,-1.039 -7.538,-2.079 -11.438,-3.119c-2.859,-0.78 -2.859,-0.78 -5.458,-1.56c-1.56,-0.519 -3.38,-1.039 -4.939,-1.299c-1.3,-0.52 -2.6,-1.04 -3.9,-1.82c-1.039,-3.119 -1.039,-3.119 -2.079,-6.498c51.989,-60.827 165.064,-68.106 230.051,-21.836Z" style="fill:#ce2727;fill-rule:nonzero;"/><path d="M1021.55,1643.84c4.159,6.499 4.159,6.499 3.899,10.658c-4.679,11.437 -18.456,18.716 -29.374,23.395l-4.159,-0c-0.779,1.299 -1.299,2.859 -2.079,4.159c-4.939,1.299 -4.939,1.299 -11.438,2.599c-3.639,0.78 -3.639,0.78 -7.278,1.3c-3.899,0.78 -3.899,0.78 -7.798,1.3c-2.34,0.519 -4.679,1.039 -7.279,1.299c-37.432,6.759 -74.864,9.098 -112.556,11.178c-97.739,5.459 -194.958,14.297 -292.177,26.254c-23.395,2.86 -46.27,5.199 -69.925,5.459l-5.979,0c-12.217,0 -21.055,-1.04 -31.713,-7.018c-0.78,-1.3 -1.3,-2.86 -2.079,-4.159c10.137,-14.037 20.015,-19.496 36.132,-25.475c2.599,-1.04 5.199,-2.08 7.798,-2.859c59.527,-21.576 123.214,-30.414 185.6,-39.512c2.08,-0.26 3.899,-0.52 5.979,-0.78c277.36,-40.551 277.36,-40.551 344.426,-7.798Z" style="fill:#a61e22;fill-rule:nonzero;"/><path d="M751.986,155.922c1.56,0.52 2.859,1.04 4.419,1.56c9.098,3.379 17.416,7.279 25.215,13.777c2.599,6.759 2.599,6.759 3.899,14.037c0.78,3.639 0.78,3.639 1.559,7.279c1.04,6.498 1.04,6.498 1.04,12.737c-3.899,3.639 -3.899,3.639 -8.838,7.018c-1.56,1.04 -3.379,2.34 -4.939,3.64c-5.199,2.079 -5.199,2.079 -10.658,0.779c-4.419,-2.339 -8.318,-4.939 -12.477,-7.798c-22.095,-14.037 -53.808,-19.496 -79.543,-15.077c-25.994,5.979 -42.631,16.897 -61.867,35.093c-2.859,2.599 -5.718,4.939 -8.838,7.538c-40.811,35.872 -76.163,94.36 -81.882,149.208c-1.3,26.254 7.018,48.09 22.615,68.625c1.82,2.08 1.82,2.08 3.639,3.9c3.899,6.498 2.08,10.137 0.52,17.156c-1.3,4.159 -2.599,8.318 -3.899,12.477c-16.117,49.39 -29.114,99.039 -31.193,151.028c-0,2.079 -0.26,4.159 -0.26,6.238c-0.26,4.939 -0.52,10.138 -0.52,15.077c-10.918,-8.318 -18.196,-16.376 -24.435,-28.854c-0.78,-1.559 -1.56,-3.119 -2.339,-4.679c-36.393,-73.564 -46.01,-162.465 -19.756,-240.448c12.477,-35.872 29.634,-73.564 55.368,-101.898c1.82,-2.34 3.899,-4.679 5.719,-6.759c46.27,-57.187 148.428,-152.327 227.451,-121.654Z" style="fill:#ce2727;fill-rule:nonzero;"/><path d="M1022.33,91.976c18.456,19.236 27.554,46.53 27.814,72.525c-0.52,19.495 -10.138,29.113 -23.655,42.111c-32.233,27.294 -74.084,42.63 -116.195,41.851c-16.637,-1.82 -29.374,-9.878 -40.551,-22.096c-16.377,-21.575 -23.135,-47.829 -20.276,-74.344c3.639,-18.976 16.636,-33.273 31.973,-44.71c10.918,-6.759 22.355,-11.958 34.053,-16.896c2.859,-1.3 2.859,-1.3 5.978,-2.6c31.454,-13.257 73.045,-19.756 100.859,4.159Z" style="fill:#313043;fill-rule:nonzero;"/><path d="M1939.41,1516.47c0.78,2.08 1.3,4.159 2.079,6.499l-4.159,-0l0,6.498l-4.159,0l0,6.499l-4.159,0c-0.78,2.859 -1.3,5.719 -2.079,8.578l-4.16,0c-0.779,2.86 -1.299,5.719 -2.079,8.578l-4.159,0c-0.78,2.86 -1.3,5.719 -2.08,8.579l-4.159,-0c-0.26,2.079 -0.26,2.079 -0.78,4.159c-0.78,2.079 -0.78,2.079 -1.559,4.419c-2.08,0.78 -4.159,1.299 -6.499,2.079c-0.26,1.3 -0.52,2.6 -1.04,3.899c-1.559,6.239 -4.679,9.098 -9.618,13.258l-4.159,-0c0,1.039 -0.26,2.339 -0.26,3.379c-2.599,7.538 -7.798,11.957 -13.517,17.416c-1.819,1.82 -8.578,8.578 -10.917,10.918c-3.9,3.639 -7.539,7.538 -11.178,11.437c-2.34,2.34 -4.679,4.679 -7.279,7.019c-1.039,1.04 -2.339,2.339 -3.379,3.379c-8.058,7.798 -8.058,7.798 -15.077,7.798c-0.519,1.3 -1.039,2.6 -1.559,3.64c-3.12,5.458 -6.239,8.578 -10.918,12.737c-1.56,1.3 -2.859,2.599 -4.419,3.899c-4.159,2.859 -4.159,2.859 -10.658,2.859c-2.079,4.16 -2.079,4.16 -4.159,8.579l-6.498,-0c-2.08,4.159 -2.08,4.159 -4.159,8.578l-6.499,-0c-0.78,2.079 -1.3,4.159 -2.08,6.498l-6.498,0c-1.04,3.12 -1.04,3.12 -2.08,6.499l-6.498,-0c-1.04,3.119 -1.04,3.119 -2.08,6.499c-6.499,4.159 -6.499,4.159 -12.737,4.159c-1.04,3.119 -1.04,3.119 -2.08,6.498c-6.498,4.159 -6.498,4.159 -12.737,4.159l-0,4.159l-6.499,0l0,4.16l-6.498,-0l-0,4.159l-6.499,-0l0,4.159l-6.498,-0l-0,4.159l-6.499,-0l-0,4.159c-6.239,4.419 -9.358,6.499 -16.896,6.499l-0,4.159c-2.34,1.299 -4.939,2.599 -7.279,3.899c-11.697,6.499 -23.395,13.517 -34.832,20.276c-17.677,10.397 -28.334,15.856 -49.13,11.957c-37.692,-9.878 -67.585,-37.952 -93.58,-65.766l0,-2.079l8.319,-0c81.622,-1.82 158.046,-38.472 229.79,-74.344c2.34,-1.04 4.419,-2.34 6.759,-3.38c44.97,-22.615 88.381,-47.829 129.192,-77.463c1.3,-1.04 2.859,-2.08 4.419,-3.119c17.416,-12.738 34.053,-25.735 49.649,-40.812c5.459,-5.199 10.658,-9.618 16.117,-13.777Z" style="fill:#a21d21;fill-rule:nonzero;"/><path d="M560.407,1633.18l0,4.159c2.08,1.04 2.08,1.04 4.159,2.08l-3.899,-0c-39.512,-0 -39.512,-0 -76.943,10.658c-1.04,5.978 -1.04,5.978 -0,12.737c5.978,5.719 5.978,5.719 12.737,10.658c2.079,2.859 4.419,5.718 6.498,8.578c-2.599,0.78 -4.939,1.559 -7.538,2.339c-30.413,9.098 -30.413,9.098 -56.148,27.294c-1.04,4.679 -1.04,4.679 -1.3,9.878c-0.26,2.6 -0.26,2.6 -0.52,5.199c0,1.3 -0.259,2.6 -0.259,4.159l-4.16,0c-0.519,1.3 -1.039,2.6 -1.819,3.899c-2.6,4.419 -2.6,4.419 -8.838,8.838l-0,8.579c13.257,6.498 25.474,10.397 40.031,12.997c2.08,0.26 3.899,0.78 5.979,1.04c20.016,3.379 40.031,4.679 60.307,5.718c2.339,0 4.939,0.26 7.278,0.52c2.08,0 4.419,0.26 6.499,0.26c5.199,0.78 5.199,0.78 9.358,4.939c-0.26,7.279 -1.56,10.138 -6.759,15.597c-2.859,2.339 -2.859,2.339 -5.718,4.679c-7.799,6.238 -11.958,10.658 -15.077,20.275c0.78,0.78 1.3,1.3 2.079,2.08c14.297,-0.78 25.735,-4.159 38.992,-9.358c14.557,-5.459 28.854,-10.398 43.931,-14.037c-30.414,31.713 -75.384,49.909 -118.795,51.209c-4.679,0 -9.358,0 -14.037,0.26l-4.419,-0c-10.138,-0 -20.016,-1.04 -30.153,-2.34c-0.78,-2.079 -1.3,-4.159 -2.08,-6.498c1.56,-1.04 2.859,-2.08 4.419,-3.119c24.175,-15.337 24.175,-15.337 40.291,-37.172c-2.339,0.259 -2.339,0.259 -4.939,0.519c-64.466,5.459 -136.47,-2.339 -194.698,-32.233c2.08,-6.498 2.08,-6.498 8.578,-10.137c2.86,-1.3 5.719,-2.86 8.579,-4.16c1.559,-0.779 3.119,-1.559 4.419,-2.339c44.97,-21.575 44.97,-21.575 54.848,-21.575c-1.04,-5.199 -1.04,-5.199 -4.159,-10.658c-6.239,-3.639 -6.239,-3.639 -13.777,-5.979c-2.6,-0.78 -4.939,-1.819 -7.539,-2.599c-5.978,-2.08 -5.978,-2.08 -10.657,-2.08l-0,-4.159c36.912,-8.318 73.044,-13.257 110.736,-16.376c5.719,-0.52 11.177,-1.56 16.896,-2.86c-2.079,-13.777 -9.618,-22.095 -20.535,-30.413c-5.459,-3.899 -10.918,-7.539 -16.377,-11.178c-3.379,-2.339 -6.499,-4.679 -9.878,-7.278l0,-6.499c3.899,-1.3 7.799,-2.859 11.698,-4.159c2.339,-0.78 4.419,-1.56 6.758,-2.34c42.371,-12.737 94.36,-4.159 135.951,10.398Z" style="fill:#f78e1e;fill-rule:nonzero;"/><path d="M1378.45,834.117c12.478,2.079 19.496,11.697 26.775,21.575c6.758,10.918 8.578,18.716 7.278,31.453c-2.859,1.3 -2.859,1.3 -5.719,2.6c-23.655,8.838 -23.655,8.838 -38.991,27.294c-1.3,2.08 -2.86,4.159 -4.159,6.499c1.039,-1.04 2.339,-2.34 3.379,-3.38c13.777,-12.997 28.334,-23.655 47.57,-26.514c9.098,0.78 12.997,2.34 19.235,8.578c17.677,21.316 28.854,45.49 27.814,73.824c-1.299,14.037 -9.358,20.276 -19.235,29.374c-11.698,7.278 -24.435,7.798 -37.952,8.318c-1.56,0.26 -3.12,0.52 -4.679,0.78c-0.78,1.3 -1.3,2.859 -2.08,4.159c17.416,-0.26 31.194,-1.3 46.27,-10.398c5.719,-2.599 9.098,-3.119 15.337,-2.339c7.798,6.499 12.477,17.156 14.297,26.774c2.339,25.475 -3.379,52.509 -18.716,73.044c-0.26,1.56 -0.52,3.12 -0.78,4.679c-1.3,4.42 -1.3,4.42 -6.498,7.019c-12.998,2.859 -26.515,2.859 -39.512,-0.52c0.78,1.3 1.3,2.859 2.08,4.159c5.718,1.56 11.177,2.86 16.896,4.159c2.859,0.78 5.719,1.3 8.578,2.08c1.56,15.596 -2.599,28.854 -10.658,42.371c-5.458,4.679 -5.458,4.679 -10.657,8.578c-1.3,1.56 -2.86,2.859 -4.159,4.419c-6.759,6.499 -12.478,8.058 -21.836,8.578c-1.819,0 -3.899,-0.26 -5.719,-0.26c-2.339,-8.578 -1.819,-14.297 0.26,-22.875c0.78,-3.379 0.78,-3.379 1.82,-7.018c0.52,-2.34 1.3,-4.679 1.82,-7.279c17.676,-69.145 3.119,-144.529 -31.454,-207.175c-8.578,-14.557 -18.716,-28.074 -29.893,-40.812c1.559,-1.819 3.379,-3.639 4.939,-5.458c18.196,-20.536 34.572,-42.111 48.349,-66.286Z" style="fill:#4b2f12;fill-rule:nonzero;"/><path d="M732.49,252.102c11.438,8.578 21.835,19.756 25.475,34.053c4.159,34.052 -9.358,60.826 -25.475,89.68c-1.56,2.6 -2.859,5.459 -4.159,8.059c-8.058,16.116 -8.058,16.116 -16.896,18.975c-2.86,3.38 -5.719,7.019 -8.579,10.658c-12.477,12.477 -24.174,17.416 -42.111,18.196c-25.214,-0.78 -46.01,-12.217 -63.426,-30.153c-8.058,-9.098 -10.138,-16.637 -10.138,-28.854c4.939,-40.031 35.613,-87.081 66.546,-112.036c27.294,-19.496 48.35,-24.175 78.763,-8.578Z" style="fill:#552f37;fill-rule:nonzero;"/><path d="M798.256,324.106l2.08,0c2.859,46.01 -22.876,87.602 -52.249,121.134c-3.639,3.899 -7.279,7.799 -10.918,11.698c-4.419,4.679 -8.318,9.358 -12.217,14.037c-16.897,19.236 -39.252,35.872 -65.506,38.212c-14.037,0.26 -29.634,-0.78 -41.331,-9.618c-2.6,-3.38 -2.6,-3.38 -2.6,-11.958c-35.612,61.607 -56.668,158.826 -44.71,229.791c0.52,2.339 0.78,4.679 1.3,7.278c0.519,2.6 0.519,2.6 1.039,5.199c-18.716,-5.459 -36.132,-19.756 -46.79,-36.132c-35.352,-73.044 7.539,-171.563 31.973,-242.268c-1.559,-0.26 -3.379,-0.52 -4.938,-0.78c-7.799,-1.819 -10.658,-3.899 -16.377,-9.878c-8.578,-16.116 -12.997,-29.633 -12.997,-47.829l-0,-4.939c-0,-7.019 0.26,-12.738 2.339,-19.496c2.08,-0.78 4.159,-1.3 6.499,-2.08c0.52,2.08 1.3,4.159 2.08,6.239c4.938,15.857 9.877,30.933 19.235,44.71c1.3,2.08 1.3,2.08 2.86,4.159c20.795,27.035 58.747,47.31 92.02,52.249c22.615,2.34 38.992,-0.78 57.448,-14.557c3.119,-2.599 6.238,-5.199 9.358,-8.058c1.559,-1.04 2.859,-2.339 4.419,-3.379c35.092,-27.814 58.747,-74.864 74.084,-116.195c1.819,-5.199 1.819,-5.199 3.899,-7.539Z" style="fill:#623c16;fill-rule:nonzero;"/><path d="M1085.49,1926.14c6.499,3.899 9.098,8.578 12.478,15.077c-1.56,5.979 -1.56,5.979 -4.16,10.658l-4.159,-0c-0.26,2.079 -0.26,2.079 -0.779,4.159c-0.52,1.56 -0.78,2.859 -1.3,4.419c-1.3,0.78 -2.86,1.3 -4.159,2.079c-1.04,1.56 -1.82,3.38 -2.86,4.939c-3.639,5.719 -6.758,8.059 -11.957,11.958c-1.04,1.56 -1.82,3.119 -2.859,4.679c-6.759,11.177 -15.337,19.236 -27.035,24.954c-1.039,1.56 -2.079,2.86 -3.379,4.42c-1.04,1.299 -2.08,2.599 -3.119,3.899l-6.499,-0c-1.3,2.859 -2.859,5.718 -4.159,8.578l-6.499,-0l0,4.159l-6.498,-0l-0,4.159l-6.499,0l0,4.159c-5.199,1.04 -5.199,1.04 -10.658,2.08l0,4.159c-31.973,14.817 -63.686,27.034 -97.739,36.132c-1.819,0.52 -3.639,1.04 -5.718,1.56c-75.644,20.535 -150.248,18.716 -226.932,3.899c-2.079,-0.52 -4.419,-0.78 -6.498,-1.3c-13.777,-2.859 -26.514,-7.018 -39.252,-12.737l0,-2.08c11.438,-0.52 22.096,0.26 33.533,2.08c18.196,2.599 36.132,2.859 54.588,2.859l4.939,0c47.05,-0.26 90.981,-6.758 136.471,-19.755c1.56,-0.52 3.119,-0.78 4.679,-1.3c54.068,-15.597 97.999,-47.31 140.89,-82.662c69.145,-55.628 69.145,-55.628 95.139,-45.231Z" style="fill:#ce2727;fill-rule:nonzero;"/><path d="M866.361,1331.39c2.34,0.78 4.679,1.82 7.279,2.599c17.936,7.799 25.734,18.976 35.352,35.613c1.3,1.559 2.34,3.119 3.639,4.679c2.86,3.639 2.86,3.639 2.86,8.058c-5.459,2.859 -10.658,5.979 -16.117,8.838c-1.559,0.78 -3.119,1.82 -4.679,2.6c-11.437,5.978 -11.437,5.978 -19.756,4.419c-2.079,-1.04 -3.899,-1.82 -5.978,-2.86c-80.063,-28.854 -160.126,-34.572 -244.348,-25.474c-1.559,0.26 -3.379,0.26 -4.939,0.52c-25.994,2.599 -50.949,9.618 -76.163,16.376c-1.82,0.52 -3.38,1.04 -5.199,1.3c-22.615,5.979 -22.615,5.979 -44.451,14.557c-2.339,1.04 -4.939,2.339 -7.538,3.379c-1.3,-0.78 -2.859,-1.3 -4.159,-2.08c5.979,-17.936 34.572,-29.373 50.169,-37.432c97.999,-48.089 228.751,-73.824 334.028,-35.092Z" style="fill:#ce2727;fill-rule:nonzero;"/><path d="M1414.58,681.27c13.257,1.559 24.694,6.238 36.132,12.737c1.819,1.04 3.379,1.82 5.199,2.859c49.389,28.854 75.903,81.623 90.46,135.431c6.239,24.175 6.759,47.31 6.499,72.265c-1.56,-1.04 -3.379,-2.08 -5.199,-2.86c-13.257,-7.538 -26.514,-15.076 -40.031,-21.835c-17.157,-8.838 -33.533,-17.936 -48.35,-30.413c-2.34,-1.82 -2.34,-1.82 -4.419,-3.64c-20.276,-18.196 -20.016,-49.649 -23.655,-75.124c-3.379,-23.135 -7.798,-45.23 -14.297,-67.845c-1.56,-6.499 -3.119,-12.737 -4.159,-19.236c0.52,-1.04 1.04,-1.56 1.82,-2.339Z" style="fill:#3a843f;fill-rule:nonzero;"/><path d="M1459.29,878.827c31.453,12.478 74.084,35.873 89.161,68.106c2.859,22.875 -1.3,43.93 -8.578,65.765c-0.52,1.82 -1.04,3.38 -1.82,5.199c-6.758,20.796 -14.037,41.072 -23.915,60.827l-4.159,0c-0.78,3.38 -1.3,7.019 -2.079,10.658l-4.16,-0c-0.779,3.379 -1.299,7.018 -2.079,10.658c-3.119,1.039 -3.119,1.039 -6.499,2.079c-0.26,1.3 -0.52,2.6 -0.78,3.639c-1.819,6.759 -5.718,9.878 -10.657,14.817c-1.56,1.82 -3.38,3.38 -5.199,5.199c-4.679,3.899 -4.679,3.899 -11.178,3.899c-0.78,2.08 -1.299,4.159 -2.079,6.499l-6.499,-0c-0.78,2.08 -1.3,4.159 -2.079,6.499l-6.499,-0c-1.3,2.859 -2.859,5.718 -4.159,8.578l-4.159,-0c-0,-25.475 -0,-25.475 8.058,-33.533c3.379,-2.34 3.379,-2.34 7.018,-4.679c15.857,-18.716 22.096,-47.31 21.576,-71.485c-1.04,-13.257 -5.459,-23.135 -13.777,-33.273c-3.379,-4.159 -3.379,-4.159 -5.719,-8.058c1.3,-5.979 1.3,-5.979 4.159,-10.658c7.279,-22.095 0,-45.49 -9.358,-65.765c-6.498,-12.218 -13.777,-23.395 -22.615,-34.053c2.08,-2.34 4.419,-4.419 6.759,-6.499c1.299,-1.299 2.599,-2.339 3.639,-3.639c7.018,-3.899 10.657,-2.599 17.676,-0.78Z" style="fill:#39833f;fill-rule:nonzero;"/><path d="M1021.55,1643.84c4.159,6.499 4.159,6.499 3.639,10.658c-1.559,4.159 -1.559,4.159 -5.719,8.318c-5.198,-0 -10.137,-0 -15.076,-0.52c-1.56,-0 -3.12,-0.26 -4.679,-0.26c-4.939,-0.26 -9.878,-0.78 -14.817,-1.04c-51.209,-3.639 -100.858,-1.559 -151.808,2.86c-5.198,0.52 -10.397,0.779 -15.596,1.299c-86.562,7.279 -171.303,19.236 -257.085,34.053c-25.474,4.419 -50.949,8.578 -76.683,12.737c-2.08,0.26 -3.9,0.78 -5.979,1.04c-10.658,1.82 -21.316,3.379 -31.973,5.199c5.458,-12.737 16.376,-17.156 28.334,-22.095c125.813,-47.57 271.121,-56.668 404.473,-64.466c2.339,-0.26 4.679,-0.26 7.278,-0.52c98.259,-5.459 98.259,-5.459 135.691,12.737Z" style="fill:#ce2727;fill-rule:nonzero;"/><path d="M866.621,355.04c20.016,10.917 34.053,33.013 41.591,54.068c3.12,21.575 1.82,42.111 -7.798,61.607c-0.78,1.56 -1.56,3.119 -2.339,4.419c-16.377,29.114 -51.209,53.548 -82.923,63.426c-27.554,7.279 -52.248,10.658 -78.243,-3.119c-25.474,-15.597 -25.474,-15.597 -32.233,-26.514c-1.04,-5.979 -1.04,-5.979 0,-12.738c4.159,-4.679 7.798,-8.318 12.477,-11.957c2.6,-2.34 5.199,-4.419 7.799,-6.759c1.299,-1.039 2.599,-2.339 3.899,-3.379c16.116,-14.557 28.594,-31.193 40.551,-49.389c1.04,-1.3 1.82,-2.86 2.86,-4.159c0.779,-1.3 1.559,-2.6 2.339,-3.9c2.599,-3.379 2.599,-3.379 8.838,-7.538c0.26,2.08 0.26,2.08 0.52,4.419c4.159,25.215 11.178,46.27 32.493,61.867c14.557,9.878 29.634,18.456 47.57,16.636c11.177,-2.339 20.795,-5.199 27.554,-14.817c8.578,-15.856 7.278,-31.453 4.159,-48.869c-4.419,-14.297 -11.178,-27.554 -19.236,-40.291c-1.56,1.819 -3.119,3.379 -4.679,5.199c-5.979,5.458 -5.979,5.458 -10.917,7.798c-9.358,-0.52 -15.597,-5.199 -22.616,-10.918c-8.838,-9.878 -10.137,-18.976 -10.657,-31.973c-5.199,-1.04 -5.199,-1.04 -10.658,-2.08c2.079,-6.498 2.079,-6.498 5.979,-8.838c14.557,-5.198 30.673,1.82 43.67,7.799Z" style="fill:#fafdfd;fill-rule:nonzero;"/><path d="M611.356,507.107c7.019,0.52 12.997,1.04 19.236,4.419c2.859,5.199 1.56,8.578 0.52,14.297c-7.279,55.628 10.138,103.978 43.151,147.908c24.694,33.273 24.694,33.273 23.395,51.729c-1.82,7.019 -4.16,11.698 -9.358,16.637c-10.138,5.978 -21.056,4.419 -32.234,2.599c-14.556,-4.939 -26.514,-13.777 -38.211,-23.395c-1.56,-1.3 -3.38,-2.599 -4.939,-4.159c-5.719,-4.679 -10.918,-9.878 -16.117,-15.077c-1.04,-1.04 -2.079,-1.819 -3.119,-2.859c-9.878,-9.878 -17.416,-18.976 -19.236,-33.013c0,-10.138 1.56,-20.016 3.379,-29.894c0.52,-4.159 1.04,-8.578 1.56,-12.737c13.257,-97.739 13.257,-97.739 31.973,-116.455Z" style="fill:#cf2727;fill-rule:nonzero;"/><path d="M713.254,787.587c0.26,4.939 0.26,10.138 0.52,15.077c0,1.299 0,2.859 0.26,4.419c0.26,10.137 -1.82,16.636 -7.018,25.214c-1.56,4.679 -1.56,4.679 -2.08,8.578l-4.159,0c-3.639,3.64 -3.639,3.64 -7.279,8.059c-20.275,24.174 -50.949,33.272 -81.882,36.652c-47.57,3.639 -98.259,-2.86 -135.951,-34.053c-3.899,-3.379 -7.278,-6.758 -10.657,-10.658c-0.78,2.08 -1.3,4.159 -2.08,6.499c-2.599,-8.058 -2.34,-14.037 1.3,-21.835c7.278,-9.098 19.755,-12.738 30.413,-16.377c20.536,-2.079 37.952,2.86 57.448,9.358c2.859,0.78 5.459,1.82 8.318,2.6c4.939,1.559 10.138,3.379 15.077,4.939c22.875,7.278 54.848,9.098 76.683,-1.82c1.3,-0.78 2.6,-1.56 3.899,-2.6c1.3,-0.779 2.34,-1.559 3.64,-2.339c6.498,-4.939 9.878,-9.878 13.517,-16.896c6.238,-10.918 16.116,-12.738 27.554,-15.857c6.239,-1.3 6.239,-1.3 12.477,1.04Z" style="fill:#7a471d;fill-rule:nonzero;"/><path d="M1074.58,562.475c8.058,3.379 14.556,8.578 21.575,13.777c1.56,1.04 3.119,2.08 4.679,3.379c7.798,5.719 11.438,8.579 14.297,17.937c-0.52,16.896 -11.958,28.334 -23.395,39.771c-4.679,3.899 -9.618,7.019 -15.077,10.138c-0.78,-2.34 -0.78,-2.34 -1.559,-4.939c-0.78,-2.08 -1.3,-4.159 -2.08,-6.499c-0.78,-2.079 -1.3,-4.159 -2.08,-6.238c-3.119,-6.499 -4.939,-8.838 -11.177,-12.218c-16.117,-3.379 -29.114,1.3 -43.151,8.838c-8.058,5.199 -14.297,11.438 -20.795,18.716c-2.08,2.08 -2.08,2.08 -4.16,4.16c-10.657,-12.218 -10.657,-12.218 -10.657,-16.897c-18.196,-4.419 -31.454,2.34 -47.31,11.178c-16.637,11.177 -26.514,29.893 -33.273,48.349c-42.111,-2.339 -85.002,-25.214 -112.816,-56.148c-6.238,-7.018 -6.238,-7.018 -6.238,-11.957c16.896,1.82 16.896,1.82 24.954,3.119c86.822,15.857 181.181,-14.817 255.525,-58.487c1.56,-1.3 2.86,-2.34 4.419,-3.639c4.16,-2.6 4.16,-2.6 8.319,-2.34Z" style="fill:#271e15;fill-rule:nonzero;"/><path d="M641.25,515.425l27.554,0c-0.26,2.6 -0.78,4.939 -1.04,7.539c-4.159,38.991 1.82,72.264 20.276,107.097c1.039,1.819 2.079,3.899 2.859,5.718c4.679,8.579 9.358,17.157 14.557,25.475c17.156,28.074 30.413,54.328 24.175,88.641c-4.419,13.517 -13.257,25.214 -25.735,31.973c-23.135,9.358 -41.591,6.239 -64.726,-2.859c-23.135,-11.178 -51.729,-30.154 -61.867,-54.849c-2.079,-7.798 -2.339,-14.556 -2.079,-22.615l-0,-8.058c-0,-2.08 -0,-3.899 0.26,-5.979c5.199,4.939 10.138,9.878 14.557,15.337c18.716,22.095 46.53,44.45 76.163,48.35c10.658,0.52 17.157,-0.52 26.255,-6.499c7.798,-9.878 10.138,-17.936 9.618,-30.413c-4.159,-22.356 -23.395,-44.191 -36.912,-61.867c-11.698,-15.337 -17.677,-31.713 -23.655,-49.909c-0.78,-2.34 -1.56,-4.419 -2.34,-6.759c-3.899,-14.297 -4.679,-28.074 -4.939,-42.631l0,-5.459c-0.26,-11.957 2.08,-21.055 7.019,-32.233Z" style="fill:#e3ad59;fill-rule:nonzero;"/><path d="M925.889,857.512c-2.08,1.3 -4.16,2.599 -6.499,3.899c-5.199,4.159 -6.239,5.979 -7.278,12.737c-0,5.979 0.259,11.698 0.779,17.416c1.56,0.26 3.38,0.52 4.939,0.78c2.08,0.26 4.159,0.78 6.499,1.04c2.079,0.26 4.159,0.78 6.498,1.04c5.459,1.3 5.459,1.3 9.878,5.459c1.3,10.138 -0.779,17.676 -4.159,27.294c-4.679,15.337 -6.758,30.153 -8.058,46.01c-0,1.3 -0.26,2.859 -0.26,4.159c-6.499,73.824 -3.119,148.168 43.671,209.255c31.973,37.432 69.925,66.026 115.675,85.002l-0,2.079c-54.848,-1.299 -103.978,-35.612 -140.63,-74.084c-43.671,-47.05 -50.429,-113.335 -48.869,-174.422c0.259,-8.578 1.299,-16.897 2.339,-25.215c2.08,-16.636 2.859,-33.273 3.119,-50.169c0,-3.639 0,-3.639 0.26,-7.538c0,-15.857 -2.599,-25.995 -11.177,-39.512c-4.419,-8.318 -3.64,-15.077 -2.86,-24.435c1.3,1.3 2.86,2.86 4.159,4.159c0.78,-1.819 1.56,-3.639 2.34,-5.458c4.939,-9.098 11.178,-17.937 21.055,-21.576c4.419,0 4.419,0 8.579,2.08Z" style="fill:#e2ac58;fill-rule:nonzero;"/><path d="M1374.29,1014.78c4.679,4.679 5.459,7.019 7.019,13.257c0.78,2.86 0.78,2.86 1.299,5.459c0.78,2.859 0.78,2.859 1.3,5.719c0.52,1.819 1.04,3.639 1.3,5.719c11.437,46.789 4.419,89.68 -9.098,135.43l-2.08,0c-2.079,-8.318 -2.339,-16.116 -2.079,-24.694l-0,-8.318c-0,-5.719 0.26,-11.438 0.26,-17.157c0.78,-28.334 0.78,-28.334 -8.838,-54.068c-41.851,1.56 -89.161,28.594 -117.235,57.967c-32.493,37.952 -41.591,90.721 -37.952,139.59c4.419,33.013 17.676,53.549 43.411,73.825c2.859,2.339 2.859,2.339 5.718,4.679l0,4.159c-20.015,1.559 -34.312,-4.419 -49.649,-17.417c-20.536,-19.755 -28.594,-43.67 -29.634,-72.004c-0.779,-49.649 10.398,-100.079 45.491,-137.251c29.113,-29.373 63.686,-48.869 100.598,-66.805c24.435,-11.438 38.732,-23.395 50.169,-48.09Z" style="fill:#7b9d55;fill-rule:nonzero;"/><path d="M823.99,105.233c-1.039,6.759 -2.339,13.517 -3.899,20.276c-8.578,39.512 -2.859,75.124 18.716,109.956c14.557,20.536 33.533,34.833 58.488,39.252c64.466,5.979 130.752,-46.27 181.441,-80.323c0.78,1.3 1.299,2.86 2.079,4.159c-2.079,4.419 -4.159,8.578 -6.498,12.738l-4.159,-0c-0.52,2.079 -0.52,2.079 -0.78,4.159c-0.52,1.559 -0.78,2.859 -1.3,4.419c-2.08,1.04 -2.08,1.04 -4.159,2.079c-0.78,1.3 -1.3,2.86 -2.08,4.159c-2.339,4.16 -2.339,4.16 -8.578,6.499c-0.78,1.04 -1.819,1.82 -2.599,2.859c-5.459,5.459 -11.958,8.838 -18.716,12.738c-1.56,1.039 -3.12,1.819 -4.679,2.599c-13.777,8.058 -27.814,15.597 -42.111,23.135c-3.639,1.82 -7.279,3.899 -10.918,5.719c-33.793,17.676 -72.004,27.294 -109.956,18.716c-12.737,-4.159 -24.695,-11.698 -34.313,-21.316c0,-8.578 0,-8.578 4.159,-12.737c-10.398,1.3 -18.456,5.719 -27.554,10.658c-0.78,-2.08 -1.3,-4.159 -2.079,-6.499l-4.159,0c-3.12,-4.419 -3.12,-4.419 -6.759,-10.397c-7.019,-11.178 -14.557,-21.836 -22.875,-31.974c7.278,-11.437 17.936,-17.416 29.634,-23.395l4.159,0l-0,-4.159c-2.6,0.26 -2.6,0.26 -4.939,0.52c-1.82,0 -3.64,-0.26 -5.459,-0.52c-7.279,-10.917 -7.798,-23.135 -6.499,-36.132c13.777,-57.188 13.777,-57.188 36.392,-57.188Z" style="fill:#613b15;fill-rule:nonzero;"/><path d="M1180.89,1305.91c0.52,1.3 0.78,2.6 1.3,4.16c7.278,20.015 17.676,33.272 36.912,42.63l-0,6.499c3.119,1.04 3.119,1.04 6.498,2.08c-1.04,0.779 -2.079,1.559 -3.119,2.339c-15.857,12.997 -29.634,28.594 -35.093,48.61c-1.819,20.015 6.239,33.273 18.716,48.349c5.719,5.719 11.438,9.618 18.456,13.517c1.04,0.78 2.08,1.3 3.12,2.08l-0,4.159c-22.615,-2.599 -37.172,-20.016 -51.989,-35.352c-14.817,-15.337 -28.594,-24.435 -49.909,-28.334c-2.08,-6.499 -2.08,-6.499 -1.56,-13.777c-0,-21.576 -16.636,-40.292 -29.634,-56.408c-4.939,-6.239 -9.358,-12.478 -13.517,-19.236c5.459,-5.459 9.618,-5.979 16.897,-7.798c2.599,-0.52 5.198,-1.3 7.798,-1.82c2.599,-0.52 5.459,-1.3 8.318,-2.08c3.899,-1.039 3.899,-1.039 8.058,-2.079c43.931,-10.658 43.931,-10.658 58.748,-7.539Z" style="fill:#b6b7b7;fill-rule:nonzero;"/><path d="M1361.56,645.137c6.499,7.279 6.499,7.279 6.499,12.738l-3.64,-0c-35.872,1.039 -69.665,4.419 -104.237,14.037c-38.212,10.397 -72.265,6.238 -109.957,-4.419c-1.559,-0.52 -3.119,-0.78 -4.679,-1.3c-7.538,-2.34 -12.477,-4.419 -17.676,-10.398c17.936,-30.413 17.936,-30.413 30.934,-35.872c8.838,-2.34 17.416,-3.639 26.254,-4.679c3.379,-0.52 7.018,-1.04 10.398,-1.56c52.768,-6.758 121.913,-1.04 166.104,31.453Z" style="fill:#3a823e;fill-rule:nonzero;"/><path d="M560.407,451.739c9.878,2.859 17.416,6.758 25.994,12.737c3.38,2.08 3.38,2.08 6.759,4.419c5.459,4.159 5.459,4.159 9.878,10.658c-0.52,12.477 -4.939,21.575 -10.658,32.493c-31.973,64.466 -48.609,136.731 -31.973,207.695c1.04,2.08 1.04,2.08 2.08,4.159c-17.937,-6.238 -31.714,-20.795 -40.552,-37.431c-27.034,-69.925 10.138,-166.885 36.133,-232.651c0.779,-0.779 1.559,-1.299 2.339,-2.079Z" style="fill:#7b481d;fill-rule:nonzero;"/><path d="M868.181,137.206c15.077,1.3 28.594,5.199 42.891,10.138c2.079,0.78 4.419,1.3 6.498,2.08c12.478,4.159 23.915,9.098 35.613,15.077c4.419,2.339 8.838,4.419 13.257,6.498c16.116,8.059 32.753,21.056 42.371,36.392c-2.6,7.799 -5.979,8.839 -12.997,12.478c-2.34,1.04 -2.34,1.04 -4.42,2.079c-1.559,0.78 -3.119,1.56 -4.679,2.34c-26.254,12.737 -59.007,23.655 -88.121,15.077c-20.795,-9.618 -30.413,-24.695 -38.731,-45.491c-4.939,-14.557 -7.279,-31.453 -2.86,-46.53c5.199,-10.138 5.199,-10.138 11.178,-10.138Z" style="fill:#562f38;fill-rule:nonzero;"/><path d="M1034.29,256.261c17.676,1.04 31.194,8.318 43.151,21.055c11.957,14.557 21.835,31.454 21.315,50.949c-3.119,17.937 -17.936,34.313 -31.973,44.971c-21.575,14.297 -40.551,17.416 -66.285,14.037c-19.236,-4.159 -39.512,-16.637 -51.729,-32.233c-8.319,-15.857 -10.138,-31.454 -6.499,-49.13c2.34,-6.758 4.159,-8.838 10.398,-12.477c4.419,-1.82 9.098,-3.379 13.517,-5.199c5.459,-2.079 9.878,-4.159 14.817,-7.278c6.498,-3.64 6.498,-3.64 14.817,-3.64c-0.26,2.6 -0.26,5.199 -0.52,7.799c-0,18.456 5.978,37.952 17.936,52.249c11.957,11.177 27.554,20.275 44.19,20.535c10.138,-3.379 15.337,-8.058 21.316,-16.896c2.599,-17.936 1.559,-33.533 -8.578,-48.87c-2.08,1.3 -4.16,2.86 -6.499,4.159c-7.798,1.3 -12.737,1.3 -19.496,-3.119c-11.437,-9.878 -11.437,-9.878 -14.557,-15.857c0.26,-4.419 0.26,-4.419 0.78,-9.618c0.26,-2.599 0.26,-2.599 0.52,-5.198c1.3,-4.16 1.3,-4.16 3.379,-6.239Z" style="fill:#fafdfd;fill-rule:nonzero;"/><path d="M921.729,1178.54c5.979,5.719 11.438,11.957 16.377,18.716c30.153,37.952 71.745,63.426 117.755,77.203c5.978,1.82 5.978,1.82 8.058,3.899c0.26,3.9 0.26,7.799 -0,11.698l-0,11.437c-1.56,-0.779 -2.859,-1.819 -4.419,-2.599c-3.119,-1.82 -3.119,-1.82 -6.239,-3.639c-2.079,-1.3 -4.419,-2.6 -6.498,-4.159c-8.839,-4.939 -17.937,-7.539 -27.814,-10.138c-21.576,-5.979 -41.072,-14.817 -61.347,-24.175c-11.178,-5.199 -17.417,-7.278 -29.634,-4.159c-9.878,7.278 -14.297,15.857 -16.896,27.554c-4.159,29.634 11.177,59.527 28.074,82.922c9.358,11.958 19.496,22.355 31.453,31.713c-10.138,3.9 -17.676,-0.779 -27.294,-4.939c-10.918,-5.978 -19.236,-13.777 -28.074,-22.875c-1.82,-1.819 -1.82,-1.819 -3.639,-3.379c-21.836,-22.095 -26.775,-58.227 -26.775,-87.861c0.78,-33.273 12.478,-72.784 36.912,-97.219Z" style="fill:#7c9e56;fill-rule:nonzero;"/><path d="M736.649,740.797c2.86,1.56 2.86,1.56 5.719,3.379c53.548,31.193 102.418,39.772 163.505,40.032c43.151,0.259 43.151,0.259 60.307,9.877c10.918,4.679 20.276,5.199 31.973,2.08c12.737,-5.199 23.395,-12.997 34.313,-21.315c19.236,-14.817 19.236,-14.817 27.294,-18.976c4.939,0.779 4.939,0.779 8.578,2.079l-0,6.499c-4.939,3.899 -4.939,3.899 -11.178,8.058c-9.358,6.499 -15.076,11.698 -20.795,21.575c-6.499,4.16 -6.499,4.16 -10.658,6.239c-4.679,2.6 -7.798,5.459 -11.697,9.098c-12.218,10.918 -27.554,23.135 -44.191,24.955c-9.878,-2.6 -12.737,-6.499 -18.456,-14.557c-8.578,-8.578 -19.756,-11.178 -31.713,-11.438c-3.899,0 -7.538,0 -11.438,0.26l-6.238,0c-8.838,0 -17.417,0.26 -26.255,0.52c-35.352,0.78 -67.585,-1.819 -101.638,-12.477c-1.819,-0.52 -3.639,-1.04 -5.459,-1.56c-36.392,-11.437 -36.392,-11.437 -44.97,-24.175c2.08,-3.379 4.159,-6.758 6.239,-10.137c3.379,-6.759 4.939,-13.258 6.758,-20.016Z" style="fill:#7b9d56;fill-rule:nonzero;"/><path d="M1401.85,679.19c19.496,26.774 21.836,72.265 26.255,104.238c5.459,41.331 5.459,41.331 30.933,73.044c2.34,1.56 4.679,3.119 7.278,4.679c1.3,0.78 2.6,1.82 3.9,2.599c15.596,10.138 31.973,18.456 48.349,27.035c2.08,1.039 4.159,2.339 6.499,3.379c1.819,1.04 3.899,2.079 5.719,2.859c5.199,3.38 8.058,6.239 11.177,11.698c0.52,8.058 0.52,8.058 0,14.817c-8.318,-4.419 -15.596,-9.098 -22.875,-15.077c-9.618,-7.539 -19.756,-13.517 -30.153,-19.496c-1.56,-0.78 -3.12,-1.82 -4.939,-2.859c-17.936,-10.138 -17.936,-10.138 -37.952,-13.777c-7.539,2.599 -11.178,7.018 -16.637,12.737c-4.679,1.819 -4.679,1.819 -8.578,2.079c-5.199,-5.198 -5.459,-16.116 -6.498,-23.395c0.52,-5.978 1.559,-10.917 3.379,-16.636c4.419,-20.276 -0.26,-41.851 -3.899,-61.867c-0.78,-4.679 -1.56,-9.618 -2.34,-14.297c-2.859,-16.376 -6.238,-32.233 -10.917,-48.089c-0.52,-1.56 -0.78,-2.86 -1.3,-4.419c-4.679,-15.597 -11.178,-30.674 -25.215,-39.512c-18.456,-5.979 -35.872,-4.939 -54.848,-1.819c-2.599,0.519 -2.599,0.519 -5.199,0.779c-30.413,5.199 -59.267,11.178 -86.561,25.735c-7.279,3.119 -9.878,3.119 -17.157,0.52c-3.639,-1.56 -7.278,-3.38 -10.917,-5.199c-11.178,-5.719 -17.936,-7.539 -30.674,-7.019c-15.596,0.26 -25.734,-3.899 -39.251,-11.177c-2.86,-1.3 -5.979,-2.6 -8.838,-3.899c-2.08,-0.78 -3.899,-1.56 -5.979,-2.6c2.859,-3.379 5.719,-7.018 8.578,-10.658c2.08,0.52 2.08,0.52 3.899,1.04c4.419,1.04 8.578,2.08 12.998,3.12c6.238,1.559 12.477,3.119 18.456,4.938c45.23,12.218 82.142,8.319 127.112,-3.639c10.918,-2.859 21.576,-4.939 33.013,-5.719c2.08,0 3.899,-0.259 5.979,-0.519c6.758,-0.52 13.257,-0.78 19.756,-1.04c3.379,-0.26 3.379,-0.26 6.758,-0.26c20.796,-0 35.353,4.159 50.689,17.676Z" style="fill:#163123;fill-rule:nonzero;"/><path d="M672.963,1720.27c3.379,6.238 5.199,11.957 6.498,18.715c0.52,2.08 0.78,3.9 1.3,5.979c0.52,2.08 0.78,4.159 1.3,6.499c4.419,21.055 9.878,40.551 18.716,60.047c1.04,2.079 1.04,2.079 1.82,4.159c8.838,19.496 19.495,36.912 32.233,54.068c4.159,5.459 4.159,5.459 4.159,7.539l-16.637,-0c-14.297,-0.52 -23.655,-2.6 -35.092,-11.698c-1.3,-1.039 -2.34,-1.819 -3.639,-2.859c-34.573,-28.594 -50.949,-68.105 -59.008,-110.996c-0.52,-2.34 -0.52,-2.34 -0.78,-4.679c-1.299,-8.059 -2.339,-15.077 0.52,-22.875c13.777,-6.499 33.533,-4.159 48.61,-3.899Z" style="fill:#636469;fill-rule:nonzero;"/><path d="M1066.26,618.363c5.979,7.539 9.098,15.077 10.658,24.695c-1.56,6.498 -1.56,6.498 -4.159,10.658c-3.379,1.559 -6.759,3.119 -10.138,4.679c-10.398,4.419 -20.535,9.358 -30.673,14.037c-5.979,2.599 -5.979,2.599 -10.138,2.599c-0.78,1.3 -1.3,2.859 -2.08,4.159c-5.458,1.56 -10.397,2.859 -15.856,4.159c-1.56,0.26 -3.379,0.78 -4.939,1.04c-5.199,1.04 -10.138,2.08 -15.337,3.379c-2.339,0.52 -2.339,0.52 -4.419,1.04c-25.474,5.719 -50.169,5.979 -76.164,5.459c-1.819,-5.979 -2.339,-7.798 0,-14.037c14.297,-25.215 28.334,-41.071 56.148,-50.429c6.759,-1.82 11.698,-1.82 18.196,0.78c3.38,2.599 3.38,2.599 6.499,6.498c1.56,1.82 3.119,3.899 4.679,5.719c1.3,1.56 2.6,3.379 3.899,4.939c1.56,-1.82 1.56,-1.82 3.38,-3.639c17.156,-20.016 43.41,-38.732 70.444,-25.735Z" style="fill:#eb7083;fill-rule:nonzero;"/><path d="M1079,502.688c11.437,23.655 11.437,23.655 10.657,34.053c-32.233,47.829 -113.855,67.845 -165.844,80.842c-1.56,0.52 -3.379,0.78 -5.199,1.3c-21.835,5.199 -43.93,5.719 -66.546,5.979l-8.318,-0c-19.496,-0 -37.172,-2.86 -56.148,-7.279c0.78,-1.299 1.3,-2.859 2.08,-4.159c5.459,-1.3 5.459,-1.3 12.997,-2.339c2.859,-0.52 5.459,-0.78 8.318,-1.3c1.56,-0.26 2.86,-0.52 4.419,-0.52c95.14,-13.517 183.781,-34.313 254.746,-102.678c4.419,-3.899 4.419,-3.899 8.838,-3.899Z" style="fill:#fafdfd;fill-rule:nonzero;"/><path d="M751.986,155.922c1.56,0.52 2.859,1.04 4.419,1.56c9.098,3.379 17.416,7.279 25.215,13.777c2.599,6.759 2.599,6.759 3.899,14.037c0.52,2.34 1.039,4.939 1.559,7.279c1.04,6.498 1.04,6.498 1.04,12.737c-3.899,3.639 -3.899,3.639 -8.838,7.018c-1.56,1.04 -3.379,2.34 -4.939,3.64c-5.199,2.079 -5.199,2.079 -10.658,0.779c-4.419,-2.339 -8.318,-4.939 -12.477,-7.798c-22.095,-14.037 -53.808,-19.496 -79.543,-15.077c-25.994,5.979 -42.631,16.897 -61.867,35.093c-4.419,3.899 -8.838,7.798 -13.517,11.437c-3.899,3.38 -3.899,3.38 -6.238,8.059c-3.899,3.899 -3.899,3.899 -11.958,4.679c-3.119,-0 -6.238,-0.26 -9.358,-0.26l-4.939,-0c-3.899,-0 -7.798,-0.26 -11.697,-0.52c3.639,-21.316 33.793,-37.952 50.429,-49.65c40.291,-28.593 100.079,-65.765 149.468,-46.79Z" style="fill:#fbfeff;fill-rule:nonzero;"/><path d="M1427.32,895.984c19.236,15.596 29.633,39.771 34.053,63.686c1.299,15.077 -0,25.214 -8.059,37.952c-9.358,6.238 -16.116,5.199 -27.294,3.899c-16.896,-3.639 -29.633,-10.918 -40.291,-24.435c-11.438,-17.416 -10.658,-36.392 -8.578,-56.668c2.079,-7.798 3.379,-12.477 10.397,-16.896c1.82,-0.78 3.64,-1.82 5.719,-2.6c2.86,-1.299 2.86,-1.299 5.719,-2.599c9.878,-4.419 18.196,-6.239 28.334,-2.339Z" style="fill:#613b15;fill-rule:nonzero;"/><path d="M881.178,895.984c11.438,11.437 17.416,24.174 18.196,40.551c0,4.679 0,9.098 -0.26,13.777l0,7.538c-0.26,14.817 -1.559,29.634 -3.639,44.451c-2.079,15.596 -1.82,31.193 -1.82,47.05l0,7.798c0,11.437 0.26,22.355 2.08,33.533c0.78,7.798 0.78,8.838 -3.899,15.596c-7.279,5.199 -14.557,9.098 -22.875,12.738c-1.3,0.779 -2.86,1.299 -4.419,2.079c-3.639,1.56 -7.539,3.12 -11.178,4.679c-1.3,-0.78 -2.859,-1.3 -4.159,-2.079c0.52,-1.56 1.3,-3.12 1.82,-4.939c6.758,-19.496 7.798,-37.172 7.798,-57.708c-0,-29.114 3.379,-55.628 12.217,-83.702c5.979,-22.095 3.38,-45.75 -7.018,-66.286c8.578,-7.798 8.578,-7.798 17.156,-15.076Z" style="fill:#7b9d55;fill-rule:nonzero;"/><path d="M928.228,1386.24c1.82,1.04 3.379,2.08 5.199,3.38c1.82,1.039 3.639,2.079 5.459,3.119c2.079,1.3 2.079,1.3 3.899,2.599l-0,4.159c2.079,0.78 4.159,1.3 6.499,2.08l-4.16,-0c-0.779,1.3 -1.299,2.859 -2.079,4.159c-2.08,0.52 -4.159,1.04 -6.499,1.56c-17.156,4.679 -29.893,18.456 -39.511,33.013c-4.939,10.137 -6.239,20.275 -7.279,31.453c12.998,5.459 23.915,9.098 38.212,8.838l25.735,-0c7.018,-0 14.297,-0 21.315,-0.26c-12.477,12.477 -46.79,11.438 -64.206,11.438c-19.496,-0.26 -28.854,-4.939 -42.891,-17.937c-16.376,-15.076 -35.092,-18.456 -56.668,-21.315l0,-6.499c2.86,-2.599 2.86,-2.599 7.019,-5.198c1.559,-1.04 3.119,-2.08 4.679,-3.12c1.819,-1.04 3.379,-2.079 5.199,-3.119c1.819,-1.04 3.639,-2.34 5.458,-3.379c22.356,-13.777 45.491,-26.255 68.886,-38.472c1.819,-1.04 3.639,-1.82 5.458,-2.86c11.958,-5.718 11.958,-5.718 20.276,-3.639Z" style="fill:#b5b6b6;fill-rule:nonzero;"/><path d="M641.25,515.425l27.554,0c-0.26,2.6 -0.78,4.939 -1.04,7.539c-4.159,38.991 1.82,72.264 20.276,107.097c1.039,1.819 2.079,3.899 2.859,5.718c4.679,8.579 9.358,17.157 14.557,25.475c17.156,28.074 30.413,54.328 24.175,88.641c-4.419,13.517 -13.257,25.214 -25.735,31.973c-23.135,9.358 -41.591,6.239 -64.726,-2.859c-23.135,-11.178 -51.729,-30.154 -61.867,-54.849c-2.079,-7.798 -2.339,-14.556 -2.079,-22.615l-0,-8.058c-0,-2.08 -0,-3.899 0.26,-5.979c3.639,3.38 7.018,7.019 10.658,10.658c1.299,1.3 2.599,2.34 3.899,3.639c8.838,9.098 12.997,16.637 15.596,29.114c4.679,12.737 13.257,19.236 24.955,24.955c1.56,0.779 2.859,1.299 4.419,2.079c2.08,1.04 2.08,1.04 4.419,2.08c18.196,8.838 36.132,13.777 55.888,7.798c12.217,-5.199 18.456,-14.817 24.955,-26.254c5.978,-19.236 1.559,-30.674 -7.279,-47.83c-6.238,-11.438 -12.997,-22.615 -20.015,-33.533c-21.316,-35.612 -36.653,-73.304 -33.533,-115.675c-0,-4.419 -0,-4.419 -3.38,-7.798c-4.938,-3.899 -10.397,-5.199 -16.376,-7.019c-0.78,-1.3 -1.3,-2.859 -2.08,-4.159c0.78,-2.859 2.08,-6.499 3.64,-10.138Z" style="fill:#cc9643;fill-rule:nonzero;"/><path d="M1118.25,681.53c1.82,0.519 3.639,1.299 5.459,1.819c1.82,0.52 3.639,1.3 5.459,1.82c5.199,2.339 9.098,5.199 13.517,8.578c-2.34,5.459 -3.899,8.318 -8.838,11.697c-1.3,1.04 -2.6,2.08 -3.899,3.12l-0,8.578c1.04,-1.04 2.339,-2.08 3.379,-3.119c1.56,-1.3 3.119,-2.6 4.419,-4.159c1.56,-1.3 2.859,-2.6 4.419,-3.9c11.698,-9.358 23.915,-10.397 38.472,-10.137c7.538,1.819 14.557,4.159 21.315,8.578c1.04,3.119 1.04,3.119 2.08,6.498l6.498,0c-2.079,4.159 -2.079,4.159 -8.838,7.279c-9.618,4.419 -17.416,10.657 -25.734,17.156c-1.3,1.04 -2.6,2.08 -3.899,3.119c-6.759,5.459 -12.998,10.918 -18.976,17.157c-3.639,-1.3 -3.639,-1.3 -7.539,-2.6c-1.819,-0.52 -3.379,-1.04 -5.199,-1.819c-4.679,-1.56 -9.098,-3.12 -13.777,-4.679c-17.416,-5.979 -33.792,-10.138 -51.988,-12.218c0.779,-11.437 7.538,-18.976 14.297,-27.814c1.559,-2.339 1.559,-2.339 3.379,-4.679c16.116,-20.795 16.116,-20.795 25.994,-20.275Z" style="fill:#4b2f12;fill-rule:nonzero;"/><path d="M1022.33,91.976c18.456,19.236 27.554,46.53 27.814,72.525c-0.52,19.495 -10.138,29.113 -23.655,42.111c-32.233,27.294 -74.084,42.63 -116.195,41.851c-16.637,-1.82 -29.374,-9.878 -40.551,-22.096c-16.377,-21.575 -23.135,-47.829 -20.276,-74.344c3.639,-18.976 16.636,-33.273 31.973,-44.71c10.918,-6.759 22.355,-11.958 34.053,-16.896c2.859,-1.3 2.859,-1.3 5.978,-2.6c31.454,-13.257 73.045,-19.756 100.859,4.159Zm-148.168,31.973c-1.04,1.56 -2.34,3.12 -3.64,4.939c7.019,4.679 12.738,6.239 21.056,8.318c54.068,14.037 54.068,14.037 66.026,25.735c2.079,0.78 4.159,1.56 6.238,2.599c16.637,7.019 31.714,16.897 43.671,30.414c3.639,3.379 7.278,5.459 11.698,7.278c3.119,-2.859 6.238,-5.978 9.357,-8.838c1.82,-1.559 3.38,-3.379 5.199,-4.939c9.358,-10.657 9.878,-20.535 9.618,-34.312c-2.079,-21.576 -9.358,-38.212 -23.915,-53.809c-1.559,-1.819 -1.559,-1.819 -3.379,-3.899c-8.318,-9.098 -15.077,-12.737 -27.294,-13.777c-38.732,-0.78 -88.381,9.358 -114.635,40.291Zm-13.517,17.157c-8.059,14.037 -6.499,31.193 -2.86,46.53c8.058,23.915 18.196,39.251 40.551,51.729c31.454,10.397 66.286,-4.679 94.88,-17.677c5.719,-2.859 10.658,-5.718 15.597,-9.878c-7.799,-22.355 -30.154,-34.832 -50.169,-45.23c-50.17,-25.214 -50.17,-25.214 -97.999,-25.474Z" style="fill:#030303;fill-rule:nonzero;"/><path d="M1459.29,1006.46c7.798,6.498 12.477,17.156 14.297,26.774c2.079,22.615 -2.34,48.87 -14.557,68.105c-4.419,5.199 -6.239,6.759 -12.997,7.539c-9.098,0.26 -14.817,0.52 -22.875,-4.159c-11.698,-18.716 -12.478,-41.071 -8.578,-62.387c2.859,-7.278 2.859,-7.278 6.498,-12.737c0.78,-2.08 1.56,-4.419 2.34,-6.499c7.278,-11.177 22.095,-18.716 35.872,-16.636Z" style="fill:#623c16;fill-rule:nonzero;"/><path d="M1452.8,876.748c3.64,10.397 7.279,20.535 10.918,30.933c1.82,5.199 3.639,10.138 5.459,15.337c7.018,20.015 11.957,38.212 10.918,60.047c-0.52,12.477 0.519,21.055 5.718,32.493c6.759,16.636 5.979,32.493 4.679,50.169c-1.039,11.178 -1.039,11.178 3.38,20.796c3.899,2.599 3.899,2.599 9.877,5.198c-1.299,3.38 -2.859,7.019 -4.159,10.658l-4.159,0c-0.26,1.3 -0.26,2.34 -0.52,3.639c-2.339,6.759 -5.978,10.138 -10.917,15.077c-1.56,1.82 -3.38,3.379 -5.199,5.199c-4.679,3.899 -4.679,3.899 -11.178,3.899c-0.78,2.08 -1.3,4.159 -2.079,6.499l-6.499,-0c-0.78,2.079 -1.3,4.159 -2.08,6.498l-6.498,0c-1.3,2.86 -2.859,5.719 -4.159,8.579l-4.159,-0c-0,-25.475 -0,-25.475 8.058,-33.533c3.379,-2.34 3.379,-2.34 7.018,-4.679c15.857,-18.716 22.096,-47.31 21.576,-71.485c-1.04,-13.257 -5.459,-23.135 -13.777,-33.273c-3.38,-4.159 -3.38,-4.159 -5.719,-8.058c1.3,-5.979 1.3,-5.979 4.159,-10.658c7.279,-22.095 0,-45.49 -9.358,-65.766c-6.498,-12.217 -13.777,-23.395 -22.615,-34.052c2.339,-2.08 4.679,-4.159 7.018,-6.499c1.3,-1.3 2.6,-2.339 3.9,-3.639c4.159,-3.379 4.159,-3.379 10.397,-3.379Z" style="fill:#347137;fill-rule:nonzero;"/><path d="M732.49,252.102c11.438,8.578 21.835,20.016 25.475,34.053c1.299,15.076 1.039,28.333 -4.159,42.37c-1.82,-1.559 -3.64,-3.379 -5.459,-4.939c-26.255,-22.355 -61.607,-49.129 -96.44,-54.328c0.26,-3.639 0.26,-3.639 2.08,-8.578c4.939,-3.899 4.939,-3.899 10.918,-7.798c2.079,-1.3 3.899,-2.6 5.978,-3.9c21.056,-11.177 40.812,-7.538 61.607,3.12Z" style="fill:#636469;fill-rule:nonzero;"/><path d="M692.199,1558.84c1.04,3.12 1.04,3.12 2.079,6.499l-4.159,-0c1.04,3.119 1.04,3.119 2.08,6.498l-4.159,0l-0,14.817l-4.159,0c-0.26,2.34 -0.26,2.34 -0.78,4.939c-2.86,18.976 -6.239,37.952 -9.878,56.668c-15.337,2.08 -30.934,4.159 -46.79,6.499c-7.279,-14.817 1.3,-31.454 6.239,-46.53c7.798,-21.576 19.235,-34.573 39.771,-44.711c2.599,-1.04 2.599,-1.04 4.939,-2.339c5.199,-2.86 9.098,-2.34 14.817,-2.34Z" style="fill:#828282;fill-rule:nonzero;"/><path d="M1112.01,766.271c11.697,9.878 18.456,23.655 24.174,37.432c3.12,7.279 7.019,14.557 10.658,21.576c2.08,4.679 2.08,4.679 2.08,10.917c-2.08,2.08 -2.08,2.08 -4.159,4.159c-10.918,-10.917 -17.157,-23.135 -23.915,-36.912c-3.899,-8.318 -3.899,-8.318 -9.358,-15.336c-2.86,-2.86 -2.86,-2.86 -2.86,-7.279c-3.379,-0.78 -7.018,-1.299 -10.657,-2.079l-0,-4.159c-1.3,0.779 -2.86,1.299 -4.16,2.079c-3.119,0.26 -6.238,0.52 -9.098,0.78c-8.318,0.78 -14.037,2.339 -20.535,7.798c-0.78,2.08 -1.3,4.159 -2.08,6.499c-4.159,2.859 -8.578,5.719 -12.737,8.578c-4.939,4.679 -9.618,9.358 -13.777,14.557c-15.337,18.976 -34.313,30.153 -58.487,34.313l-6.499,-0l-0,4.159l-12.737,-0l-0,-4.159l-27.554,-0l-0,4.159c-1.3,0.52 -2.6,1.039 -3.9,1.559c-12.737,5.199 -22.875,10.138 -28.333,23.395c-0.52,1.56 -1.04,3.12 -1.82,4.679c-2.08,1.04 -2.08,1.04 -4.159,2.08c-1.56,-3.379 -1.56,-3.379 -2.08,-8.578c6.239,-14.297 16.117,-25.475 30.414,-31.973c10.917,-3.38 21.835,-4.419 33.273,-5.459c18.976,-1.56 33.012,-4.159 48.869,-15.597c1.56,-1.04 3.119,-2.339 4.939,-3.379c14.037,-10.398 27.034,-22.615 39.771,-34.573c18.197,-17.156 39.772,-28.854 64.727,-19.236Z" style="fill:#f9dea8;fill-rule:nonzero;"/><path d="M728.331,243.524c1.82,0.779 3.639,1.299 5.459,2.079c14.297,6.759 21.835,17.936 28.594,31.973c8.838,32.493 -3.38,63.427 -18.976,91.501c-15.337,26.254 -35.873,57.707 -66.026,67.845c-31.713,2.86 -54.068,-5.459 -79.543,-24.695c-10.398,-9.877 -16.376,-19.755 -16.896,-34.052c0.26,-28.594 17.416,-57.968 32.753,-81.363c2.079,-1.3 4.159,-2.859 6.498,-4.159c0.78,-2.079 1.3,-4.159 2.08,-6.498c2.079,-0.78 4.159,-1.3 6.498,-2.08c0.52,-1.56 1.3,-3.379 1.82,-4.939c3.119,-7.018 6.499,-8.058 12.997,-11.957c2.08,-3.64 4.159,-7.019 6.499,-10.658c4.159,-2.34 4.159,-2.34 8.578,-4.159c1.04,-1.3 2.339,-2.6 3.379,-3.899c20.016,-18.976 42.631,-14.297 66.286,-4.939Zm-96.959,40.291c-21.056,26.254 -45.23,62.906 -43.931,97.479c1.56,13.777 10.398,21.575 20.276,30.154c21.315,15.596 41.331,21.055 67.325,18.976c15.337,-4.42 22.876,-12.218 32.753,-24.175c3.38,-3.64 3.38,-3.64 7.799,-5.719c5.978,-3.119 8.058,-7.538 10.397,-13.517c2.34,-5.459 4.939,-10.138 8.059,-15.077c16.896,-27.554 27.554,-53.288 23.915,-86.041c-2.34,-7.539 -5.979,-12.998 -10.658,-19.236c-1.04,-1.3 -1.82,-2.6 -2.859,-4.159c-10.918,-13.258 -27.815,-17.417 -43.931,-21.316c-28.594,-2.079 -51.729,22.875 -69.145,42.631Z" style="fill:#030303;fill-rule:nonzero;"/><path d="M1338.16,680.49l11.697,-0c11.178,-0 19.236,0.78 28.854,7.018c30.414,31.713 37.172,103.458 36.912,144.789c-0.26,11.438 -0.26,11.438 -2.859,16.637l-4.159,-0l-0,-4.159l-6.499,-0c-2.859,-3.38 -5.718,-7.019 -8.578,-10.658c-3.379,-2.86 -7.018,-5.719 -10.658,-8.578c0.52,-2.08 1.3,-4.159 1.82,-6.499c8.838,-32.493 12.997,-63.166 -3.899,-93.32c-15.857,-23.395 -35.093,-32.493 -61.607,-40.291c5.979,-5.979 10.658,-4.679 18.976,-4.939Z" style="fill:#3a823e;fill-rule:nonzero;"/><path d="M1072.5,740.797c15.597,0.26 29.894,2.859 44.71,7.278c1.56,0.52 3.12,1.04 4.679,1.3c7.019,2.08 12.478,4.159 18.456,8.318l0,4.159c1.3,0.78 2.86,1.3 4.16,2.08c-0.78,4.159 -1.3,8.318 -2.08,12.737l4.159,0c2.08,4.159 4.159,8.318 6.499,12.737c15.336,2.34 26.254,-7.278 37.952,-15.596c9.618,-7.539 16.636,-16.897 23.914,-26.774c3.9,-4.42 3.9,-4.42 10.138,-6.499c1.04,18.976 1.04,18.976 -6.498,27.554c-2.86,0.78 -5.719,1.56 -8.578,2.08c-0.78,1.299 -1.3,2.859 -2.08,4.159c-0.78,1.299 -1.3,2.859 -2.08,4.159c-1.299,0.26 -2.599,0.52 -3.899,1.04c-5.459,1.299 -7.538,3.379 -11.437,7.018c-1.3,1.3 -2.34,2.34 -3.64,3.639c-1.299,1.3 -2.599,2.6 -3.639,3.899c-1.819,1.82 -1.819,1.82 -3.899,3.64c-1.3,1.299 -2.339,2.339 -3.639,3.639c-1.04,1.04 -2.08,2.339 -3.379,3.379c-2.86,3.379 -2.86,3.379 -3.64,7.798c-0.26,1.3 -0.779,2.6 -1.039,4.16c-6.499,3.639 -6.499,3.639 -12.738,6.498c-8.838,-6.758 -11.957,-13.257 -15.856,-23.915c-5.459,-15.336 -10.918,-29.113 -25.475,-37.692c-10.657,-2.859 -20.795,-4.159 -31.973,-4.159c-5.459,0 -5.459,0 -9.878,-2.079c-1.819,-9.358 -1.819,-9.358 0.78,-14.557Z" style="fill:#799c56;fill-rule:nonzero;"/><path d="M1414.58,681.27l6.498,-0c2.08,4.159 2.08,4.159 1.56,11.437c-0,8.058 1.819,13.777 5.459,21.056c6.758,15.596 10.397,31.453 14.297,48.089c12.737,55.109 31.973,84.742 80.062,116.195c5.979,3.9 11.698,7.799 17.157,12.218c4.679,3.639 7.538,4.939 13.257,5.719c-1.04,4.159 -1.04,4.159 -2.08,8.578c-1.559,-1.04 -3.119,-2.08 -4.679,-2.86c-14.297,-8.838 -28.594,-16.896 -43.41,-24.694c-15.597,-8.059 -29.894,-16.377 -43.411,-27.554c-2.34,-1.82 -2.34,-1.82 -4.419,-3.64c-20.276,-18.196 -20.016,-49.649 -23.655,-75.124c-3.379,-23.135 -7.798,-45.23 -14.297,-67.845c-1.56,-6.499 -3.119,-12.737 -4.159,-19.236c0.52,-1.04 1.04,-1.56 1.82,-2.339Z" style="fill:#377438;fill-rule:nonzero;"/><path d="M1316.85,910.8c20.535,7.799 35.092,40.552 44.71,59.528c7.278,16.896 10.138,36.652 3.639,54.068c-1.3,1.82 -2.339,3.379 -3.639,5.199c-1.04,1.56 -2.08,3.379 -3.379,4.939c-1.04,1.04 -2.08,2.339 -3.12,3.379l-4.159,0c-3.639,-7.018 -3.379,-15.077 -4.159,-22.875c-1.04,-10.918 -2.339,-21.575 -4.159,-32.493l-4.159,-0c-8.058,-15.337 -8.058,-15.337 -10.138,-23.135c-4.939,-12.997 -14.557,-24.175 -25.994,-31.973c2.859,-7.799 7.798,-11.698 14.557,-16.637Z" style="fill:#f9e0ad;fill-rule:nonzero;"/><path d="M964.1,1408.07c-0.779,1.039 -1.559,1.819 -2.599,2.859c-2.34,2.599 -4.679,5.459 -6.759,8.058c-2.599,3.12 -5.458,6.239 -8.318,9.358c-4.419,6.759 -5.199,12.218 -5.719,20.276l4.159,-0l0,4.159c1.56,0.26 2.86,0.52 4.42,0.78c6.238,1.3 6.238,1.3 11.697,3.379c8.318,2.599 16.896,3.899 25.475,5.199c5.198,1.3 5.198,1.3 9.358,5.459c-6.759,1.559 -13.258,2.859 -20.016,4.159c-2.86,0.52 -2.86,0.52 -5.719,1.3c-12.217,2.599 -23.395,3.379 -35.872,3.119c-2.34,-7.019 -2.34,-8.058 1.04,-15.337c1.039,-1.819 2.079,-3.899 3.379,-5.719l-6.499,0c-2.079,7.019 -4.159,14.037 -6.498,21.316c-6.239,-0.78 -12.738,-1.3 -19.236,-2.08c-2.08,-6.498 -2.6,-9.618 0.52,-15.856c3.899,-5.459 8.058,-10.658 12.217,-15.857c-5.459,1.56 -5.459,1.56 -10.658,4.159c-1.559,4.419 -1.559,4.419 -2.079,8.578c-1.3,0.78 -2.86,1.3 -4.159,2.08l-0,6.499l-4.159,-0c0.259,-3.12 0.519,-6.239 0.779,-9.358c0,-1.82 0.26,-3.38 0.52,-5.199c0.52,-2.08 0.52,-2.08 0.78,-4.419c1.3,-0.78 2.859,-1.3 4.159,-2.08c1.3,-2.859 2.86,-5.719 4.159,-8.578c13.777,-17.676 34.053,-30.673 55.628,-26.254Z" style="fill:#799b55;fill-rule:nonzero;"/><path d="M672.963,1720.27c3.379,6.238 5.199,11.697 6.498,18.715c0.26,1.82 0.78,3.64 1.04,5.719c0.26,2.08 0.78,3.899 1.04,5.979c0.52,2.08 0.78,3.899 1.3,5.979c1.04,4.939 1.819,9.878 2.859,14.557c-13.257,0.26 -25.474,-0.78 -38.472,-3.12c-1.559,-0.26 -3.379,-0.52 -4.939,-1.04c-3.899,-0.779 -7.798,-1.559 -11.957,-2.339l0,-4.159l-4.159,-0c-0.78,-5.199 -1.82,-10.398 -2.6,-15.597c-0.259,-1.559 -0.519,-2.859 -0.779,-4.419c-1.56,-10.918 -1.56,-10.918 1.559,-16.116c4.679,-2.6 8.059,-3.38 13.517,-3.64c1.82,0 3.64,-0.26 5.719,-0.519l29.374,-0Z" style="fill:#828282;fill-rule:nonzero;"/><path d="M719.753,779.009c7.538,7.538 6.758,17.676 7.018,28.074c0,16.116 -3.639,29.893 -11.177,44.19l-4.159,0c-0.26,1.3 -0.52,2.6 -0.78,3.899c-1.82,5.459 -3.379,7.539 -7.799,10.918l-6.498,-0l-0,4.159c-48.09,26.254 -106.577,37.952 -160.646,23.915c-4.679,-1.56 -9.098,-3.119 -13.777,-4.939c-2.339,-0.78 -4.419,-1.56 -6.758,-2.599c-21.056,-8.319 -38.732,-17.417 -52.769,-35.873c1.3,-1.299 2.859,-2.859 4.159,-4.159c0.78,1.04 1.82,2.34 2.86,3.379c1.819,2.34 1.819,2.34 3.639,4.419c1.3,1.56 2.339,2.86 3.639,4.42c28.074,27.034 81.882,31.193 119.054,30.933c37.692,-1.04 74.344,-11.178 102.159,-37.952c14.556,-16.636 21.835,-34.573 25.994,-56.408l-4.159,0l-0,-16.376Z" style="fill:#5f3a14;fill-rule:nonzero;"/><path d="M804.755,205.312c4.159,8.058 8.318,15.856 12.737,23.915c1.819,3.379 1.819,3.379 3.639,6.758c1.04,2.08 2.34,4.419 3.379,6.499c1.04,2.079 2.08,3.899 3.12,5.979c2.599,5.458 2.599,5.458 4.679,14.037c-8.319,4.159 -16.897,8.318 -25.475,12.737c-0.78,-2.08 -1.3,-4.159 -2.079,-6.499l-4.16,0c-3.119,-4.419 -3.119,-4.419 -6.758,-10.398c-7.019,-11.177 -14.557,-21.835 -22.875,-31.973c8.058,-11.957 18.716,-21.055 33.793,-21.055Z" style="fill:#7b481d;fill-rule:nonzero;"/><path d="M849.465,296.552c4.939,2.08 9.878,4.159 14.817,6.499c5.978,1.56 5.978,1.56 10.657,2.079l0,4.16l6.499,-0c-0.78,1.299 -1.3,2.859 -2.079,4.159c-1.82,0.52 -3.38,1.039 -5.199,1.819c-9.618,3.12 -17.936,7.799 -26.515,12.997c-1.559,1.04 -3.379,1.82 -4.939,2.86c-7.278,4.159 -14.556,8.318 -21.315,12.997c-5.459,3.639 -5.459,3.639 -9.618,3.639c-0.78,2.08 -1.3,4.159 -2.079,6.499c-4.16,-12.997 -3.12,-27.294 -0,-40.291c5.458,-6.499 11.437,-9.358 19.235,-12.738c1.82,-1.299 3.9,-2.599 5.719,-4.159c5.719,-3.379 8.058,-2.599 14.817,-0.52Z" style="fill:#cb9644;fill-rule:nonzero;"/><path d="M1015.31,72.48c16.377,12.478 28.854,24.695 37.952,43.411c0.78,1.56 1.56,3.119 2.34,4.679c2.599,8.318 2.339,16.377 2.339,24.955l0,5.199c0,9.098 -0.52,16.376 -4.939,24.694l-2.079,0c-0.26,-2.599 -0.52,-4.939 -0.78,-7.538c-3.379,-28.594 -10.918,-59.267 -33.793,-79.023c-18.976,-12.737 -38.992,-11.438 -60.567,-7.798c-5.979,0.779 -11.437,1.299 -17.676,1.039c16.376,-18.716 56.928,-22.095 77.203,-9.618Z" style="fill:#623c16;fill-rule:nonzero;"/><path d="M1393.27,847.114c9.358,3.899 12.477,9.358 17.156,18.196c3.12,7.798 2.86,13.777 2.08,22.355c-1.82,0.78 -3.639,1.56 -5.459,2.34c-14.817,6.498 -28.334,13.517 -41.331,23.135l0,-4.159c-2.079,-0.78 -4.159,-1.3 -6.499,-2.08c-1.819,-4.159 -1.819,-4.159 -2.079,-10.658c5.459,-10.137 14.037,-18.456 21.575,-26.774c6.499,-7.538 11.178,-13.777 14.557,-22.355Z" style="fill:#623c16;fill-rule:nonzero;"/><path d="M1204.29,706.744l-0,4.159l6.498,0c-2.599,5.199 -4.419,5.719 -9.878,8.059c-6.238,2.859 -11.177,6.238 -16.636,10.657c-5.979,4.419 -9.878,5.459 -17.156,4.939c-10.138,-1.819 -15.337,-5.199 -22.096,-12.997c-2.079,-4.939 -3.119,-9.358 -4.159,-14.817c21.836,-13.777 40.812,-12.737 63.427,0Z" style="fill:#613b15;fill-rule:nonzero;"/><path d="M731.45,238.325c3.899,3.119 7.799,5.978 11.698,9.358c-0.78,1.299 -1.3,2.859 -2.08,4.159c-1.559,-0.78 -3.119,-1.56 -4.679,-2.08c-25.994,-12.477 -25.994,-12.477 -54.068,-10.917c-8.838,3.379 -15.857,5.978 -22.095,13.257c-4.16,4.159 -4.16,4.159 -8.579,5.979c-4.679,2.079 -4.679,2.079 -6.238,6.498c-2.34,4.419 -2.34,4.419 -7.539,7.539c-6.498,3.899 -7.018,7.018 -9.618,14.037c-2.079,0.779 -4.159,1.299 -6.498,2.079c-1.56,4.159 -1.56,4.159 -2.08,8.578l-4.159,0c-5.719,9.878 -11.177,19.756 -16.896,29.634l-2.08,-0c1.3,-30.414 28.334,-59.527 48.87,-79.803c26.254,-21.835 56.668,-27.294 86.041,-8.318Z" style="fill:#5f3a14;fill-rule:nonzero;"/><path d="M1195.71,1153.07c0.779,1.3 1.299,2.86 2.079,4.159c-1.819,4.939 -1.819,4.939 -4.679,11.178c-10.658,24.435 -17.936,49.649 -19.236,76.424c0,1.559 0,3.119 -0.26,4.679c0,3.119 -0.26,5.978 -0.26,9.098c0,4.159 0,4.159 -1.299,11.177c-5.459,4.419 -10.658,4.679 -17.417,4.419c-2.599,0 -5.198,-0.26 -8.058,-0.26c0.52,-1.039 1.04,-2.079 1.56,-3.119c5.979,-12.997 8.578,-25.994 11.177,-40.291c5.199,-28.334 14.817,-56.928 36.393,-77.464Z" style="fill:#e3ad59;fill-rule:nonzero;"/><path d="M787.858,133.047c2.86,8.319 0.52,13.777 -2.079,21.576c-0.52,1.299 -0.78,2.859 -1.3,4.159c-1.04,3.379 -2.08,6.758 -3.119,10.138c-11.438,-3.64 -22.616,-7.799 -33.793,-11.958c-1.82,-0.78 -3.639,-1.299 -5.719,-2.079c-4.679,-1.82 -9.098,-3.38 -13.777,-5.199c0.78,-2.08 1.3,-4.159 2.08,-6.499c3.639,-1.819 3.639,-1.819 8.318,-2.859c1.819,-0.52 3.379,-1.04 5.199,-1.3c1.819,-0.52 3.639,-1.04 5.459,-1.3c1.819,-0.52 3.639,-1.039 5.458,-1.559c11.698,-2.6 21.576,-3.64 33.273,-3.12Z" style="fill:#cf2727;fill-rule:nonzero;"/><path d="M914.451,812.541c2.08,0 4.159,0 6.239,-0.259c1.819,0.259 3.379,0.519 5.199,0.779c4.159,6.499 4.159,6.499 3.639,11.178c-4.159,11.437 -7.539,17.416 -18.456,22.615c-3.38,1.3 -7.019,2.859 -10.398,4.159c-2.08,1.3 -4.159,2.86 -6.499,4.159c-6.498,-4.159 -6.498,-4.159 -8.318,-11.697c-1.04,-10.398 2.08,-20.016 8.318,-28.594c6.499,-2.34 13.258,-2.34 20.276,-2.34Z" style="fill:#4d3012;fill-rule:nonzero;"/><path d="M1457.21,700.246c11.698,3.379 18.976,11.177 27.555,19.235c1.299,1.04 2.599,2.34 4.159,3.64c34.832,31.713 59.267,90.2 61.866,136.73c-4.419,-4.419 -5.458,-6.498 -7.278,-12.477c-0.78,-2.34 -0.78,-2.34 -1.56,-4.939c-0.52,-1.82 -1.04,-3.379 -1.559,-5.199c-7.279,-23.655 -7.279,-23.655 -17.677,-46.01c-2.859,-5.199 -5.978,-10.398 -8.578,-15.597c-12.477,-23.914 -28.334,-43.41 -47.05,-62.906c-5.718,-5.979 -5.718,-5.979 -9.878,-12.477Z" style="fill:#377438;fill-rule:nonzero;"/><path d="M1414.58,895.984c11.437,-1.04 11.437,-1.04 17.416,3.379c13.257,15.856 27.034,34.052 25.214,56.148c-1.299,1.299 -2.859,2.859 -4.159,4.159l-8.578,-0c-1.04,-2.34 -2.339,-4.679 -3.379,-7.019c-1.56,-3.119 -3.119,-6.238 -4.419,-9.098c-0.78,-1.559 -1.56,-3.119 -2.08,-4.419c-3.639,-7.538 -7.798,-14.557 -12.737,-21.315c-5.979,-8.318 -6.759,-12.477 -7.278,-21.835Z" style="fill:#79471d;fill-rule:nonzero;"/><path d="M1072.5,740.797c15.597,0.26 29.894,2.859 44.71,7.278c1.56,0.52 3.12,1.04 4.679,1.3c7.019,2.08 12.478,4.159 18.456,8.318l0,4.159c1.3,0.78 2.86,1.3 4.16,2.08c-2.86,4.939 -5.719,9.878 -8.579,14.817c-11.957,-7.539 -11.957,-7.539 -16.636,-12.997c-10.658,-9.358 -24.955,-8.579 -38.212,-8.059c-4.419,0 -4.419,0 -8.838,-2.079c-2.339,-9.618 -2.339,-9.618 0.26,-14.817Z" style="fill:#86ad63;fill-rule:nonzero;"/><path d="M1355.06,643.058c3.9,1.56 3.9,1.56 8.579,4.159c1.559,3.379 2.859,7.018 4.159,10.658l-3.64,-0c-37.951,1.039 -73.304,5.199 -109.956,15.596c-11.957,3.38 -22.615,4.419 -35.092,3.38c0.779,-1.3 1.299,-2.86 2.079,-4.16c5.979,-1.299 11.698,-2.599 17.936,-3.639c18.196,-3.379 36.133,-7.798 54.069,-12.737c18.456,-4.939 35.612,-8.578 54.848,-8.838c1.819,-0 3.379,-0.26 5.199,-0.26c0.52,-1.3 1.299,-2.859 1.819,-4.159Z" style="fill:#377438;fill-rule:nonzero;"/><path d="M942.785,1448.37c0.78,1.3 1.3,2.859 2.079,4.159c3.64,0.78 7.019,1.56 10.658,2.08c2.86,1.039 2.86,1.039 5.459,2.079c8.318,2.6 16.896,3.899 25.475,5.199c5.198,1.3 5.198,1.3 9.358,5.459c-6.759,1.559 -13.258,2.859 -20.016,4.159c-2.86,0.52 -2.86,0.52 -5.719,1.3c-12.217,2.599 -23.395,3.379 -35.872,3.119c-2.08,-6.759 -2.34,-8.058 0.78,-15.077c2.599,-4.159 5.198,-8.318 7.798,-12.477Z" style="fill:#7c9e56;fill-rule:nonzero;"/><path d="M832.829,301.231c5.978,2.6 8.838,7.279 12.477,12.218c-3.119,9.098 -8.838,11.957 -16.897,16.376c-2.339,1.3 -4.419,2.6 -7.018,3.899c-5.719,2.86 -5.719,2.86 -10.138,2.86c-2.599,-8.059 -4.679,-15.077 -2.079,-23.395c6.238,-5.979 14.037,-12.738 23.655,-11.958Z" style="fill:#e3ad59;fill-rule:nonzero;"/><path d="M1117.99,681.79c9.618,2.859 16.897,5.718 24.695,12.217c-3.379,8.318 -7.798,13.777 -14.817,19.236c-8.058,0.26 -12.737,-0 -18.716,-5.719c-2.859,-5.719 -4.939,-11.438 -6.758,-17.676c4.679,-5.719 7.798,-8.838 15.596,-8.058Z" style="fill:#623c16;fill-rule:nonzero;"/><path d="M844.006,407.029c6.499,5.198 9.878,9.617 13.777,16.896c0.52,8.318 0.52,8.318 0,14.817c-4.419,1.819 -4.419,1.819 -10.658,2.079c-6.758,-4.419 -13.257,-9.618 -16.896,-16.896l0,-14.817c5.719,-3.899 7.279,-4.679 13.777,-2.079Z" style="fill:#fbfeff;fill-rule:nonzero;"/><path d="M1304.11,621.742l0,4.16c-12.477,-1.04 -24.954,-2.34 -37.432,-4.42c-29.113,-4.159 -58.747,-2.079 -88.121,0l0,-4.159c40.552,-9.098 86.042,-8.838 125.553,4.419Z" style="fill:#377539;fill-rule:nonzero;"/><path d="M1416.66,1125.25c9.098,3.12 9.098,3.12 12.737,8.578c-0.26,11.438 -3.639,18.716 -10.657,27.555c-6.499,4.159 -6.499,4.159 -10.918,3.379c-1.82,-0.52 -1.82,-0.52 -3.899,-1.3c-2.34,-7.018 -2.34,-10.138 0.52,-17.156c3.639,-5.979 7.538,-9.878 12.217,-14.817l0,-6.239Z" style="fill:#613b15;fill-rule:nonzero;"/><path d="M1134.1,647.217c7.018,2.599 13.517,5.719 20.016,9.358c15.856,8.058 33.532,13.517 51.468,15.337c7.539,1.039 8.579,1.819 13.518,7.278c-21.836,-1.56 -42.371,-4.679 -63.687,-10.398c-2.079,-0.52 -4.159,-1.039 -6.238,-1.559c-15.597,-4.419 -15.597,-4.419 -21.576,-11.178c2.34,-3.119 4.419,-5.979 6.499,-8.838Z" style="fill:#377438;fill-rule:nonzero;"/><path d="M1389.11,800.324l4.159,0c0.78,2.08 1.56,4.159 2.6,6.239c1.039,2.859 2.339,5.459 3.379,8.318c0.52,1.3 1.04,2.859 1.56,4.159c2.599,6.239 4.159,10.138 9.877,14.037c1.3,0.26 2.6,0.78 3.9,1.04c-0.78,4.939 -1.3,9.878 -2.08,14.817l-4.159,-0l-0,-4.159l-6.499,-0c-2.859,-3.38 -5.718,-7.019 -8.578,-10.658c-3.379,-2.86 -7.018,-5.719 -10.658,-8.578c2.34,-8.319 4.42,-16.637 6.499,-25.215Z" style="fill:#377438;fill-rule:nonzero;"/><path d="M1452.8,702.585c16.897,2.6 30.414,23.915 40.292,36.652c10.398,14.297 20.275,29.114 25.474,46.27c-8.838,-3.119 -11.177,-8.058 -15.596,-16.116c-12.218,-21.836 -28.594,-41.331 -46.79,-58.748c-3.38,-3.899 -3.38,-3.899 -3.38,-8.058Z" style="fill:#86ad63;fill-rule:nonzero;"/><path d="M1533.64,929.776c15.337,15.077 15.337,15.077 15.597,28.334l-0,8.838c-0.26,13.517 -2.86,26.255 -7.019,39.252l-2.079,-0c-0.78,-2.86 -1.56,-5.459 -2.34,-8.318c-0.52,-1.56 -0.78,-3.12 -1.3,-4.679c-0.779,-4.159 -0.779,-4.159 1.3,-8.319c1.04,-17.676 0.26,-34.052 -4.159,-50.949l0,-4.159Z" style="fill:#377438;fill-rule:nonzero;"/><path d="M821.911,276.537c4.419,3.379 7.538,6.498 10.398,11.437c-2.6,7.798 -4.679,8.318 -11.958,11.958c-2.599,1.299 -2.599,1.299 -5.199,2.859c-1.299,0.78 -2.599,1.3 -4.159,2.079c-4.419,-8.058 -5.459,-14.037 -4.159,-23.394c5.459,-4.679 8.058,-6.759 15.077,-4.939Z" style="fill:#fbfeff;fill-rule:nonzero;"/><path d="M893.915,815.141c6.759,2.859 8.579,4.159 12.738,10.658c-0.26,7.538 -1.3,11.697 -5.719,17.936c-4.679,3.379 -4.679,3.379 -10.658,2.859c-1.559,-0.52 -3.119,-1.04 -4.679,-1.56c1.04,-11.697 2.6,-19.755 8.318,-29.893Z" style="fill:#613b15;fill-rule:nonzero;"/><path d="M1450.72,1025.44c4.159,0.78 4.159,0.78 8.578,2.079c3.119,6.239 2.339,11.438 2.339,18.196l0,13.777c-4.159,2.08 -4.159,2.08 -8.578,4.16c-4.159,-4.16 -4.159,-4.16 -4.679,-11.438l0,-13.257c0,-10.918 0,-10.918 2.34,-13.517Z" style="fill:#7b481d;fill-rule:nonzero;"/><path d="M719.753,1070.15c7.018,4.679 7.018,5.199 9.358,12.737c5.979,14.817 18.976,24.175 30.933,34.053c-2.079,0.78 -4.159,1.3 -6.498,2.08c-12.738,-6.499 -25.995,-16.117 -31.974,-29.634c-1.039,-6.499 -1.559,-12.737 -1.819,-19.236Z" style="fill:#030303;fill-rule:nonzero;"/><path d="M656.066,305.13l6.499,0c2.34,19.756 4.679,39.512 6.499,59.528l-4.159,-0l-0,-4.159l-4.16,-0c-1.819,-18.456 -3.379,-36.653 -4.679,-55.369Z" style="fill:#fbfeff;fill-rule:nonzero;"/><path d="M1232.88,617.323l17.936,0l-0,4.159c1.299,0.78 2.859,1.3 4.159,2.08c-20.276,0.78 -40.551,1.3 -61.607,2.08c0.78,-2.08 1.3,-4.16 2.08,-6.499c12.737,-1.3 24.954,-1.82 37.432,-1.82Z" style="fill:#86ad63;fill-rule:nonzero;"/><path d="M1040.52,303.051c6.499,0.52 9.618,1.3 14.557,5.719c2.859,5.458 3.119,9.098 2.599,15.336c-3.639,1.56 -3.639,1.56 -8.578,2.08c-5.719,-3.379 -5.719,-3.379 -10.658,-8.578c-0.779,-6.759 -0.779,-6.759 0,-12.738c0.78,-0.519 1.56,-1.039 2.08,-1.819Z" style="fill:#fbfeff;fill-rule:nonzero;"/><path d="M1529.48,936.275l4.159,-0c7.798,15.597 8.058,31.713 6.499,48.869c-1.3,1.3 -2.86,2.86 -4.159,4.159c-4.16,-4.159 -2.86,-12.477 -3.12,-18.196c-1.04,-11.697 -1.819,-23.135 -3.379,-34.832Z" style="fill:#86ad63;fill-rule:nonzero;"/><path d="M619.934,849.194c2.34,7.018 1.82,11.957 0,19.235l-12.737,0l-0,-4.159c-1.3,-0.779 -2.859,-1.299 -4.159,-2.079c0.78,-4.159 1.3,-8.318 2.079,-12.737c6.499,-2.6 8.319,-2.34 14.817,-0.26Z" style="fill:#623c16;fill-rule:nonzero;"/><path d="M1401.85,859.851c3.64,3.38 3.64,3.38 6.499,6.499c-1.3,3.379 -2.859,7.018 -4.159,10.658c-4.939,-0 -4.939,-0 -10.658,-2.08c-3.899,-7.538 -3.899,-7.538 -6.498,-14.817c6.758,-2.599 8.578,-2.859 14.816,-0.26Z" style="fill:#7b481d;fill-rule:nonzero;"/><path d="M675.042,290.314c3.12,2.079 3.12,2.079 6.499,4.159c0.78,4.159 0.78,4.159 0.52,9.358l-0,5.459c-0,1.819 -0,3.899 -0.26,5.718l-0,5.719c-0,4.679 -0.26,9.358 -0.26,14.037l-4.159,0c-2.6,-4.939 -2.34,-8.058 -2.34,-13.517l0,-30.933Z" style="fill:#fbfeff;fill-rule:nonzero;"/><path d="M1176.74,700.246c1.299,1.299 2.859,2.859 4.159,4.159c-0.78,5.459 -0.78,5.459 -2.08,10.657c-4.939,0.52 -4.939,0.52 -10.657,0c-4.16,-6.498 -4.16,-6.498 -4.16,-14.816c-1.299,-0.78 -2.859,-1.3 -4.159,-2.08c7.019,-2.599 10.398,-1.82 16.897,2.08Z" style="fill:#7b481d;fill-rule:nonzero;"/><path d="M936.546,817.22c7.019,3.12 11.958,7.019 16.897,12.738l-0,4.159c-9.358,1.04 -9.358,1.04 -19.236,2.079c-1.82,-6.238 -2.6,-9.358 -0,-15.596c0.78,-1.04 1.559,-2.08 2.339,-3.38Z" style="fill:#7c9e56;fill-rule:nonzero;"/><path d="M1193.63,702.585c5.199,2.08 5.199,2.08 10.658,4.159l-0,4.159l6.498,0c-2.599,5.459 -4.939,6.239 -10.397,8.838c-1.56,0.78 -2.86,1.56 -4.419,2.34c-4.16,1.819 -4.16,1.819 -10.658,1.819c2.599,-7.278 5.459,-14.296 8.318,-21.315Z" style="fill:#4e3211;fill-rule:nonzero;"/><path d="M957.862,124.469c2.079,0.78 4.159,1.3 6.498,2.08c-0.78,4.419 -1.299,9.098 -2.079,13.517c-0.26,2.599 -0.78,4.939 -1.04,7.538c-1.04,6.499 -1.04,6.499 -3.379,10.658l-4.159,-0c-2.6,-8.058 -1.04,-12.477 1.039,-20.536c0.52,-2.599 1.3,-4.939 1.82,-7.538c0.26,-1.82 0.78,-3.639 1.3,-5.719Z" style="fill:#fbfeff;fill-rule:nonzero;"/><path d="M940.705,122.39c1.3,0.78 2.86,1.299 4.159,2.079c-0.259,3.38 -0.519,6.759 -0.779,10.138c-0,1.82 -0.26,3.899 -0.52,5.719c-0.78,5.199 -0.78,5.199 -5.199,11.697c-3.119,-4.939 -4.419,-7.538 -3.899,-13.517c0.52,-1.559 0.78,-3.379 1.299,-4.939c0.52,-1.559 0.78,-3.379 1.3,-4.939c1.56,-4.159 1.56,-4.159 3.639,-6.238Z" style="fill:#fafdfd;fill-rule:nonzero;"/><path d="M1350.9,1429.13c1.3,0.78 2.86,1.3 4.159,2.08c-5.718,5.718 -11.177,11.177 -16.896,16.896c-2.08,-0.78 -4.159,-1.3 -6.499,-2.08c2.86,-7.278 6.239,-10.657 12.738,-14.816c2.339,-0.52 4.419,-1.3 6.498,-2.08Z" style="fill:#7c9e56;fill-rule:nonzero;"/><path d="M690.379,813.841c1.3,0.52 2.6,0.78 3.899,1.3l0,4.159c-4.159,2.08 -4.159,2.08 -8.578,4.159l0,10.658c-2.859,-2.08 -5.719,-4.159 -8.578,-6.499c0.78,-4.939 0.78,-4.939 2.08,-10.657c6.498,-3.9 6.498,-3.9 11.177,-3.12Z" style="fill:#030303;fill-rule:nonzero;"/><path d="M619.934,849.194c0.78,2.079 1.3,4.159 2.08,6.498l-10.658,0c-1.3,2.86 -2.859,5.719 -4.159,8.578c-1.3,-0.779 -2.859,-1.299 -4.159,-2.079c0.78,-4.159 1.3,-8.318 2.079,-12.737c6.499,-2.6 8.579,-2.86 14.817,-0.26Z" style="fill:#030303;fill-rule:nonzero;"/><path d="M976.838,470.975c7.018,6.498 12.477,12.737 16.896,21.315c-7.798,-1.819 -11.698,-3.119 -16.896,-9.358c-2.08,-5.719 -2.08,-5.719 -0,-11.957Z" style="fill:#030303;fill-rule:nonzero;"/><path d="M532.853,840.615l10.658,0c1.299,2.86 2.859,5.719 4.159,8.579c-3.379,-0.78 -7.019,-1.3 -10.658,-2.08c-1.3,2.859 -2.859,5.719 -4.159,8.578c-1.3,-0.78 -2.859,-1.3 -4.159,-2.079c1.3,-4.419 2.599,-8.579 4.159,-12.998Z" style="fill:#030303;fill-rule:nonzero;"/><path d="M464.748,847.114c1.559,1.56 2.859,3.119 4.419,4.679c5.978,5.979 12.217,11.178 18.976,16.636c-1.3,1.3 -2.86,2.86 -4.16,4.16c-3.119,-2.6 -6.238,-5.459 -9.358,-8.059c-1.819,-1.559 -3.379,-3.119 -5.198,-4.679c-4.419,-4.419 -4.419,-4.419 -6.499,-10.657c0.52,-0.78 1.04,-1.56 1.82,-2.08Z" style="fill:#4f3111;fill-rule:nonzero;"/><path d="M932.387,160.601l6.499,0c0.26,14.037 0.26,14.037 -2.08,21.316c-2.079,-0.78 -4.159,-1.3 -6.498,-2.08c0.519,-6.498 1.299,-12.737 2.079,-19.236Z" style="fill:#fbfeff;fill-rule:nonzero;"/><path d="M964.62,1480.08l10.138,0c-5.199,5.199 -7.798,5.199 -14.817,5.719c-2.859,0.26 -2.859,0.26 -5.719,0.52c-4.938,-0 -4.938,-0 -9.098,-4.419c6.499,-1.56 12.478,-1.82 19.496,-1.82Z" style="fill:#c9c9c9;fill-rule:nonzero;"/><path d="M1038.44,425.485c7.019,3.119 7.799,4.419 10.658,11.177c-3.119,-1.04 -6.239,-1.819 -9.358,-2.859c-1.82,-0.52 -3.379,-1.04 -5.199,-1.56c-4.419,-1.819 -4.419,-1.819 -6.498,-5.979c4.159,-2.079 4.159,-2.079 10.397,-0.779Z" style="fill:#030303;fill-rule:nonzero;"/></g></svg>