<?xml version="1.0" encoding="UTF-8" standalone="no"?><!DOCTYPE svg PUBLIC "-//W3C//DTD SVG 1.1//EN" "http://www.w3.org/Graphics/SVG/1.1/DTD/svg11.dtd"><svg width="100%" height="100%" viewBox="0 0 2134 2138" version="1.1" xmlns="http://www.w3.org/2000/svg" xmlns:xlink="http://www.w3.org/1999/xlink" xml:space="preserve" xmlns:serif="http://www.serif.com/" style="fill-rule:evenodd;clip-rule:evenodd;stroke-linejoin:round;stroke-miterlimit:2;"><rect id="php" x="0" y="0.957" width="2133.33" height="2133.33" style="fill:none;"/><path d="M200.774,768.195l305.122,-0c89.556,0.752 154.451,26.572 194.686,77.419c40.234,50.846 53.51,120.296 39.848,208.348c-5.306,40.235 -17.078,79.696 -35.294,118.405c-17.464,38.71 -41.738,73.617 -72.865,104.744c-37.958,39.461 -78.557,64.508 -121.821,75.141c-43.263,10.634 -88.052,15.94 -134.345,15.94l-136.621,-0l-43.264,216.317l-158.253,0l162.807,-816.314m133.206,129.791l-68.31,341.554c4.554,0.751 9.108,1.138 13.662,1.138l15.939,0c72.865,0.752 133.593,-6.444 182.162,-21.632c48.57,-15.939 81.221,-71.339 97.912,-166.223c13.662,-79.696 0,-125.623 -40.986,-137.76c-40.235,-12.137 -90.695,-17.829 -151.422,-17.077c-9.109,0.751 -17.83,1.138 -26.186,1.138l-23.909,0l1.138,-1.138" style="fill:#fff;fill-rule:nonzero;"/><path d="M920.702,550.739l157.115,-0l-44.403,217.456l141.176,-0c77.419,1.525 135.097,17.464 173.054,47.818c38.71,30.353 50.095,88.052 34.156,173.054l-76.281,379.125l-159.392,-0l72.865,-362.048c7.583,-37.957 5.306,-64.895 -6.831,-80.834c-12.137,-15.939 -38.323,-23.909 -78.557,-23.909l-126.375,-1.138l-93.358,467.929l-157.115,-0l163.946,-817.453" style="fill:#fff;fill-rule:nonzero;"/><path d="M1550.51,768.195l305.122,-0c89.556,0.752 154.451,26.572 194.686,77.419c40.235,50.846 53.51,120.296 39.848,208.348c-5.306,40.235 -17.078,79.696 -35.294,118.405c-17.464,38.71 -41.738,73.617 -72.865,104.744c-37.957,39.461 -78.557,64.508 -121.821,75.141c-43.263,10.634 -88.052,15.94 -134.344,15.94l-136.622,-0l-43.264,216.317l-158.253,0l162.807,-816.314m133.207,129.791l-68.311,341.554c4.554,0.751 9.108,1.138 13.662,1.138l15.939,0c72.865,0.752 133.593,-6.444 182.162,-21.632c48.57,-15.939 81.221,-71.339 97.912,-166.223c13.663,-79.696 0,-125.623 -40.986,-137.76c-40.235,-12.137 -90.694,-17.829 -151.422,-17.077c-9.108,0.751 -17.83,1.138 -26.186,1.138l-23.909,0l1.139,-1.138" style="fill:#fff;fill-rule:nonzero;"/></svg>