<?xml version="1.0" encoding="UTF-8" standalone="no"?><!DOCTYPE svg PUBLIC "-//W3C//DTD SVG 1.1//EN" "http://www.w3.org/Graphics/SVG/1.1/DTD/svg11.dtd"><svg width="100%" height="100%" viewBox="0 0 2134 2138" version="1.1" xmlns="http://www.w3.org/2000/svg" xmlns:xlink="http://www.w3.org/1999/xlink" xml:space="preserve" xmlns:serif="http://www.serif.com/" style="fill-rule:evenodd;clip-rule:evenodd;stroke-linejoin:round;stroke-miterlimit:2;"><rect id="python" x="0" y="0.957" width="2133.33" height="2133.33" style="fill:none;"/><g><path id="path1948" d="M1054.63,45.953c-83.337,0.387 -162.922,7.495 -232.948,19.886c-206.289,36.444 -243.743,112.725 -243.743,253.401l0,185.79l487.486,0l-0,61.93l-670.435,0c-141.677,0 -265.733,85.156 -304.536,247.152c-44.759,185.685 -46.745,301.555 -0,495.44c34.652,144.32 117.406,247.151 259.083,247.152l167.609,-0l-0,-222.721c-0,-160.903 139.216,-302.832 304.536,-302.832l486.917,-0c135.541,-0 243.743,-111.6 243.743,-247.72l0,-464.191c0,-132.111 -111.451,-231.352 -243.743,-253.401c-83.742,-13.94 -170.633,-20.273 -253.969,-19.886Zm-263.629,149.427c50.354,0 91.475,41.793 91.475,93.179c-0,51.205 -41.121,92.611 -91.475,92.611c-50.534,0 -91.474,-41.406 -91.474,-92.611c-0,-51.386 40.94,-93.179 91.474,-93.179Z" style="fill:url(#_Linear1);fill-rule:nonzero;"/><path id="path1950" d="M1613.14,566.96l-0,216.471c-0,167.827 -142.285,309.082 -304.537,309.082l-486.917,-0c-133.375,-0 -243.743,114.151 -243.743,247.72l0,464.19c0,132.112 114.88,209.818 243.743,247.72c154.311,45.374 302.286,53.574 486.917,0c122.727,-35.533 243.743,-107.044 243.743,-247.72l0,-185.789l-486.917,-0l-0,-61.93l730.66,-0c141.677,-0 194.471,-98.823 243.743,-247.152c50.895,-152.703 48.729,-299.551 -0,-495.44c-35.014,-141.04 -101.886,-247.152 -243.743,-247.152l-182.949,0Zm-273.856,1175.53c50.535,0.001 91.475,41.407 91.475,92.611c-0,51.387 -40.94,93.179 -91.475,93.179c-50.354,0 -91.474,-41.792 -91.474,-93.179c-0,-51.204 41.12,-92.611 91.474,-92.611Z" style="fill:url(#_Linear2);fill-rule:nonzero;"/></g><defs><linearGradient id="_Linear1" x1="0" y1="0" x2="1" y2="0" gradientUnits="userSpaceOnUse" gradientTransform="matrix(1114.99,968.559,-968.559,1114.99,56.1389,45.9362)"><stop offset="0" style="stop-color:#5a9fd4;stop-opacity:1"/><stop offset="1" style="stop-color:#306998;stop-opacity:1"/></linearGradient><linearGradient id="_Linear2" x1="0" y1="0" x2="1" y2="0" gradientUnits="userSpaceOnUse" gradientTransform="matrix(-398.162,-568.769,568.769,-398.162,1327.57,1819.48)"><stop offset="0" style="stop-color:#ffd43b;stop-opacity:1"/><stop offset="1" style="stop-color:#ffe873;stop-opacity:1"/></linearGradient></defs></svg>