<?xml version="1.0" encoding="UTF-8" standalone="no"?><!DOCTYPE svg PUBLIC "-//W3C//DTD SVG 1.1//EN" "http://www.w3.org/Graphics/SVG/1.1/DTD/svg11.dtd"><svg width="100%" height="100%" viewBox="0 0 2134 2134" version="1.1" xmlns="http://www.w3.org/2000/svg" xmlns:xlink="http://www.w3.org/1999/xlink" xml:space="preserve" xmlns:serif="http://www.serif.com/" style="fill-rule:evenodd;clip-rule:evenodd;"><rect id="reactjs" x="0" y="0" width="2133.33" height="2133.33" style="fill:none;"/><clipPath id="_clip1"><rect x="0" y="0" width="2133.33" height="2133.33"/></clipPath><g clip-path="url(#_clip1)"><circle cx="1066.67" cy="1066.67" r="197.5" style="fill:#087ea4;"/><ellipse cx="1066.67" cy="1066.67" rx="987.5" ry="444.375" style="fill:none;stroke:#087ea4;stroke-width:98.75px;"/><path d="M1451.51,844.479c272.508,471.998 321.309,954.759 108.91,1077.39c-212.399,122.628 -606.082,-161.015 -878.59,-633.013c-272.508,-471.998 -321.309,-954.759 -108.91,-1077.39c212.399,-122.629 606.082,161.014 878.59,633.012Z" style="fill:none;stroke:#087ea4;stroke-width:98.75px;"/><path d="M1451.51,1288.85c-272.508,471.998 -666.191,755.641 -878.59,633.013c-212.399,-122.629 -163.598,-605.39 108.91,-1077.39c272.508,-471.998 666.191,-755.641 878.59,-633.012c212.399,122.628 163.598,605.389 -108.91,1077.39Z" style="fill:none;stroke:#087ea4;stroke-width:98.75px;"/></g></svg>