<?xml version="1.0" encoding="UTF-8" standalone="no"?><!DOCTYPE svg PUBLIC "-//W3C//DTD SVG 1.1//EN" "http://www.w3.org/Graphics/SVG/1.1/DTD/svg11.dtd"><svg width="100%" height="100%" viewBox="0 0 2134 2138" version="1.1" xmlns="http://www.w3.org/2000/svg" xmlns:xlink="http://www.w3.org/1999/xlink" xml:space="preserve" xmlns:serif="http://www.serif.com/" style="fill-rule:evenodd;clip-rule:evenodd;stroke-linecap:round;stroke-linejoin:round;"><rect id="rust" x="0" y="0.957" width="2133.33" height="2133.33" style="fill:none;"/><path d="M1066.67,160.451c-500.126,0 -907.173,407.24 -907.173,907.173c0,499.933 407.239,907.173 907.173,907.173c499.933,-0 907.172,-407.24 907.172,-907.173c0,-499.933 -407.239,-907.173 -907.172,-907.173Zm-1.344,80.604c32.055,0.83 57.969,27.516 57.958,59.685c-0,32.742 -26.943,59.685 -59.685,59.685c-32.742,-0 -59.685,-26.943 -59.685,-59.685c0,-0.008 0,-0.017 0,-0.025c0,-32.742 26.943,-59.685 59.685,-59.685c0.576,-0 1.152,0.008 1.727,0.025Zm136.642,98.259c211.947,39.699 396.006,170.788 502.812,358.11l-70.432,158.904c-12.09,27.443 0.384,59.685 27.636,71.967l135.49,60.069c4.203,42.352 4.717,84.989 1.536,127.43l-75.422,0c-7.485,0 -10.555,4.99 -10.555,12.283l-0,34.544c-0,81.371 -45.868,99.219 -86.169,103.633c-38.383,4.414 -80.796,-16.121 -86.169,-39.534c-22.646,-127.238 -60.261,-154.298 -119.754,-201.317c73.887,-46.827 150.652,-116.107 150.652,-208.609c-0,-99.987 -68.513,-162.934 -115.148,-193.832c-65.634,-43.181 -138.177,-51.817 -157.753,-51.817l-779.166,0c107.72,-120.338 252.185,-201.848 410.885,-231.831l91.927,96.341c20.726,21.686 55.079,22.645 76.765,1.727l102.865,-98.068Zm-848.255,441.784c32.086,0.929 57.971,27.585 57.958,59.685c-0,32.742 -26.943,59.685 -59.685,59.685c-32.742,-0 -59.685,-26.943 -59.685,-59.685c-0,-0.008 -0,-0.017 -0,-0.025c-0,-32.742 26.943,-59.685 59.685,-59.685c0.576,0 1.151,0.008 1.727,0.025Zm1423.04,2.687c32.086,0.929 57.971,27.585 57.957,59.685c0,32.742 -26.942,59.685 -59.685,59.685c-32.742,-0 -59.684,-26.943 -59.684,-59.685c-0,-0.009 -0,-0.017 -0,-0.025c-0,-32.742 26.942,-59.685 59.684,-59.685c0.576,-0 1.152,0.008 1.728,0.025Zm-1310.57,9.595l104.017,0l-0,469.036l-209.953,-0c-25.929,-91.053 -34.01,-186.265 -23.797,-280.385l128.581,-57.19c27.444,-12.283 39.918,-44.332 27.636,-71.776l-26.484,-59.685Zm434.107,4.99l247.76,0c12.858,0 90.391,14.777 90.391,72.927c-0,48.17 -59.493,65.442 -108.431,65.442l-229.912,0l0.192,-138.369Zm0,336.999l189.802,0c17.272,0 92.694,4.99 116.683,101.33c7.485,29.555 24.181,125.895 35.504,156.793c11.323,34.545 57.19,103.633 106.128,103.633l309.747,0c-20.758,27.8 -43.461,54.094 -67.937,78.685l-126.087,-27.06c-29.362,-6.333 -58.341,12.474 -64.674,41.837l-29.939,139.713c-194.705,88.201 -418.526,87.149 -612.394,-2.879l-29.938,-139.713c-6.334,-29.362 -35.12,-48.17 -64.483,-41.837l-123.4,26.484c-22.899,-23.621 -44.186,-48.754 -63.715,-75.23l600.112,0c6.717,0 11.322,-1.151 11.322,-7.484l0,-212.256c0,-6.141 -4.605,-7.485 -11.322,-7.485l-175.601,0l0.192,-134.531Zm-276.93,486.116c32.086,0.929 57.971,27.585 57.957,59.685c0,32.742 -26.942,59.685 -59.685,59.685c-32.742,-0 -59.684,-26.943 -59.684,-59.685c-0,-0.008 -0,-0.017 -0,-0.025c-0,-32.742 26.942,-59.685 59.684,-59.685c0.576,-0 1.152,0.008 1.728,0.025Zm883.759,2.687c32.086,0.929 57.971,27.585 57.958,59.685c-0,32.742 -26.943,59.685 -59.685,59.685c-32.742,-0 -59.685,-26.943 -59.685,-59.685c-0,-0.009 -0,-0.017 -0,-0.025c-0,-32.743 26.943,-59.685 59.685,-59.685c0.576,-0 1.151,0.008 1.727,0.025Z" style="fill:#e43a25;fill-rule:nonzero;"/><path d="M1923.17,1067.62c0,469.866 -386.641,856.508 -856.507,856.508c-469.866,-0 -856.508,-386.642 -856.508,-856.508c0,-469.866 386.642,-856.508 856.508,-856.508c469.866,0 856.507,386.642 856.507,856.508Zm-16.12,-82.714l133.571,82.714l-133.571,82.715l114.764,107.279l-147.006,55.079l91.735,127.622l-155.258,25.333l65.25,143.167l-157.176,-5.566l36.079,153.147l-153.146,-36.08l5.565,157.177l-143.167,-65.251l-25.332,155.258l-127.622,-91.734l-55.079,147.005l-107.28,-114.764l-82.714,133.571l-82.715,-133.571l-107.279,114.764l-55.079,-147.005l-127.622,91.734l-25.333,-155.258l-143.167,65.251l5.566,-157.177l-153.147,36.08l36.08,-153.147l-157.177,5.566l65.25,-143.167l-155.257,-25.333l91.734,-127.622l-147.005,-55.079l114.764,-107.279l-133.572,-82.715l133.572,-82.714l-114.764,-107.28l147.005,-55.079l-91.734,-127.622l155.257,-25.332l-65.25,-143.168l157.177,5.566l-36.08,-153.147l153.147,36.08l-5.566,-157.177l143.167,65.251l25.333,-155.258l127.622,91.735l55.079,-147.006l107.279,114.764l82.715,-133.571l82.714,133.571l107.28,-114.764l55.079,147.006l127.622,-91.735l25.332,155.258l143.167,-65.251l-5.565,157.177l153.146,-36.08l-36.079,153.147l157.176,-5.566l-65.25,143.168l155.258,25.332l-91.735,127.622l147.006,55.079l-114.764,107.28Z" style="fill:#e43a25;stroke:#e43a25;stroke-width:57.57px;"/></svg>