<?xml version="1.0" encoding="UTF-8" standalone="no"?><!DOCTYPE svg PUBLIC "-//W3C//DTD SVG 1.1//EN" "http://www.w3.org/Graphics/SVG/1.1/DTD/svg11.dtd"><svg width="100%" height="100%" viewBox="0 0 2134 2138" version="1.1" xmlns="http://www.w3.org/2000/svg" xmlns:xlink="http://www.w3.org/1999/xlink" xml:space="preserve" xmlns:serif="http://www.serif.com/" style="fill-rule:evenodd;clip-rule:evenodd;stroke-linejoin:round;stroke-miterlimit:2;"><rect id="sass" x="0" y="1.436" width="2133.33" height="2133.33" style="fill:none;"/><path d="M1803.24,1181.69c-71.379,0.399 -133.187,17.545 -185.026,43.066c-19.14,-37.882 -38.281,-70.98 -41.471,-95.703c-3.589,-28.711 -7.975,-46.256 -3.589,-80.55c4.387,-34.293 24.325,-82.942 24.325,-86.93c-0.399,-3.588 -4.387,-21.134 -45.459,-21.533c-41.073,-0.398 -76.562,7.976 -80.55,18.742c-3.988,10.767 -11.963,35.49 -17.147,61.011c-7.177,37.483 -82.145,170.271 -124.812,240.054c-13.957,-27.116 -25.92,-51.041 -28.312,-70.182c-3.589,-28.711 -7.975,-46.256 -3.589,-80.55c4.386,-34.293 24.324,-82.942 24.324,-86.93c-0.398,-3.589 -4.386,-21.134 -45.458,-21.533c-41.073,-0.399 -76.563,7.975 -80.55,18.742c-3.988,10.766 -8.374,36.287 -17.147,61.01c-8.374,24.724 -108.064,246.435 -133.984,304.255c-13.159,29.509 -24.723,53.036 -33.097,68.986c-8.374,15.951 -0.399,1.196 -1.196,2.791c-7.178,13.558 -11.166,21.135 -11.166,21.135l0,0.399c-5.582,9.969 -11.564,19.539 -14.355,19.539c-1.994,-0 -5.981,-26.717 0.798,-63.403c14.754,-76.961 50.642,-196.988 50.243,-201.375c0,-1.994 6.779,-23.128 -23.128,-33.894c-29.109,-10.767 -39.477,7.177 -41.87,7.177c-2.392,0 -4.386,6.38 -4.386,6.38c0,0 32.3,-135.18 -61.808,-135.18c-59.017,0 -140.364,64.201 -180.639,122.819c-25.521,13.956 -79.752,43.465 -137.174,74.967c-21.932,11.963 -44.661,24.723 -66.194,36.287l-4.387,-4.785c-114.045,-121.622 -324.99,-207.755 -316.218,-371.247c3.191,-59.415 23.926,-216.129 405.142,-405.939c312.23,-155.517 562.254,-112.849 605.719,-17.944c61.808,135.579 -133.585,387.596 -458.177,423.883c-123.616,13.957 -188.614,-33.895 -204.964,-51.839c-17.146,-18.742 -19.539,-19.539 -25.919,-15.95c-10.368,5.582 -3.988,22.33 -0,32.299c9.57,25.122 49.446,69.784 117.236,92.114c59.415,19.54 204.564,30.306 380.02,-37.483c196.589,-76.164 350.112,-287.507 305.052,-464.159c-45.858,-179.841 -344.131,-238.858 -626.055,-138.769c-167.879,59.815 -349.714,153.125 -480.508,275.545c-155.517,145.149 -180.24,271.955 -169.872,324.591c36.287,187.817 295.083,310.237 398.761,400.756c-5.184,2.791 -9.969,5.582 -14.355,7.975c-51.839,25.521 -249.226,128.8 -298.673,238.061c-55.826,123.616 8.773,212.539 51.839,224.502c133.187,37.085 269.563,-29.508 343.334,-139.168c73.372,-109.659 64.599,-252.017 30.705,-317.015l-1.197,-2.392l40.674,-23.926c26.318,-15.552 52.238,-29.907 74.967,-42.269c-12.76,34.692 -21.932,75.765 -26.717,135.579c-5.583,70.182 23.128,161.1 61.011,196.988c16.748,15.552 36.686,15.951 49.047,15.951c43.864,-0 63.802,-36.288 85.734,-79.753c27.116,-53.035 51.041,-114.444 51.041,-114.444c0,-0 -29.907,166.283 51.839,166.283c29.908,0 59.815,-38.68 73.373,-58.618l-0,0.399c-0,0 0.797,-1.196 2.392,-3.987c3.19,-4.786 4.785,-7.577 4.785,-7.577l0,-0.797c11.963,-20.736 38.68,-68.189 78.556,-146.745c51.44,-101.285 100.887,-228.091 100.887,-228.091c-0,-0 4.785,31.103 19.539,82.145c8.773,30.306 27.913,63.403 42.668,95.702c-11.963,16.748 -19.141,26.319 -19.141,26.319l0.399,0.398c-9.57,12.761 -20.337,26.319 -31.502,39.877c-40.674,48.648 -89.323,104.076 -95.703,120.027c-7.576,18.742 -5.981,32.698 8.773,43.864c10.766,7.975 29.907,9.57 50.244,7.975c36.686,-2.393 62.206,-11.564 74.967,-17.147c19.938,-7.178 42.667,-17.944 64.599,-33.895c39.876,-29.508 64.201,-71.378 61.808,-127.205c-1.196,-30.704 -11.165,-61.01 -23.527,-89.721c3.589,-5.184 7.178,-10.368 10.767,-15.95c63.004,-92.114 111.653,-193.4 111.653,-193.4c0,0 4.785,31.104 19.539,82.145c7.577,25.92 22.73,54.232 36.288,82.145c-59.017,48.25 -96.102,104.077 -108.862,140.763c-23.527,67.789 -5.184,98.494 29.508,105.672c15.552,3.19 37.882,-3.988 54.63,-11.166c20.736,-6.779 45.858,-18.343 68.986,-35.489c39.876,-29.509 78.157,-70.581 76.164,-126.009c-1.197,-25.521 -7.976,-50.643 -17.147,-74.569c50.244,-20.735 115.242,-32.698 197.786,-22.729c177.448,20.736 212.539,131.591 205.76,177.848c-6.778,46.256 -43.863,71.777 -56.225,79.752c-12.362,7.576 -16.349,10.368 -15.153,15.95c1.595,8.374 7.178,7.976 17.944,6.381c14.755,-2.393 93.311,-37.883 96.501,-123.218c4.785,-109.659 -99.292,-229.287 -283.918,-228.091Zm-1368.55,461.367c-58.618,64.2 -141.161,88.525 -176.252,67.789c-37.883,-21.932 -23.129,-116.438 49.047,-184.626c43.864,-41.472 100.887,-79.753 138.371,-103.28c8.374,-5.183 21.134,-12.76 36.287,-21.931c2.392,-1.595 3.987,-2.393 3.987,-2.393c2.792,-1.595 5.982,-3.589 9.172,-5.583c26.717,97.298 1.196,182.633 -60.612,250.024Zm428.669,-291.495c-20.337,49.845 -63.403,177.848 -89.323,170.67c-22.33,-5.981 -35.888,-102.88 -4.386,-198.583c15.95,-48.25 49.845,-105.672 69.783,-128.003c32.3,-35.888 67.391,-47.851 76.164,-33.097c10.367,19.141 -39.478,157.91 -52.238,189.013Zm353.701,169.075c-8.773,4.386 -16.748,7.576 -20.337,5.184c-2.791,-1.595 3.589,-7.577 3.589,-7.577c0,0 44.263,-47.452 61.808,-69.384c9.969,-12.76 21.932,-27.515 34.692,-44.263l0,4.786c0,57.421 -55.029,95.702 -79.752,111.254Zm272.753,-62.207c-6.38,-4.785 -5.583,-19.539 15.95,-65.795c8.374,-18.343 27.515,-49.048 60.612,-78.158c3.988,11.963 6.38,23.527 5.982,34.294c-0.399,71.777 -51.441,98.494 -82.544,109.659Z" style="fill:#cf649a;fill-rule:nonzero;"/></svg>