<?xml version="1.0" encoding="UTF-8" standalone="no"?><!DOCTYPE svg PUBLIC "-//W3C//DTD SVG 1.1//EN" "http://www.w3.org/Graphics/SVG/1.1/DTD/svg11.dtd"><svg width="100%" height="100%" viewBox="0 0 2134 2138" version="1.1" xmlns="http://www.w3.org/2000/svg" xmlns:xlink="http://www.w3.org/1999/xlink" xml:space="preserve" xmlns:serif="http://www.serif.com/" style="fill-rule:evenodd;clip-rule:evenodd;stroke-linejoin:round;stroke-miterlimit:2;"><rect id="solidjs" x="0" y="0.957" width="2133.33" height="2133.33" style="fill:none;"/><path d="M2081.25,523.6c0,-0 -676.389,-497.72 -1199.63,-382.862l-38.286,12.762c-76.573,25.524 -140.383,63.81 -178.669,114.859l-25.524,38.286l-191.431,331.813l331.813,63.811c140.383,89.334 319.052,127.62 484.959,89.334l587.054,114.858l229.717,-382.861Z" style="fill:#76b3e1;fill-rule:nonzero;"/><path d="M2081.25,523.6c0,-0 -676.389,-497.72 -1199.63,-382.862l-38.286,12.762c-76.573,25.524 -140.383,63.81 -178.669,114.859l-25.524,38.286l-191.431,331.813l331.813,63.811c140.383,89.334 319.052,127.62 484.959,89.334l587.054,114.858l229.717,-382.861Z" style="fill:url(#_Linear1);fill-rule:nonzero;"/><path d="M664.662,523.6l-51.048,12.762c-216.955,63.81 -280.765,268.003 -165.907,446.672c127.621,165.906 395.624,255.241 612.579,191.431l791.247,-268.004c0,0 -676.389,-497.72 -1186.87,-382.861Z" style="fill:#518ac8;fill-rule:nonzero;"/><path d="M664.662,523.6l-51.048,12.762c-216.955,63.81 -280.765,268.003 -165.907,446.672c127.621,165.906 395.624,255.241 612.579,191.431l791.247,-268.004c0,0 -676.389,-497.72 -1186.87,-382.861Z" style="fill:url(#_Linear2);fill-rule:nonzero;"/><path d="M1711.15,1097.89c-145.857,-182.22 -388.919,-258.177 -612.578,-191.431l-791.248,255.241l-255.241,446.672l1429.35,242.479l255.242,-459.434c51.048,-89.334 38.286,-191.43 -25.525,-293.527Z" style="fill:url(#_Linear3);fill-rule:nonzero;"/><path d="M1455.91,1544.56c-145.857,-182.22 -388.919,-258.177 -612.578,-191.431l-791.248,255.241c0,0 676.389,510.483 1199.63,382.862l38.287,-12.762c216.955,-63.81 293.527,-268.003 165.906,-433.91Z" style="fill:url(#_Linear4);fill-rule:nonzero;"/><defs><linearGradient id="_Linear1" x1="0" y1="0" x2="1" y2="0" gradientUnits="userSpaceOnUse" gradientTransform="matrix(1588.88,772.104,-772.104,1588.88,351.992,115.214)"><stop offset="0" style="stop-color:#76b3e1;stop-opacity:0.3"/><stop offset="0.1" style="stop-color:#76b3e1;stop-opacity:0.3"/><stop offset="0.3" style="stop-color:#dcf2fd;stop-opacity:0.3"/><stop offset="1" style="stop-color:#76b3e1;stop-opacity:0.3"/></linearGradient><linearGradient id="_Linear2" x1="0" y1="0" x2="1" y2="0" gradientUnits="userSpaceOnUse" gradientTransform="matrix(-278.213,926.525,-926.525,-278.213,1223.64,492.971)"><stop offset="0" style="stop-color:#76b3e1;stop-opacity:0.3"/><stop offset="0.5" style="stop-color:#4377bb;stop-opacity:0.3"/><stop offset="1" style="stop-color:#1f3b77;stop-opacity:0.3"/></linearGradient><linearGradient id="_Linear3" x1="0" y1="0" x2="1" y2="0" gradientUnits="userSpaceOnUse" gradientTransform="matrix(1606.74,1092.43,-1092.43,1606.74,235.857,896.252)"><stop offset="0" style="stop-color:#315aa9;stop-opacity:1"/><stop offset="0.5" style="stop-color:#518ac8;stop-opacity:1"/><stop offset="1" style="stop-color:#315aa9;stop-opacity:1"/></linearGradient><linearGradient id="_Linear4" x1="0" y1="0" x2="1" y2="0" gradientUnits="userSpaceOnUse" gradientTransform="matrix(-648.312,2377.57,-2377.57,-648.312,960.742,1027.7)"><stop offset="0" style="stop-color:#4377bb;stop-opacity:1"/><stop offset="0.5" style="stop-color:#1a336b;stop-opacity:1"/><stop offset="1" style="stop-color:#1a336b;stop-opacity:1"/></linearGradient></defs></svg>