<?xml version="1.0" encoding="UTF-8" standalone="no"?><!DOCTYPE svg PUBLIC "-//W3C//DTD SVG 1.1//EN" "http://www.w3.org/Graphics/SVG/1.1/DTD/svg11.dtd"><svg width="100%" height="100%" viewBox="0 0 2134 2134" version="1.1" xmlns="http://www.w3.org/2000/svg" xmlns:xlink="http://www.w3.org/1999/xlink" xml:space="preserve" xmlns:serif="http://www.serif.com/" style="fill-rule:evenodd;clip-rule:evenodd;stroke-linejoin:round;stroke-miterlimit:2;"><rect id="typescript" x="0" y="0" width="2133.33" height="2133.33" style="fill:none;"/><path d="M414.841,873.328l1500.89,0c33.607,0 60.847,18.372 60.847,41.035l0,1012.21c0,22.664 -27.24,41.035 -60.847,41.035l-1500.89,0c-33.605,0 -60.847,-18.371 -60.847,-41.035l0,-1012.21c0,-22.663 27.242,-41.035 60.847,-41.035Z" style="fill:#fff;fill-rule:nonzero;"/><path d="M106.517,28.667l1920.3,-0c42.997,-0 77.85,34.854 77.85,77.85l-0,1920.3c-0,42.997 -34.853,77.85 -77.85,77.85l-1920.3,-0c-42.996,-0 -77.85,-34.853 -77.85,-77.85l-0,-1920.3c-0,-42.996 34.854,-77.85 77.85,-77.85Zm1076.17,1104.43l0,-170.264l-738.832,-0l-0,170.264l263.78,-0l-0,758.107l209.979,-0l-0,-758.107l265.073,-0Zm83.719,738.089c33.863,17.263 73.913,30.214 120.152,38.846c46.231,8.631 94.961,12.951 146.191,12.951c49.927,-0 97.356,-4.751 142.285,-14.245c44.938,-9.494 84.334,-25.143 118.197,-46.941c33.862,-21.798 60.667,-50.28 80.421,-85.46c19.754,-35.18 29.631,-78.664 29.631,-130.46c-0,-37.552 -5.646,-70.457 -16.928,-98.73c-11.29,-28.274 -27.571,-53.417 -48.842,-75.431c-21.271,-22.013 -46.782,-41.759 -76.516,-59.238c-29.743,-17.478 -63.278,-33.99 -100.614,-49.528c-27.348,-11.227 -51.876,-22.126 -73.587,-32.697c-21.702,-10.572 -40.154,-21.367 -55.349,-32.37c-15.195,-11.011 -26.916,-22.66 -35.164,-34.964c-8.248,-12.297 -12.376,-26.222 -12.376,-41.76c-0,-14.245 3.697,-27.084 11.074,-38.518c7.378,-11.442 17.798,-21.263 31.26,-29.463c13.454,-8.2 29.95,-14.564 49.489,-19.099c19.538,-4.528 41.24,-6.795 65.122,-6.795c17.359,-0 35.707,1.293 55.022,3.88c19.323,2.595 38.75,6.588 58.28,11.977c19.538,5.398 38.534,12.193 56.986,20.401c18.453,8.2 35.492,17.694 51.118,28.481l-0,-193.579c-31.691,-12.089 -66.313,-21.047 -103.864,-26.868c-37.56,-5.829 -80.645,-8.743 -129.263,-8.743c-49.497,-0 -96.382,5.286 -140.665,15.865c-44.283,10.572 -83.24,27.084 -116.887,49.529c-33.647,22.444 -60.236,51.037 -79.774,85.778c-19.539,34.749 -29.304,76.293 -29.304,124.632c0,61.729 17.91,114.388 53.729,157.976c35.811,43.596 90.186,80.501 163.125,110.715c28.649,11.657 55.35,23.091 80.094,34.317c24.744,11.219 46.127,22.876 64.141,34.957c18.021,12.089 32.233,25.247 42.653,39.492c10.42,14.245 15.634,30.429 15.634,48.562c0,13.383 -3.258,25.791 -9.773,37.225c-6.507,11.442 -16.384,21.366 -29.623,29.782c-13.246,8.416 -29.743,15.003 -49.497,19.746c-19.753,4.751 -42.869,7.122 -69.354,7.122c-45.145,0 -89.859,-7.872 -134.141,-23.626c-44.283,-15.754 -85.308,-39.388 -123.083,-70.895l-0,207.176Z" style="fill:#3178c6;fill-rule:nonzero;"/></svg>